<svg width="47" height="44" viewBox="0 0 47 44" fill="none" xmlns="http://www.w3.org/2000/svg">
<path fill-rule="evenodd" clip-rule="evenodd" d="M23.5 0C22.683 0 22 0.597995 22 1.314V6.68201C22 7.39801 22.683 7.996 23.5 7.996C24.317 7.996 24.996 7.39801 24.996 6.68201V1.314C24.996 0.597995 24.317 0 23.5 0Z" fill="#231F20"/>
<path fill-rule="evenodd" clip-rule="evenodd" d="M7.54303 6.00391C7.21563 6.00391 6.89193 6.1569 6.59463 6.4679C6.00003 7.0849 6.00003 7.83191 6.59463 8.44891L10.3882 12.5359C10.7457 12.8429 11.0995 12.9999 11.4419 12.9999C11.7806 12.9999 12.1081 12.8429 12.4054 12.5359C12.9962 11.9149 12.9962 11.0509 12.4054 10.4299L8.49144 6.4679C8.19414 6.1569 7.87043 6.00391 7.54303 6.00391Z" fill="#231F20"/>
<path fill-rule="evenodd" clip-rule="evenodd" d="M39.43 6.00391C39.101 6.00391 38.768 6.1569 38.465 6.4679L34.605 10.4299C34.004 11.0509 34.004 11.7929 34.605 12.5359C34.908 12.8429 35.268 12.9999 35.616 12.9999C35.964 12.9999 36.294 12.8429 36.535 12.5359L40.395 8.44891C41 7.83191 41 7.0849 40.395 6.4679C40.096 6.1569 39.763 6.00391 39.43 6.00391Z" fill="#231F20"/>
<path fill-rule="evenodd" clip-rule="evenodd" d="M31.034 4.00391C30.428 4.00391 29.889 4.38191 29.572 4.97391L28.43 7.80792C28.005 8.75592 28.575 9.56691 29.286 9.83691C29.517 9.94391 29.748 9.99591 29.97 9.99591C30.572 9.99591 31.116 9.61791 31.428 9.02591L32.715 6.18692C33 5.37692 32.715 4.4329 31.714 4.1629C31.483 4.0559 31.256 4.00391 31.034 4.00391Z" fill="#231F20"/>
<path fill-rule="evenodd" clip-rule="evenodd" d="M15.9656 4.00391C15.7482 4.00391 15.5172 4.0559 15.2862 4.1629C14.4303 4.4329 14.0045 5.37692 14.4303 6.18692L15.5716 9.02591C15.8886 9.61791 16.4275 9.99591 17.0344 9.99591C17.2563 9.99591 17.4828 9.94391 17.7138 9.83691C18.7101 9.56691 18.9955 8.75592 18.7101 7.80792L17.4284 4.97391C17.1159 4.38191 16.5725 4.00391 15.9656 4.00391Z" fill="#231F20"/>
<path fill-rule="evenodd" clip-rule="evenodd" d="M1.29482 22.0039C0.589623 22.0039 0.00372314 22.6529 0.00372314 23.4339C0.00372314 24.3469 0.589623 24.9959 1.29482 24.9959H6.70522C7.41042 24.9959 7.99632 24.3469 7.99632 23.4339C7.99632 22.6529 7.41042 22.0039 6.70522 22.0039H1.29482Z" fill="#231F20"/>
<path fill-rule="evenodd" clip-rule="evenodd" d="M40.276 22.0039C39.581 22.0039 39.004 22.6529 39.004 23.4339C39.004 24.3469 39.581 24.9959 40.276 24.9959H45.724C46.419 24.9959 47 24.3469 47 23.4339C47 22.6529 46.419 22.0039 45.724 22.0039H40.276Z" fill="#231F20"/>
<path fill-rule="evenodd" clip-rule="evenodd" d="M41.4001 15.0039C41.2131 15.0039 41.0231 15.0359 40.8281 15.0949L38.1511 16.2229C37.2551 16.4739 37 17.4749 37.255 18.0979C37.535 18.6499 38.0211 18.9959 38.5641 18.9959C38.7621 18.9959 38.965 18.9519 39.172 18.8489L41.979 17.7249C42.745 17.4749 43.0001 16.7239 42.7451 15.8459C42.4571 15.2859 41.9551 15.0039 41.4001 15.0039Z" fill="#231F20"/>
<path fill-rule="evenodd" clip-rule="evenodd" d="M5.64071 15.0039C5.04231 15.0039 4.56671 15.3059 4.37651 15.9699C4.00401 16.5979 4.50331 17.4729 5.12551 17.8509L7.74901 18.8529C7.95111 18.9519 8.1612 18.9999 8.3633 18.9999C8.9221 18.9999 9.4373 18.6499 9.6235 18.1009C9.996 17.3499 9.6235 16.5979 8.8745 16.2209L6.25101 15.0949C6.03701 15.0319 5.83491 15.0039 5.64071 15.0039Z" fill="#231F20"/>
<path fill-rule="evenodd" clip-rule="evenodd" d="M7.07091 39C5.37991 39 3.68882 39.454 2.17802 40.363C1.81372 40.478 1.45331 40.817 1.08901 40.932C0.364311 41.271 0.00381741 41.952 0.364317 42.634C0.540717 43.135 1.04302 43.448 1.58372 43.448C1.77922 43.448 1.98252 43.409 2.17802 43.315C2.78002 43.203 3.38592 42.976 3.86912 42.634C4.83542 42.01 5.98191 41.696 7.14381 41.696C8.30951 41.696 9.48671 42.01 10.5143 42.634C12.0213 43.542 13.7162 43.996 15.3919 43.996C17.0676 43.996 18.7279 43.542 20.1774 42.634C21.144 42.01 22.29 41.696 23.456 41.696C24.618 41.696 25.795 42.01 26.823 42.634C28.333 43.542 30.024 43.996 31.7 43.996C33.376 43.996 35.036 43.542 36.486 42.634C37.452 42.01 38.602 41.696 39.78 41.696C40.957 41.696 42.165 42.01 43.25 42.634C43.856 42.976 44.339 43.203 44.945 43.542C45.117 43.6 45.294 43.629 45.466 43.629C45.999 43.629 46.482 43.351 46.755 42.749C46.996 41.952 46.755 41.044 45.911 40.932C45.547 40.817 45.186 40.705 44.703 40.363C43.192 39.454 41.501 39 39.81 39C38.119 39 36.424 39.454 34.917 40.363C33.951 40.99 32.77 41.3 31.593 41.3C30.416 41.3 29.238 40.99 28.272 40.363C26.761 39.454 25.07 39 23.395 39C21.719 39 20.0585 39.454 18.6052 40.363C17.6389 40.99 16.4617 41.3 15.2845 41.3C14.1073 41.3 12.9301 40.99 11.9638 40.363C10.453 39.454 8.76191 39 7.07091 39Z" fill="#231F20"/>
<path fill-rule="evenodd" clip-rule="evenodd" d="M7.07091 33C5.37991 33 3.68882 33.545 2.17802 34.635C1.81372 34.774 1.45331 35.18 1.08901 35.319C0.364311 35.591 0.00381741 36.543 0.364317 37.361C0.540717 37.962 1.04302 38.338 1.58372 38.338C1.77922 38.338 1.98252 38.291 2.17802 38.178C2.78002 38.044 3.38592 37.633 3.86912 37.361C4.83542 36.612 5.98191 36.236 7.14381 36.236C8.30951 36.236 9.48671 36.612 10.5143 37.361C12.0213 38.451 13.7162 38.996 15.3919 38.996C17.0676 38.996 18.7279 38.451 20.1774 37.361C21.144 36.612 22.29 36.236 23.456 36.236C24.618 36.236 25.795 36.612 26.823 37.361C28.333 38.451 30.024 38.996 31.7 38.996C33.376 38.996 35.036 38.451 36.486 37.361C37.452 36.612 38.602 36.236 39.78 36.236C40.957 36.236 42.165 36.612 43.25 37.361C43.856 37.633 44.339 38.044 44.945 38.316C45.136 38.425 45.332 38.477 45.52 38.477C46.03 38.477 46.49 38.096 46.755 37.499C46.996 36.543 46.755 35.591 45.911 35.319C45.547 35.18 45.186 34.908 44.703 34.635C43.192 33.545 41.501 33 39.81 33C38.119 33 36.424 33.545 34.917 34.635C33.951 35.384 32.77 35.76 31.593 35.76C30.416 35.76 29.238 35.384 28.272 34.635C26.761 33.545 25.07 33 23.395 33C21.719 33 20.0585 33.545 18.6052 34.635C17.6389 35.384 16.4617 35.76 15.2845 35.76C14.1073 35.76 12.9301 35.384 11.9638 34.635C10.453 33.545 8.76191 33 7.07091 33Z" fill="#231F20"/>
<path fill-rule="evenodd" clip-rule="evenodd" d="M23.619 11.0039C16.8715 11.0039 11.3293 16.5619 11.3293 23.3289C11.3293 25.6269 12.0522 27.8019 13.1346 29.7349C12.6527 29.6129 12.4117 29.3709 11.9298 29.1289C10.4228 28.1629 8.736 27.6789 7.0492 27.6789C5.3625 27.6789 3.6757 28.1629 2.1687 29.1289C1.8092 29.2519 1.3272 29.6129 1.0863 29.7349C0.363403 29.9769 2.78652e-06 30.8209 0.363403 31.5459C0.539303 32.0789 0.9753 32.4169 1.5261 32.4169C1.725 32.4169 1.943 32.3709 2.1687 32.2709C2.773 32.1519 3.3735 31.7879 3.7369 31.5459C4.762 30.8819 5.9362 30.5529 7.0951 30.5529C8.2541 30.5529 9.4015 30.8819 10.3654 31.5459C11.8686 32.5129 13.5859 32.9999 15.2727 32.9999C16.9633 32.9999 18.6195 32.5129 20.0041 31.5459C21.029 30.8819 22.203 30.5529 23.362 30.5529C24.521 30.5529 25.669 30.8819 26.633 31.5459C28.078 32.5129 29.796 32.9999 31.498 32.9999C33.2 32.9999 34.887 32.5129 36.271 31.5459C37.296 30.8819 38.471 30.5529 39.66 30.5529C40.85 30.5529 42.054 30.8819 43.141 31.5459C43.745 31.7879 44.105 32.1519 44.709 32.3939C44.935 32.4899 45.149 32.5359 45.351 32.5359C45.902 32.5359 46.338 32.1979 46.514 31.6689C46.996 30.8209 46.755 29.9769 45.914 29.7349C45.55 29.6129 45.191 29.3709 44.709 29.1289C43.202 28.1629 41.515 27.6789 39.828 27.6789C38.142 27.6789 36.451 28.1629 34.948 29.1289L34.103 29.6129C35.066 27.8019 35.912 25.5039 35.912 23.3289C35.912 16.5619 30.488 11.0039 23.619 11.0039Z" fill="#231F20"/>
</svg>
