<svg width="37" height="38" viewBox="0 0 37 38" fill="none" xmlns="http://www.w3.org/2000/svg">
<path fill-rule="evenodd" clip-rule="evenodd" d="M18.497 0C16.044 0 14 2.06901 14 4.44901C14 6.93101 16.044 9 18.497 9C20.95 9 22.994 6.93101 22.994 4.44901C22.994 2.06901 20.95 0 18.497 0Z" fill="#231F20"/>
<path fill-rule="evenodd" clip-rule="evenodd" d="M7.5 20C5.047 20 3.00299 22.069 3.00299 24.449C3.00299 26.931 5.047 29 7.5 29C9.953 29 11.997 26.931 11.997 24.449C11.997 22.069 9.953 20 7.5 20Z" fill="#231F20"/>
<path fill-rule="evenodd" clip-rule="evenodd" d="M29.451 20.0029C27.071 20.0029 25.003 22.0709 25.003 24.5529C25.003 26.9289 27.071 28.9969 29.451 28.9969C31.932 28.9969 34 26.9289 34 24.5529C34 22.0709 31.932 20.0029 29.451 20.0029Z" fill="#231F20"/>
<path fill-rule="evenodd" clip-rule="evenodd" d="M2.51501 29C1.06601 30.387 0 32.364 0 34.636V36.911C0 37.504 0.48501 37.997 1.06601 37.997H13.836C14.515 37.997 14.997 37.504 14.997 36.911V34.636C14.997 32.461 14.029 30.387 12.386 29C11.225 30.484 9.48399 31.473 7.45099 31.473C5.51599 31.473 3.67601 30.484 2.51501 29Z" fill="#231F20"/>
<path fill-rule="evenodd" clip-rule="evenodd" d="M13.597 9.00293C12.059 10.3719 11.003 12.4239 11.003 14.5759V16.9229C11.003 17.5089 11.482 17.9999 12.059 17.9999H24.844C25.518 17.9999 25.997 17.5089 25.997 16.9229V14.5759C25.997 12.4239 25.036 10.3719 23.403 9.00293C22.25 10.4679 20.422 11.446 18.5 11.446C16.578 11.446 14.655 10.4679 13.597 9.00293Z" fill="#231F20"/>
<path fill-rule="evenodd" clip-rule="evenodd" d="M24.518 29C22.97 30.387 22.003 32.461 22.003 34.636V36.911C22.003 37.504 22.485 37.997 23.065 37.997H35.836C36.515 37.997 36.997 37.504 36.997 36.911V34.636C36.997 32.461 36.03 30.387 34.384 29C33.223 30.484 31.482 31.473 29.452 31.473C27.518 31.473 25.679 30.484 24.518 29Z" fill="#231F20"/>
<path fill-rule="evenodd" clip-rule="evenodd" d="M17.49 20V22.731L14.003 26.437C14.644 26.926 14.827 27.121 15.378 27.997L18.501 24.876L21.622 27.997C22.079 27.412 22.54 26.926 22.997 26.536L19.51 22.731V20H17.49Z" fill="#231F20"/>
</svg>
