<svg width="38" height="39" viewBox="0 0 38 39" fill="none" xmlns="http://www.w3.org/2000/svg">
<path fill-rule="evenodd" clip-rule="evenodd" d="M8.54534 4.897C9.09689 4.897 9.6475 5.452 9.6475 6.006V7.299H10.9338C11.6686 7.299 12.1295 7.853 12.1295 8.592C12.1295 9.24 11.4854 9.795 10.9338 9.795H9.6475V11.088C9.6475 11.733 9.09689 12.196 8.54534 12.196C7.90311 12.196 7.34968 11.642 7.34968 11.088V9.795H6.06335C5.42207 9.795 4.96116 9.24 4.96116 8.592C4.96116 7.853 5.42207 7.299 6.06335 7.299H7.34968V6.006C7.34968 5.358 7.90311 4.897 8.54534 4.897ZM1.28633 0C0.551555 0 0 0.553999 0 1.293V15.798C0.0935 16.537 0.644111 17 1.28633 17H15.7108C16.4456 17 17 16.446 17 15.798V1.293C17 0.553999 16.4456 0 15.7108 0H1.28633Z" fill="#231F20"/>
<path fill-rule="evenodd" clip-rule="evenodd" d="M10.007 26.803C10.329 26.803 10.648 26.9 10.877 27.097C11.332 27.59 11.332 28.477 10.877 28.967L10.053 29.853L10.877 30.737C11.332 31.23 11.332 32.017 10.877 32.507C10.648 32.753 10.329 32.875 10.007 32.875C9.68799 32.875 9.36901 32.753 9.14001 32.507L8.409 31.72L7.58801 32.507C7.35901 32.753 7.03699 32.875 6.71799 32.875C6.39899 32.875 6.07901 32.753 5.85001 32.507C5.39201 32.017 5.39201 31.23 5.85001 30.737L6.67099 29.853L5.85001 28.967C5.39201 28.477 5.39201 27.59 5.85001 27.097C6.07901 26.9 6.39899 26.803 6.71799 26.803C7.03699 26.803 7.35901 26.9 7.58801 27.097L8.409 27.983L9.14001 27.097C9.36901 26.9 9.68799 26.803 10.007 26.803ZM1.28201 21C0.641013 21 0.00299072 21.59 0.00299072 22.18V37.72C0.00299072 38.507 0.641013 39 1.28201 39H15.718C16.359 39 17 38.31 17 37.72V22.18C17 21.493 16.359 21 15.718 21H1.28201Z" fill="#231F20"/>
<path fill-rule="evenodd" clip-rule="evenodd" d="M31.937 7.205C32.578 7.205 33.039 7.76 33.039 8.408C33.13 9.24 32.578 9.701 31.937 9.701H27.066C26.422 9.701 25.964 9.147 25.964 8.408C25.964 7.76 26.515 7.205 27.066 7.205H31.937ZM22.289 0C21.554 0 21.003 0.553999 21.003 1.293V15.798C21.003 16.537 21.554 17 22.289 17H36.714C37.449 17 38 16.446 38 15.798V1.293C38 0.553999 37.449 0 36.714 0H22.289Z" fill="#231F20"/>
<path fill-rule="evenodd" clip-rule="evenodd" d="M31.937 26.0879C32.578 26.0879 33.039 26.7709 33.039 27.4569C33.13 28.2399 32.578 28.7299 31.937 28.7299H27.066C26.422 28.7299 25.964 28.0439 25.964 27.4569C25.964 26.7709 26.515 26.0879 27.066 26.0879H31.937ZM31.937 31.2729C32.578 31.2729 33.039 31.8599 33.039 32.4459C33.13 33.3249 32.578 33.8149 31.937 33.8149H27.066C26.422 33.8149 25.964 33.2289 25.964 32.4459C25.964 31.7599 26.515 31.2729 27.066 31.2729H31.937ZM22.289 21.0029C21.554 21.0029 21.003 21.5899 21.003 22.1769V37.7269C21.003 38.5089 21.554 38.9999 22.289 38.9999H36.714C37.449 38.9999 38 38.3139 38 37.7269V22.2729C38 21.5899 37.449 21.0029 36.714 21.0029H22.289Z" fill="#231F20"/>
</svg>
