<svg width="23" height="39" viewBox="0 0 23 39" fill="none" xmlns="http://www.w3.org/2000/svg">
<path fill-rule="evenodd" clip-rule="evenodd" d="M3.81799 0.00292969C1.76099 0.00292969 0 1.77695 0 3.94495C0 5.62195 0.979006 7.09894 2.54401 7.68994V13.9999H20.552V7.68994H20.456C21.922 7.19894 23 5.71895 23 3.94495C23 1.87695 21.335 0.19993 19.182 0.00292969H3.81799Z" fill="#231F20"/>
<path fill-rule="evenodd" clip-rule="evenodd" d="M2.5 16V18.544H9.054C9.74 18.544 10.227 19.231 10.227 19.914C10.227 20.7 9.64 21.287 9.054 21.287H2.5V23.831H9.054C9.74 23.831 10.227 24.418 10.227 25.102C10.227 25.788 9.64 26.375 9.054 26.375H2.5V29.016H9.054C9.74 29.016 10.227 29.603 10.227 30.29C10.131 30.681 9.64 31.268 8.858 31.268H2.696C3.282 35.965 7.194 39 11.5 39C16.39 39 20.497 34.986 20.497 30.094V16H2.5Z" fill="#231F20"/>
</svg>
