<svg width="157" height="60" viewBox="0 0 157 60" fill="none" xmlns="http://www.w3.org/2000/svg">
<rect width="157" height="60" rx="6" fill="url(#paint0_linear)"/>
<path d="M57.8711 37H59.8486V24.3965H57.8711V37ZM64.6123 28.3604H62.8105V37H64.6123V32.3242C64.6123 31.5332 64.8145 30.9092 65.2188 30.4697C65.623 30.0303 66.1768 29.8018 66.8623 29.8018C67.4424 29.8018 67.9346 30.0127 68.3301 30.417C68.7256 30.8301 68.9277 31.3486 68.9277 31.9727V37.0088H70.7295V31.9727C70.7295 30.8125 70.4043 29.8984 69.7539 29.2129C69.1035 28.5273 68.2598 28.1846 67.2139 28.1846C66.915 28.1846 66.625 28.2197 66.3262 28.2988C66.0273 28.3779 65.79 28.4658 65.5967 28.5625C65.4033 28.6592 65.2275 28.7646 65.0518 28.8877C64.8848 29.0107 64.7705 29.0986 64.7178 29.1514L64.6035 29.2656L64.6123 28.3604ZM77.4795 37L80.9951 28.3604H79.1055L76.583 34.6621L74.0605 28.3604H72.1709L75.6865 37H77.4795ZM84.3174 28.3604H82.5156V37H84.3174V28.3604ZM84.502 25.6621C84.502 25.3545 84.3965 25.0996 84.1943 24.8975C83.9834 24.6865 83.7285 24.5898 83.4209 24.5898C83.1045 24.5898 82.8496 24.6865 82.6475 24.8975C82.4365 25.0996 82.3398 25.3545 82.3398 25.6621C82.3398 25.9785 82.4365 26.2334 82.6475 26.4355C82.8496 26.6465 83.1045 26.7432 83.4209 26.7432C83.7285 26.7432 83.9834 26.6465 84.1943 26.4355C84.3965 26.2334 84.502 25.9785 84.502 25.6621ZM88.0088 27.2793C88.0088 28 87.71 28.3604 87.1123 28.3604H86.207V29.9775H87.833V34.4775C87.8242 36.2793 88.6592 37.1758 90.3379 37.1758C90.8301 37.1758 91.252 37.123 91.6035 37V35.3828L91.4717 35.418C91.3926 35.4531 91.2783 35.4883 91.1289 35.5146C90.9795 35.5498 90.8389 35.5586 90.6982 35.5586C90.3906 35.5586 90.1357 35.4619 89.9336 35.251C89.7227 35.0488 89.626 34.7852 89.626 34.46V29.9775H91.4277V28.3604H89.626V25.4775H88.0088V27.2793ZM101.034 33.3086L101.131 32.4121C101.131 31.1992 100.727 30.1973 99.918 29.3887C99.1094 28.5801 98.1074 28.1758 96.8945 28.1758C95.6816 28.1758 94.6445 28.6152 93.7832 29.4766C92.9219 30.3379 92.4824 31.375 92.4824 32.5879C92.4824 33.8535 92.9307 34.9346 93.8184 35.8311C94.7061 36.7275 95.7607 37.1758 96.9824 37.1758C97.4395 37.1758 97.8877 37.1143 98.3184 36.9824C98.749 36.8506 99.1006 36.71 99.3643 36.5518C99.6367 36.3936 99.8916 36.2178 100.129 36.0156C100.375 35.8135 100.533 35.6729 100.604 35.585C100.674 35.4971 100.727 35.4355 100.762 35.3828L99.5928 34.2139L99.3203 34.5479C99.1445 34.7676 98.8369 34.9873 98.3975 35.2158C97.958 35.4443 97.4922 35.5586 96.9824 35.5586C96.2881 35.5586 95.6904 35.3389 95.1807 34.8906C94.6709 34.4512 94.3721 33.9238 94.2754 33.3086H101.034ZM96.8857 29.7139C97.5537 29.7139 98.0986 29.9072 98.5381 30.2939C98.9775 30.6807 99.25 31.1729 99.3555 31.7793H94.3545C94.5127 31.1729 94.8115 30.6807 95.251 30.2939C95.6904 29.9072 96.2354 29.7139 96.8857 29.7139Z" fill="white"/>
<defs>
<linearGradient id="paint0_linear" x1="0" y1="0" x2="161.921" y2="19.8444" gradientUnits="userSpaceOnUse">
<stop stop-color="#707C97"/>
<stop offset="1" stop-color="#30475E"/>
</linearGradient>
</defs>
</svg>
