<svg width="240" height="60" viewBox="0 0 240 60" fill="none" xmlns="http://www.w3.org/2000/svg">
<rect width="240" height="60" rx="6" fill="url(#paint0_linear)"/>
<path d="M59.3884 23.1558C57.3413 23.1558 55.6274 23.8413 54.2468 25.1934C52.8567 26.5549 52.1711 28.2117 52.1711 30.1731C52.1711 32.1345 52.8567 33.8008 54.2468 35.1528C55.6274 36.5144 57.3413 37.1904 59.3884 37.1904C60.074 37.1904 60.7405 37.0952 61.3879 36.9048C62.0354 36.7144 62.5686 36.4954 62.9685 36.2573C63.3684 36.0098 63.7493 35.7336 64.1111 35.429C64.4729 35.1147 64.7014 34.8958 64.8062 34.772C64.9109 34.6482 64.9871 34.553 65.0347 34.4768L63.6636 33.1057L63.5112 33.3438C63.397 33.4866 63.2161 33.658 62.9685 33.8674C62.7209 34.0769 62.4448 34.2864 62.1211 34.4958C61.7974 34.7053 61.3975 34.8767 60.9119 35.0291C60.4263 35.1814 59.9121 35.2576 59.3789 35.2576C57.9602 35.2576 56.7605 34.7625 55.7798 33.7817C54.7991 32.7915 54.304 31.5918 54.304 30.1826C54.304 28.7639 54.7991 27.5642 55.7798 26.5835C56.77 25.6028 57.9697 25.1172 59.3789 25.1172C59.9121 25.1172 60.4263 25.1838 60.9023 25.3362C61.3784 25.4885 61.7688 25.6504 62.064 25.8218C62.3687 25.9932 62.6448 26.2026 62.9019 26.4407C63.1685 26.6882 63.3303 26.8501 63.4065 26.9453C63.4827 27.0405 63.5303 27.1072 63.5684 27.1548L64.9299 25.7837L64.7205 25.5171C64.5776 25.3362 64.3491 25.1172 64.0349 24.8601C63.7302 24.6125 63.3684 24.3555 62.9495 24.0889C62.5305 23.8318 62.0068 23.6128 61.3689 23.4319C60.7405 23.251 60.074 23.1558 59.3884 23.1558ZM72.3472 29.2971V27.4404H71.8616C71.5378 27.4404 71.2141 27.488 70.8904 27.5737C70.5667 27.6594 70.3096 27.7546 70.1001 27.8594C69.8906 27.9641 69.7002 28.0784 69.5098 28.2117C69.3289 28.345 69.2051 28.4307 69.1479 28.4878L69.0242 28.6116V27.6404H67.0723V37H69.0242V31.9346C69.0242 31.0776 69.2527 30.4016 69.6907 29.9255C70.1287 29.4495 70.719 29.2019 71.4617 29.2019C71.7854 29.2019 72.0806 29.24 72.3472 29.2971ZM82.5732 33.001L82.678 32.0298C82.678 30.7158 82.24 29.6304 81.364 28.7544C80.488 27.8784 79.4026 27.4404 78.0886 27.4404C76.7747 27.4404 75.6511 27.9165 74.718 28.8496C73.7849 29.7827 73.3088 30.9062 73.3088 32.2202C73.3088 33.5913 73.7944 34.7625 74.7561 35.7336C75.7178 36.7048 76.8604 37.1904 78.1838 37.1904C78.679 37.1904 79.1646 37.1238 79.6311 36.981C80.0977 36.8381 80.4785 36.6858 80.7642 36.5144C81.0593 36.343 81.3354 36.1526 81.5925 35.9336C81.8591 35.7146 82.0305 35.5623 82.1067 35.467C82.1829 35.3718 82.24 35.3052 82.2781 35.248L81.0117 33.9817L80.7166 34.3435C80.5261 34.5815 80.1929 34.8196 79.7168 35.0671C79.2407 35.3147 78.7361 35.4385 78.1838 35.4385C77.4316 35.4385 76.7842 35.2004 76.2319 34.7148C75.6797 34.2388 75.356 33.6675 75.2512 33.001H82.5732ZM78.0791 29.1067C78.8027 29.1067 79.3931 29.3162 79.8691 29.7351C80.3452 30.1541 80.6404 30.6873 80.7546 31.3442H75.3369C75.5083 30.6873 75.832 30.1541 76.3081 29.7351C76.7842 29.3162 77.3745 29.1067 78.0791 29.1067ZM92.3232 37V30.9539C92.3232 29.9636 91.9519 29.1353 91.2283 28.4592C90.4951 27.7832 89.562 27.4404 88.4194 27.4404C87.9624 27.4404 87.5149 27.5071 87.0864 27.6309C86.658 27.7546 86.3152 27.8975 86.0581 28.0498C85.7915 28.2117 85.5439 28.3926 85.3154 28.5925C85.0869 28.7925 84.9346 28.9353 84.8679 29.0115C84.8013 29.0876 84.7537 29.1543 84.7156 29.2019L85.9819 30.4683L86.239 30.135C86.3914 29.9255 86.6675 29.7256 87.0674 29.5161C87.4673 29.3066 87.9243 29.2019 88.4194 29.2019C88.9907 29.2019 89.4573 29.3733 89.8191 29.7065C90.1809 30.0493 90.3713 30.4587 90.3713 30.9539L86.9531 31.5442C86.1057 31.687 85.4392 32.0203 84.9536 32.5344C84.468 33.0581 84.23 33.7056 84.23 34.4768C84.23 35.1814 84.5442 35.8193 85.1726 36.3716C85.801 36.9238 86.5913 37.2 87.5435 37.2C87.8672 37.2 88.1814 37.1523 88.5051 37.0762C88.8193 36.9905 89.0859 36.8953 89.2954 36.7905C89.5049 36.6858 89.6953 36.5715 89.8762 36.4382C90.0571 36.3049 90.1809 36.2192 90.238 36.1621C90.2952 36.105 90.3428 36.0574 90.3713 36.0383V37.0095L92.3232 37ZM87.8386 35.448C87.3245 35.448 86.9246 35.3242 86.6199 35.0957C86.3152 34.8577 86.1724 34.5815 86.1724 34.2673C86.1724 33.9341 86.2771 33.658 86.4961 33.439C86.7056 33.2104 86.9912 33.0676 87.3435 33.0105L90.3713 32.5249V32.7153C90.3713 33.5913 90.1428 34.2578 89.6953 34.7339C89.2478 35.21 88.6289 35.448 87.8386 35.448ZM96.2271 26.4692C96.2271 27.25 95.9033 27.6404 95.2559 27.6404H94.2751V29.3923H96.0366V34.2673C96.0271 36.2192 96.9316 37.1904 98.7502 37.1904C99.2834 37.1904 99.7405 37.1333 100.121 37V35.248L99.9785 35.2861C99.8928 35.3242 99.769 35.3623 99.6072 35.3909C99.4453 35.429 99.293 35.4385 99.1406 35.4385C98.8074 35.4385 98.5312 35.3337 98.3123 35.1052C98.0837 34.8862 97.979 34.6006 97.979 34.2483V29.3923H99.9309V27.6404H97.979V24.5173H96.2271V26.4692ZM110.338 33.001L110.443 32.0298C110.443 30.7158 110.005 29.6304 109.129 28.7544C108.253 27.8784 107.167 27.4404 105.853 27.4404C104.539 27.4404 103.416 27.9165 102.483 28.8496C101.55 29.7827 101.073 30.9062 101.073 32.2202C101.073 33.5913 101.559 34.7625 102.521 35.7336C103.482 36.7048 104.625 37.1904 105.948 37.1904C106.444 37.1904 106.929 37.1238 107.396 36.981C107.862 36.8381 108.243 36.6858 108.529 36.5144C108.824 36.343 109.1 36.1526 109.357 35.9336C109.624 35.7146 109.795 35.5623 109.871 35.467C109.948 35.3718 110.005 35.3052 110.043 35.248L108.776 33.9817L108.481 34.3435C108.291 34.5815 107.958 34.8196 107.481 35.0671C107.005 35.3147 106.501 35.4385 105.948 35.4385C105.196 35.4385 104.549 35.2004 103.997 34.7148C103.444 34.2388 103.121 33.6675 103.016 33.001H110.338ZM105.844 29.1067C106.567 29.1067 107.158 29.3162 107.634 29.7351C108.11 30.1541 108.405 30.6873 108.519 31.3442H103.102C103.273 30.6873 103.597 30.1541 104.073 29.7351C104.549 29.3162 105.139 29.1067 105.844 29.1067ZM126.62 23.3462V33.2009L119.012 23.3462H117.165V37H119.307V27.1548L126.915 37H128.762V23.3462H126.62ZM140.654 33.001L140.759 32.0298C140.759 30.7158 140.321 29.6304 139.445 28.7544C138.569 27.8784 137.484 27.4404 136.17 27.4404C134.856 27.4404 133.732 27.9165 132.799 28.8496C131.866 29.7827 131.39 30.9062 131.39 32.2202C131.39 33.5913 131.875 34.7625 132.837 35.7336C133.799 36.7048 134.941 37.1904 136.265 37.1904C136.76 37.1904 137.246 37.1238 137.712 36.981C138.179 36.8381 138.56 36.6858 138.845 36.5144C139.14 36.343 139.417 36.1526 139.674 35.9336C139.94 35.7146 140.112 35.5623 140.188 35.467C140.264 35.3718 140.321 35.3052 140.359 35.248L139.093 33.9817L138.798 34.3435C138.607 34.5815 138.274 34.8196 137.798 35.0671C137.322 35.3147 136.817 35.4385 136.265 35.4385C135.513 35.4385 134.865 35.2004 134.313 34.7148C133.761 34.2388 133.437 33.6675 133.332 33.001H140.654ZM136.16 29.1067C136.884 29.1067 137.474 29.3162 137.95 29.7351C138.426 30.1541 138.721 30.6873 138.836 31.3442H133.418C133.589 30.6873 133.913 30.1541 134.389 29.7351C134.865 29.3162 135.456 29.1067 136.16 29.1067ZM148.062 27.6404L145.92 34.0769L143.768 27.6404H141.721L144.939 37H146.796L148.938 30.7634L151.08 37H152.937L156.155 27.6404H154.108L151.956 34.0769L149.814 27.6404H148.062ZM169.8 29.7827V31.7346H172.437V33.877L172.294 34.0198C172.199 34.115 172.056 34.2292 171.847 34.3625C171.637 34.4958 171.399 34.6387 171.123 34.772C170.856 34.9053 170.504 35.0195 170.076 35.1147C169.647 35.21 169.2 35.248 168.724 35.248C167.305 35.248 166.105 34.7625 165.125 33.7722C164.144 32.7915 163.649 31.5918 163.649 30.1731C163.649 28.7639 164.144 27.5642 165.125 26.5835C166.115 25.6028 167.314 25.1077 168.724 25.1077C169.257 25.1077 169.771 25.1838 170.247 25.3362C170.723 25.4885 171.114 25.6504 171.409 25.8218C171.713 25.9932 171.99 26.2026 172.247 26.4407C172.513 26.6882 172.675 26.8501 172.751 26.9453C172.827 27.0405 172.875 27.1072 172.913 27.1548L174.275 25.7837L174.065 25.5171C173.922 25.3362 173.694 25.1172 173.38 24.8601C173.075 24.6125 172.713 24.3555 172.294 24.0889C171.875 23.8318 171.352 23.6128 170.714 23.4319C170.085 23.251 169.419 23.1558 168.724 23.1558C166.686 23.1558 164.972 23.8413 163.582 25.1934C162.201 26.5549 161.506 28.2117 161.506 30.1731C161.506 32.1345 162.201 33.8008 163.582 35.1528C164.972 36.5144 166.686 37.1904 168.724 37.1904C169.447 37.1904 170.152 37.1047 170.828 36.9238C171.504 36.7429 172.047 36.543 172.466 36.324C172.885 36.105 173.275 35.8479 173.637 35.5527C173.999 35.2576 174.237 35.0481 174.341 34.9338C174.446 34.8196 174.522 34.7244 174.57 34.6577V29.7827H169.8ZM182.663 29.2971V27.4404H182.177C181.854 27.4404 181.53 27.488 181.206 27.5737C180.883 27.6594 180.625 27.7546 180.416 27.8594C180.207 27.9641 180.016 28.0784 179.826 28.2117C179.645 28.345 179.521 28.4307 179.464 28.4878L179.34 28.6116V27.6404H177.388V37H179.34V31.9346C179.34 31.0776 179.569 30.4016 180.007 29.9255C180.445 29.4495 181.035 29.2019 181.778 29.2019C182.101 29.2019 182.396 29.24 182.663 29.2971ZM191.432 32.325C191.432 33.2009 191.137 33.9341 190.566 34.5339C189.985 35.1433 189.3 35.4385 188.509 35.4385C187.709 35.4385 187.024 35.1433 186.443 34.5339C185.862 33.9341 185.577 33.2009 185.577 32.325C185.577 31.449 185.862 30.7158 186.443 30.1064C187.024 29.5066 187.709 29.2019 188.509 29.2019C189.3 29.2019 189.985 29.5066 190.566 30.1064C191.137 30.7158 191.432 31.449 191.432 32.325ZM183.634 32.325C183.634 33.6389 184.11 34.772 185.082 35.7432C186.053 36.7144 187.195 37.2 188.509 37.2C189.823 37.2 190.956 36.7144 191.927 35.7432C192.899 34.772 193.384 33.6389 193.384 32.325C193.384 31.011 192.899 29.8684 191.927 28.8972C190.956 27.926 189.823 27.4404 188.509 27.4404C187.195 27.4404 186.053 27.926 185.082 28.8972C184.11 29.8684 183.634 31.011 183.634 32.325ZM202.154 37H204.105V27.6404H202.154V32.7058C202.154 33.5723 201.925 34.2483 201.487 34.7244C201.049 35.2004 200.459 35.4385 199.716 35.4385C199.078 35.4385 198.545 35.2195 198.116 34.772C197.688 34.334 197.479 33.7722 197.479 33.0962V27.6404H195.527V33.0962C195.527 34.353 195.869 35.3433 196.574 36.0859C197.279 36.8286 198.193 37.1904 199.326 37.1904C199.649 37.1904 199.973 37.1523 200.297 37.0667C200.611 36.9905 200.878 36.8953 201.087 36.7905C201.297 36.6858 201.487 36.5715 201.668 36.4382C201.849 36.3049 201.973 36.2097 202.03 36.1526L202.154 36.0288V37ZM211.904 37.1904C213.141 37.1904 214.208 36.7239 215.122 35.7717C216.036 34.8196 216.493 33.6675 216.493 32.3154C216.493 30.9634 216.036 29.8208 215.122 28.8687C214.208 27.9165 213.141 27.4404 211.904 27.4404C211.351 27.4404 210.818 27.5642 210.294 27.7927C209.761 28.0308 209.418 28.2212 209.257 28.364C209.095 28.5164 208.971 28.6306 208.885 28.7163V27.6404H206.933V41.0942H208.885V35.9241L209.019 36.0669C209.095 36.1431 209.228 36.2478 209.409 36.3811C209.59 36.5144 209.799 36.6382 210.037 36.762C210.266 36.8857 210.552 36.9905 210.885 37.0667C211.208 37.1523 211.551 37.1904 211.904 37.1904ZM211.713 29.2019C212.456 29.2019 213.113 29.5066 213.684 30.116C214.255 30.7253 214.541 31.468 214.541 32.325C214.541 33.1819 214.255 33.915 213.684 34.5244C213.113 35.1338 212.456 35.4385 211.713 35.4385C210.97 35.4385 210.313 35.1338 209.742 34.5244C209.171 33.915 208.885 33.1819 208.885 32.325C208.885 31.468 209.171 30.7253 209.742 30.116C210.313 29.5066 210.97 29.2019 211.713 29.2019Z" fill="white"/>
<path fill-rule="evenodd" clip-rule="evenodd" d="M39 29H33V23C33 22.447 32.552 22 32 22C31.448 22 31 22.447 31 23V29H25C24.448 29 24 29.447 24 30C24 30.553 24.448 31 25 31H31V37C31 37.553 31.448 38 32 38C32.552 38 33 37.553 33 37V31H39C39.552 31 40 30.553 40 30C40 29.447 39.552 29 39 29Z" fill="#231F20"/>
<mask id="mask0" mask-type="alpha" maskUnits="userSpaceOnUse" x="24" y="22" width="16" height="16">
<path fill-rule="evenodd" clip-rule="evenodd" d="M39 29H33V23C33 22.447 32.552 22 32 22C31.448 22 31 22.447 31 23V29H25C24.448 29 24 29.447 24 30C24 30.553 24.448 31 25 31H31V37C31 37.553 31.448 38 32 38C32.552 38 33 37.553 33 37V31H39C39.552 31 40 30.553 40 30C40 29.447 39.552 29 39 29Z" fill="white"/>
</mask>
<g mask="url(#mask0)">
<rect x="20" y="18" width="24" height="24" fill="white"/>
</g>
<defs>
<linearGradient id="paint0_linear" x1="0" y1="0" x2="242.722" y2="45.4731" gradientUnits="userSpaceOnUse">
<stop stop-color="#707C97"/>
<stop offset="1" stop-color="#30475E"/>
</linearGradient>
</defs>
</svg>
