<svg width="850" height="60" viewBox="0 0 850 60" fill="none" xmlns="http://www.w3.org/2000/svg">
<path d="M0 6C0 2.68629 2.68629 0 6 0H844C847.314 0 850 2.68629 850 6V60H0V6Z" fill="#FAFBFF"/>
<path d="M360.77 37H362.747V32.1396H365.63L368.328 37H370.49L367.607 31.9639L367.862 31.8496C368.038 31.7793 368.249 31.6475 368.495 31.4541C368.741 31.2607 368.987 31.041 369.233 30.7773C369.479 30.5225 369.69 30.1709 369.866 29.7227C370.042 29.2744 370.13 28.791 370.13 28.2725C370.13 27.1826 369.743 26.2598 368.979 25.5127C368.205 24.7744 367.238 24.3965 366.078 24.3965H360.77V37ZM368.144 28.2725C368.144 28.8613 367.941 29.3535 367.546 29.749C367.15 30.1445 366.658 30.3379 366.078 30.3379H362.747V26.1982H366.078C366.658 26.1982 367.15 26.4004 367.546 26.7959C367.941 27.1914 368.144 27.6836 368.144 28.2725ZM380.747 33.3086L380.844 32.4121C380.844 31.1992 380.439 30.1973 379.631 29.3887C378.822 28.5801 377.82 28.1758 376.607 28.1758C375.395 28.1758 374.357 28.6152 373.496 29.4766C372.635 30.3379 372.195 31.375 372.195 32.5879C372.195 33.8535 372.644 34.9346 373.531 35.8311C374.419 36.7275 375.474 37.1758 376.695 37.1758C377.152 37.1758 377.601 37.1143 378.031 36.9824C378.462 36.8506 378.813 36.71 379.077 36.5518C379.35 36.3936 379.604 36.2178 379.842 36.0156C380.088 35.8135 380.246 35.6729 380.316 35.585C380.387 35.4971 380.439 35.4355 380.475 35.3828L379.306 34.2139L379.033 34.5479C378.857 34.7676 378.55 34.9873 378.11 35.2158C377.671 35.4443 377.205 35.5586 376.695 35.5586C376.001 35.5586 375.403 35.3389 374.894 34.8906C374.384 34.4512 374.085 33.9238 373.988 33.3086H380.747ZM376.599 29.7139C377.267 29.7139 377.812 29.9072 378.251 30.2939C378.69 30.6807 378.963 31.1729 379.068 31.7793H374.067C374.226 31.1729 374.524 30.6807 374.964 30.2939C375.403 29.9072 375.948 29.7139 376.599 29.7139ZM382.276 32.6846C382.276 33.8975 382.716 34.9434 383.612 35.8398C384.509 36.7363 385.563 37.1846 386.776 37.1846C387.189 37.1846 387.603 37.1143 388.016 36.9824C388.42 36.8506 388.754 36.71 389.018 36.5518C389.272 36.3936 389.519 36.2178 389.756 36.0156C389.984 35.8135 390.143 35.6729 390.213 35.585C390.283 35.4971 390.336 35.4355 390.371 35.3916L389.202 34.2227L388.93 34.5566C388.754 34.7676 388.464 34.9961 388.06 35.2246C387.655 35.4531 387.233 35.5674 386.776 35.5674C386.038 35.5674 385.405 35.2861 384.869 34.7324C384.333 34.1699 384.069 33.4932 384.069 32.6846C384.069 31.876 384.333 31.1992 384.869 30.6455C385.405 30.083 386.038 29.8105 386.776 29.8105C387.233 29.8105 387.655 29.9248 388.06 30.1621C388.464 30.3906 388.719 30.5752 388.842 30.7158C388.965 30.8564 389.053 30.9707 389.114 31.0674L390.283 29.8984L389.905 29.4854C389.65 29.1953 389.237 28.9053 388.657 28.6152C388.077 28.3252 387.444 28.1846 386.776 28.1846C385.563 28.1846 384.509 28.6328 383.612 29.5293C382.716 30.4258 382.276 31.4717 382.276 32.6846ZM400.171 33.3086L400.268 32.4121C400.268 31.1992 399.863 30.1973 399.055 29.3887C398.246 28.5801 397.244 28.1758 396.031 28.1758C394.818 28.1758 393.781 28.6152 392.92 29.4766C392.059 30.3379 391.619 31.375 391.619 32.5879C391.619 33.8535 392.067 34.9346 392.955 35.8311C393.843 36.7275 394.897 37.1758 396.119 37.1758C396.576 37.1758 397.024 37.1143 397.455 36.9824C397.886 36.8506 398.237 36.71 398.501 36.5518C398.773 36.3936 399.028 36.2178 399.266 36.0156C399.512 35.8135 399.67 35.6729 399.74 35.585C399.811 35.4971 399.863 35.4355 399.898 35.3828L398.729 34.2139L398.457 34.5479C398.281 34.7676 397.974 34.9873 397.534 35.2158C397.095 35.4443 396.629 35.5586 396.119 35.5586C395.425 35.5586 394.827 35.3389 394.317 34.8906C393.808 34.4512 393.509 33.9238 393.412 33.3086H400.171ZM396.022 29.7139C396.69 29.7139 397.235 29.9072 397.675 30.2939C398.114 30.6807 398.387 31.1729 398.492 31.7793H393.491C393.649 31.1729 393.948 30.6807 394.388 30.2939C394.827 29.9072 395.372 29.7139 396.022 29.7139ZM404.038 28.3604H402.236V37H404.038V32.3242C404.038 31.5332 404.24 30.9092 404.645 30.4697C405.049 30.0303 405.603 29.8018 406.288 29.8018C406.868 29.8018 407.36 30.0127 407.756 30.417C408.151 30.8301 408.354 31.3486 408.354 31.9727V37.0088H410.155V31.9727C410.155 30.8125 409.83 29.8984 409.18 29.2129C408.529 28.5273 407.686 28.1846 406.64 28.1846C406.341 28.1846 406.051 28.2197 405.752 28.2988C405.453 28.3779 405.216 28.4658 405.022 28.5625C404.829 28.6592 404.653 28.7646 404.478 28.8877C404.311 29.0107 404.196 29.0986 404.144 29.1514L404.029 29.2656L404.038 28.3604ZM413.759 27.2793C413.759 28 413.46 28.3604 412.862 28.3604H411.957V29.9775H413.583V34.4775C413.574 36.2793 414.409 37.1758 416.088 37.1758C416.58 37.1758 417.002 37.123 417.354 37V35.3828L417.222 35.418C417.143 35.4531 417.028 35.4883 416.879 35.5146C416.729 35.5498 416.589 35.5586 416.448 35.5586C416.141 35.5586 415.886 35.4619 415.684 35.251C415.473 35.0488 415.376 34.7852 415.376 34.46V29.9775H417.178V28.3604H415.376V25.4775H413.759V27.2793ZM428.876 35.3828C427.979 35.3828 427.197 35.0488 426.538 34.3809C425.879 33.7129 425.554 32.9043 425.554 31.9639V24.3965H423.567V31.9639C423.567 33.4053 424.077 34.627 425.114 35.6465C426.151 36.666 427.399 37.1758 428.876 37.1758C430.353 37.1758 431.601 36.6748 432.638 35.6553C433.675 34.6357 434.193 33.4053 434.193 31.9639V24.3965H432.207V31.9639C432.207 32.8955 431.873 33.7041 431.214 34.3721C430.555 35.0488 429.772 35.3828 428.876 35.3828ZM441.559 37.1758C442.701 37.1758 443.686 36.7451 444.529 35.8662C445.373 34.9873 445.795 33.9238 445.795 32.6758C445.795 31.4277 445.373 30.373 444.529 29.4941C443.686 28.6152 442.701 28.1758 441.559 28.1758C441.049 28.1758 440.557 28.29 440.073 28.501C439.581 28.7207 439.265 28.8965 439.115 29.0283C438.966 29.1689 438.852 29.2744 438.772 29.3535V28.3604H436.971V40.7793H438.772V36.0068L438.896 36.1387C438.966 36.209 439.089 36.3057 439.256 36.4287C439.423 36.5518 439.616 36.666 439.836 36.7803C440.047 36.8945 440.311 36.9912 440.618 37.0615C440.917 37.1406 441.233 37.1758 441.559 37.1758ZM441.383 29.8018C442.068 29.8018 442.675 30.083 443.202 30.6455C443.729 31.208 443.993 31.8936 443.993 32.6846C443.993 33.4756 443.729 34.1523 443.202 34.7148C442.675 35.2773 442.068 35.5586 441.383 35.5586C440.697 35.5586 440.091 35.2773 439.563 34.7148C439.036 34.1523 438.772 33.4756 438.772 32.6846C438.772 31.8936 439.036 31.208 439.563 30.6455C440.091 30.083 440.697 29.8018 441.383 29.8018ZM451.455 28.1758C450.312 28.1758 449.319 28.6152 448.484 29.4941C447.641 30.373 447.228 31.4277 447.228 32.6758C447.228 33.9238 447.641 34.9873 448.484 35.8662C449.319 36.7451 450.312 37.1758 451.455 37.1758C451.956 37.1758 452.448 37.0703 452.932 36.8594C453.424 36.6484 453.74 36.4727 453.89 36.3408C454.039 36.2002 454.153 36.0947 454.232 36.0156V37.0088H456.034V24.4053H454.232V29.3623L454.109 29.2305C454.039 29.1602 453.925 29.0635 453.749 28.9404C453.582 28.8174 453.389 28.7031 453.178 28.5889C452.967 28.4746 452.703 28.3779 452.396 28.2988C452.088 28.2197 451.771 28.1758 451.455 28.1758ZM451.631 35.5674C450.945 35.5674 450.339 35.2861 449.812 34.7236C449.284 34.1611 449.021 33.4756 449.021 32.6846C449.021 31.8936 449.284 31.2168 449.812 30.6543C450.339 30.0918 450.945 29.8105 451.631 29.8105C452.316 29.8105 452.923 30.0918 453.45 30.6543C453.978 31.2168 454.241 31.8936 454.241 32.6846C454.241 33.4756 453.978 34.1611 453.45 34.7236C452.923 35.2861 452.316 35.5674 451.631 35.5674ZM465.685 37V31.4189C465.685 30.5049 465.342 29.7402 464.674 29.1162C463.997 28.4922 463.136 28.1758 462.081 28.1758C461.659 28.1758 461.246 28.2373 460.851 28.3516C460.455 28.4658 460.139 28.5977 459.901 28.7383C459.655 28.8877 459.427 29.0547 459.216 29.2393C459.005 29.4238 458.864 29.5557 458.803 29.626C458.741 29.6963 458.697 29.7578 458.662 29.8018L459.831 30.9707L460.068 30.6631C460.209 30.4697 460.464 30.2852 460.833 30.0918C461.202 29.8984 461.624 29.8018 462.081 29.8018C462.608 29.8018 463.039 29.96 463.373 30.2676C463.707 30.584 463.883 30.9619 463.883 31.4189L460.728 31.9639C459.945 32.0957 459.33 32.4033 458.882 32.8779C458.434 33.3613 458.214 33.959 458.214 34.6709C458.214 35.3213 458.504 35.9102 459.084 36.4199C459.664 36.9297 460.394 37.1846 461.272 37.1846C461.571 37.1846 461.861 37.1406 462.16 37.0703C462.45 36.9912 462.696 36.9033 462.89 36.8066C463.083 36.71 463.259 36.6045 463.426 36.4814C463.593 36.3584 463.707 36.2793 463.76 36.2266C463.812 36.1738 463.856 36.1299 463.883 36.1123V37.0088L465.685 37ZM461.545 35.5674C461.07 35.5674 460.701 35.4531 460.42 35.2422C460.139 35.0225 460.007 34.7676 460.007 34.4775C460.007 34.1699 460.104 33.915 460.306 33.7129C460.499 33.502 460.763 33.3701 461.088 33.3174L463.883 32.8691V33.0449C463.883 33.8535 463.672 34.4688 463.259 34.9082C462.846 35.3477 462.274 35.5674 461.545 35.5674ZM469.288 27.2793C469.288 28 468.989 28.3604 468.392 28.3604H467.486V29.9775H469.112V34.4775C469.104 36.2793 469.938 37.1758 471.617 37.1758C472.109 37.1758 472.531 37.123 472.883 37V35.3828L472.751 35.418C472.672 35.4531 472.558 35.4883 472.408 35.5146C472.259 35.5498 472.118 35.5586 471.978 35.5586C471.67 35.5586 471.415 35.4619 471.213 35.251C471.002 35.0488 470.905 34.7852 470.905 34.46V29.9775H472.707V28.3604H470.905V25.4775H469.288V27.2793ZM482.313 33.3086L482.41 32.4121C482.41 31.1992 482.006 30.1973 481.197 29.3887C480.389 28.5801 479.387 28.1758 478.174 28.1758C476.961 28.1758 475.924 28.6152 475.062 29.4766C474.201 30.3379 473.762 31.375 473.762 32.5879C473.762 33.8535 474.21 34.9346 475.098 35.8311C475.985 36.7275 477.04 37.1758 478.262 37.1758C478.719 37.1758 479.167 37.1143 479.598 36.9824C480.028 36.8506 480.38 36.71 480.644 36.5518C480.916 36.3936 481.171 36.2178 481.408 36.0156C481.654 35.8135 481.812 35.6729 481.883 35.585C481.953 35.4971 482.006 35.4355 482.041 35.3828L480.872 34.2139L480.6 34.5479C480.424 34.7676 480.116 34.9873 479.677 35.2158C479.237 35.4443 478.771 35.5586 478.262 35.5586C477.567 35.5586 476.97 35.3389 476.46 34.8906C475.95 34.4512 475.651 33.9238 475.555 33.3086H482.313ZM478.165 29.7139C478.833 29.7139 479.378 29.9072 479.817 30.2939C480.257 30.6807 480.529 31.1729 480.635 31.7793H475.634C475.792 31.1729 476.091 30.6807 476.53 30.2939C476.97 29.9072 477.515 29.7139 478.165 29.7139ZM489.872 29.3535L489.758 29.2217C489.688 29.1514 489.573 29.0635 489.415 28.9404C489.257 28.8174 489.081 28.7031 488.879 28.5889C488.668 28.4746 488.404 28.3779 488.079 28.2988C487.754 28.2197 487.42 28.1758 487.077 28.1758C486.198 28.1758 485.469 28.4307 484.889 28.9404C484.309 29.4502 484.019 30.0391 484.019 30.6982C484.019 31.1816 484.124 31.5947 484.344 31.9375C484.555 32.2803 484.827 32.5352 485.161 32.6934C485.495 32.8516 485.847 33.001 486.225 33.1328C486.603 33.2646 486.954 33.3789 487.288 33.4668C487.613 33.5547 487.886 33.6865 488.105 33.8535C488.316 34.0205 488.431 34.2314 488.431 34.4775C488.431 34.8115 488.308 35.0752 488.07 35.2686C487.824 35.4619 487.464 35.5586 486.989 35.5586C486.585 35.5586 486.198 35.4619 485.82 35.2686C485.442 35.0752 485.196 34.9082 485.082 34.7852C484.968 34.6621 484.88 34.5654 484.827 34.4775L483.658 35.6465L483.79 35.8135C483.869 35.9189 484.001 36.0508 484.186 36.2002C484.37 36.3496 484.59 36.499 484.836 36.6396C485.082 36.7891 485.39 36.9121 485.776 37.0176C486.163 37.123 486.567 37.1758 486.989 37.1758C487.947 37.1758 488.729 36.9121 489.327 36.3848C489.925 35.8574 490.232 35.2246 490.232 34.4775C490.232 34.0029 490.118 33.5898 489.907 33.2471C489.688 32.9131 489.415 32.6582 489.081 32.4912C488.747 32.333 488.396 32.1836 488.018 32.0518C487.64 31.9199 487.288 31.8057 486.963 31.7178C486.629 31.6299 486.356 31.5068 486.146 31.3311C485.926 31.1641 485.82 30.9531 485.82 30.6982C485.82 30.4609 485.926 30.25 486.154 30.0742C486.383 29.8984 486.69 29.8018 487.077 29.8018C487.358 29.8018 487.648 29.8721 487.93 30.0039C488.211 30.1357 488.404 30.2412 488.492 30.3291C488.58 30.417 488.65 30.4785 488.694 30.5225L489.872 29.3535Z" fill="#0D1C2E"/>
</svg>
