<svg width="310" height="60" viewBox="0 0 310 60" fill="none" xmlns="http://www.w3.org/2000/svg">
<rect x="11" y="9" width="288" height="42" rx="6" fill="#DADADA"/>
<rect width="310" height="60" rx="6" fill="white"/>
<path d="M82.7432 33.3965C82.7432 33.959 82.5146 34.4336 82.0664 34.8115C81.6094 35.1982 80.9941 35.3828 80.2207 35.3828C79.7988 35.3828 79.3945 35.3389 79.0166 35.2334C78.6387 35.1279 78.3398 35.0137 78.1113 34.8906C77.8828 34.7676 77.6631 34.6182 77.4697 34.4512C77.2764 34.2842 77.1445 34.1699 77.0918 34.0996C77.0391 34.0293 76.9951 33.9766 76.9775 33.9414L75.7207 35.1982L75.8965 35.418C76.002 35.5498 76.1865 35.708 76.4326 35.9014C76.6787 36.0947 76.9688 36.2881 77.3027 36.4814C77.6367 36.6748 78.0586 36.833 78.5771 36.9736C79.0957 37.1143 79.6406 37.1846 80.2207 37.1846C81.627 37.1846 82.7256 36.833 83.5254 36.1299C84.3164 35.4268 84.7207 34.5127 84.7207 33.4053C84.7207 32.7725 84.5977 32.2275 84.3516 31.7705C84.1055 31.3135 83.7803 30.9619 83.3936 30.7158C83.0068 30.4697 82.5762 30.2588 82.1016 30.083C81.627 29.9072 81.1523 29.7666 80.6777 29.6436C80.2031 29.5205 79.7637 29.3887 79.377 29.2393C78.9902 29.0898 78.6738 28.8789 78.4277 28.6152C78.1816 28.3516 78.0586 28.0264 78.0586 27.6396C78.0586 27.209 78.252 26.8311 78.6475 26.5059C79.043 26.1895 79.5703 26.0225 80.2207 26.0225C80.5371 26.0225 80.8447 26.0664 81.1348 26.1367C81.4248 26.2158 81.6621 26.3037 81.8379 26.4004C82.0137 26.4971 82.1807 26.6025 82.3389 26.7256C82.4971 26.8486 82.5938 26.9365 82.6377 26.9893C82.6816 27.042 82.7168 27.0859 82.7432 27.1035L84 25.8379L83.8594 25.6621C83.7539 25.5566 83.5957 25.4248 83.3848 25.2666C83.1738 25.1084 82.9189 24.959 82.6377 24.8008C82.3564 24.6426 81.9961 24.5107 81.5654 24.3965C81.1348 24.2822 80.6865 24.2207 80.2207 24.2207C78.9463 24.2207 77.9355 24.5547 77.1973 25.2051C76.4502 25.8555 76.0811 26.6729 76.0811 27.6396C76.0811 28.2812 76.2041 28.8262 76.4502 29.2832C76.6963 29.7402 77.0127 30.083 77.3994 30.3291C77.7861 30.5752 78.2256 30.7861 78.7002 30.9619C79.1748 31.1377 79.6494 31.2871 80.124 31.4102C80.5986 31.5332 81.0293 31.665 81.416 31.8145C81.8027 31.9639 82.1279 32.166 82.374 32.4297C82.6201 32.6934 82.7432 33.0098 82.7432 33.3965ZM94.793 33.3086L94.8896 32.4121C94.8896 31.1992 94.4854 30.1973 93.6768 29.3887C92.8682 28.5801 91.8662 28.1758 90.6533 28.1758C89.4404 28.1758 88.4033 28.6152 87.542 29.4766C86.6807 30.3379 86.2412 31.375 86.2412 32.5879C86.2412 33.8535 86.6895 34.9346 87.5771 35.8311C88.4648 36.7275 89.5195 37.1758 90.7412 37.1758C91.1982 37.1758 91.6465 37.1143 92.0771 36.9824C92.5078 36.8506 92.8594 36.71 93.123 36.5518C93.3955 36.3936 93.6504 36.2178 93.8877 36.0156C94.1338 35.8135 94.292 35.6729 94.3623 35.585C94.4326 35.4971 94.4854 35.4355 94.5205 35.3828L93.3516 34.2139L93.0791 34.5479C92.9033 34.7676 92.5957 34.9873 92.1562 35.2158C91.7168 35.4443 91.251 35.5586 90.7412 35.5586C90.0469 35.5586 89.4492 35.3389 88.9395 34.8906C88.4297 34.4512 88.1309 33.9238 88.0342 33.3086H94.793ZM90.6445 29.7139C91.3125 29.7139 91.8574 29.9072 92.2969 30.2939C92.7363 30.6807 93.0088 31.1729 93.1143 31.7793H88.1133C88.2715 31.1729 88.5703 30.6807 89.0098 30.2939C89.4492 29.9072 89.9941 29.7139 90.6445 29.7139ZM103.793 37V31.4189C103.793 30.5049 103.45 29.7402 102.782 29.1162C102.105 28.4922 101.244 28.1758 100.189 28.1758C99.7676 28.1758 99.3545 28.2373 98.959 28.3516C98.5635 28.4658 98.2471 28.5977 98.0098 28.7383C97.7637 28.8877 97.5352 29.0547 97.3242 29.2393C97.1133 29.4238 96.9727 29.5557 96.9111 29.626C96.8496 29.6963 96.8057 29.7578 96.7705 29.8018L97.9395 30.9707L98.1768 30.6631C98.3174 30.4697 98.5723 30.2852 98.9414 30.0918C99.3105 29.8984 99.7324 29.8018 100.189 29.8018C100.717 29.8018 101.147 29.96 101.481 30.2676C101.815 30.584 101.991 30.9619 101.991 31.4189L98.8359 31.9639C98.0537 32.0957 97.4385 32.4033 96.9902 32.8779C96.542 33.3613 96.3223 33.959 96.3223 34.6709C96.3223 35.3213 96.6123 35.9102 97.1924 36.4199C97.7725 36.9297 98.502 37.1846 99.3809 37.1846C99.6797 37.1846 99.9697 37.1406 100.269 37.0703C100.559 36.9912 100.805 36.9033 100.998 36.8066C101.191 36.71 101.367 36.6045 101.534 36.4814C101.701 36.3584 101.815 36.2793 101.868 36.2266C101.921 36.1738 101.965 36.1299 101.991 36.1123V37.0088L103.793 37ZM99.6533 35.5674C99.1787 35.5674 98.8096 35.4531 98.5283 35.2422C98.2471 35.0225 98.1152 34.7676 98.1152 34.4775C98.1152 34.1699 98.2119 33.915 98.4141 33.7129C98.6074 33.502 98.8711 33.3701 99.1963 33.3174L101.991 32.8691V33.0449C101.991 33.8535 101.78 34.4688 101.367 34.9082C100.954 35.3477 100.383 35.5674 99.6533 35.5674ZM111.176 29.8896V28.1758H110.728C110.429 28.1758 110.13 28.2197 109.831 28.2988C109.532 28.3779 109.295 28.4658 109.102 28.5625C108.908 28.6592 108.732 28.7646 108.557 28.8877C108.39 29.0107 108.275 29.0898 108.223 29.1426L108.108 29.2568V28.3604H106.307V37H108.108V32.3242C108.108 31.5332 108.319 30.9092 108.724 30.4697C109.128 30.0303 109.673 29.8018 110.358 29.8018C110.657 29.8018 110.93 29.8369 111.176 29.8896ZM112.072 32.6846C112.072 33.8975 112.512 34.9434 113.408 35.8398C114.305 36.7363 115.359 37.1846 116.572 37.1846C116.985 37.1846 117.398 37.1143 117.812 36.9824C118.216 36.8506 118.55 36.71 118.813 36.5518C119.068 36.3936 119.314 36.2178 119.552 36.0156C119.78 35.8135 119.938 35.6729 120.009 35.585C120.079 35.4971 120.132 35.4355 120.167 35.3916L118.998 34.2227L118.726 34.5566C118.55 34.7676 118.26 34.9961 117.855 35.2246C117.451 35.4531 117.029 35.5674 116.572 35.5674C115.834 35.5674 115.201 35.2861 114.665 34.7324C114.129 34.1699 113.865 33.4932 113.865 32.6846C113.865 31.876 114.129 31.1992 114.665 30.6455C115.201 30.083 115.834 29.8105 116.572 29.8105C117.029 29.8105 117.451 29.9248 117.855 30.1621C118.26 30.3906 118.515 30.5752 118.638 30.7158C118.761 30.8564 118.849 30.9707 118.91 31.0674L120.079 29.8984L119.701 29.4854C119.446 29.1953 119.033 28.9053 118.453 28.6152C117.873 28.3252 117.24 28.1846 116.572 28.1846C115.359 28.1846 114.305 28.6328 113.408 29.5293C112.512 30.4258 112.072 31.4717 112.072 32.6846ZM123.938 24.3965H122.145V37H123.938V32.3242C123.938 31.5332 124.14 30.9092 124.544 30.4697C124.948 30.0303 125.502 29.8018 126.188 29.8018C126.776 29.8018 127.269 30.0127 127.664 30.417C128.06 30.8301 128.262 31.3486 128.262 31.9727V37.0088H130.063V31.9727C130.063 30.8125 129.738 29.8984 129.088 29.2129C128.438 28.5273 127.585 28.1846 126.548 28.1846C126.249 28.1846 125.95 28.2197 125.66 28.2988C125.361 28.3779 125.124 28.4658 124.931 28.5625C124.737 28.6592 124.553 28.7646 124.386 28.8877C124.219 29.0107 124.104 29.0986 124.052 29.1514C123.999 29.2041 123.955 29.2393 123.938 29.2656V24.3965Z" fill="#707C97"/>
<path fill-rule="evenodd" clip-rule="evenodd" d="M46 29C46 25.691 48.691 23 52 23C55.309 23 58 25.691 58 29C58 32.309 55.309 35 52 35C48.691 35 46 32.309 46 29ZM61.707 37.293L58.312 33.897C59.365 32.543 60 30.846 60 29C60 24.589 56.411 21 52 21C47.589 21 44 24.589 44 29C44 33.411 47.589 37 52 37C53.846 37 55.543 36.365 56.897 35.312L60.293 38.707C60.488 38.902 60.744 39 61 39C61.256 39 61.512 38.902 61.707 38.707C62.098 38.316 62.098 37.684 61.707 37.293Z" fill="#231F20"/>
<mask id="mask0" mask-type="alpha" maskUnits="userSpaceOnUse" x="44" y="21" width="19" height="18">
<path fill-rule="evenodd" clip-rule="evenodd" d="M46 29C46 25.691 48.691 23 52 23C55.309 23 58 25.691 58 29C58 32.309 55.309 35 52 35C48.691 35 46 32.309 46 29ZM61.707 37.293L58.312 33.897C59.365 32.543 60 30.846 60 29C60 24.589 56.411 21 52 21C47.589 21 44 24.589 44 29C44 33.411 47.589 37 52 37C53.846 37 55.543 36.365 56.897 35.312L60.293 38.707C60.488 38.902 60.744 39 61 39C61.256 39 61.512 38.902 61.707 38.707C62.098 38.316 62.098 37.684 61.707 37.293Z" fill="white"/>
</mask>
<g mask="url(#mask0)">
<rect x="41" y="18" width="24" height="24" fill="#707C97"/>
</g>
</svg>
