<svg width="480" height="70" viewBox="0 0 480 70" fill="none" xmlns="http://www.w3.org/2000/svg">
<rect width="480" height="70" rx="6" fill="white"/>
<path d="M166.769 35.3379V37.1396H169.203V39.1172L169.071 39.249C168.983 39.3369 168.852 39.4424 168.658 39.5654C168.465 39.6885 168.245 39.8203 167.99 39.9434C167.744 40.0664 167.419 40.1719 167.023 40.2598C166.628 40.3477 166.215 40.3828 165.775 40.3828C164.466 40.3828 163.358 39.9346 162.453 39.0205C161.548 38.1152 161.091 37.0078 161.091 35.6982C161.091 34.3975 161.548 33.29 162.453 32.3848C163.367 31.4795 164.475 31.0225 165.775 31.0225C166.268 31.0225 166.742 31.0928 167.182 31.2334C167.621 31.374 167.981 31.5234 168.254 31.6816C168.535 31.8398 168.79 32.0332 169.027 32.2529C169.273 32.4814 169.423 32.6309 169.493 32.7188C169.563 32.8066 169.607 32.8682 169.643 32.9121L170.899 31.6465L170.706 31.4004C170.574 31.2334 170.363 31.0312 170.073 30.7939C169.792 30.5654 169.458 30.3281 169.071 30.082C168.685 29.8447 168.201 29.6426 167.612 29.4756C167.032 29.3086 166.417 29.2207 165.775 29.2207C163.895 29.2207 162.312 29.8535 161.029 31.1016C159.755 32.3584 159.113 33.8877 159.113 35.6982C159.113 37.5088 159.755 39.0469 161.029 40.2949C162.312 41.5518 163.895 42.1758 165.775 42.1758C166.443 42.1758 167.094 42.0967 167.718 41.9297C168.342 41.7627 168.843 41.5781 169.229 41.376C169.616 41.1738 169.977 40.9365 170.311 40.6641C170.645 40.3916 170.864 40.1982 170.961 40.0928C171.058 39.9873 171.128 39.8994 171.172 39.8379V35.3379H166.769ZM178.643 34.8896V33.1758H178.194C177.896 33.1758 177.597 33.2197 177.298 33.2988C176.999 33.3779 176.762 33.4658 176.568 33.5625C176.375 33.6592 176.199 33.7646 176.023 33.8877C175.856 34.0107 175.742 34.0898 175.689 34.1426L175.575 34.2568V33.3604H173.773V42H175.575V37.3242C175.575 36.5332 175.786 35.9092 176.19 35.4697C176.595 35.0303 177.14 34.8018 177.825 34.8018C178.124 34.8018 178.396 34.8369 178.643 34.8896ZM186.737 37.6846C186.737 38.4932 186.465 39.1699 185.938 39.7236C185.401 40.2861 184.769 40.5586 184.039 40.5586C183.301 40.5586 182.668 40.2861 182.132 39.7236C181.596 39.1699 181.332 38.4932 181.332 37.6846C181.332 36.876 181.596 36.1992 182.132 35.6367C182.668 35.083 183.301 34.8018 184.039 34.8018C184.769 34.8018 185.401 35.083 185.938 35.6367C186.465 36.1992 186.737 36.876 186.737 37.6846ZM179.539 37.6846C179.539 38.8975 179.979 39.9434 180.875 40.8398C181.771 41.7363 182.826 42.1846 184.039 42.1846C185.252 42.1846 186.298 41.7363 187.194 40.8398C188.091 39.9434 188.539 38.8975 188.539 37.6846C188.539 36.4717 188.091 35.417 187.194 34.5205C186.298 33.624 185.252 33.1758 184.039 33.1758C182.826 33.1758 181.771 33.624 180.875 34.5205C179.979 35.417 179.539 36.4717 179.539 37.6846ZM196.634 42H198.436V33.3604H196.634V38.0361C196.634 38.8359 196.423 39.46 196.019 39.8994C195.614 40.3389 195.069 40.5586 194.384 40.5586C193.795 40.5586 193.303 40.3564 192.907 39.9434C192.512 39.5391 192.318 39.0205 192.318 38.3965V33.3604H190.517V38.3965C190.517 39.5566 190.833 40.4707 191.483 41.1562C192.134 41.8418 192.978 42.1758 194.023 42.1758C194.322 42.1758 194.621 42.1406 194.92 42.0615C195.21 41.9912 195.456 41.9033 195.649 41.8066C195.843 41.71 196.019 41.6045 196.186 41.4814C196.353 41.3584 196.467 41.2705 196.52 41.2178L196.634 41.1035V42ZM205.634 42.1758C206.776 42.1758 207.761 41.7451 208.604 40.8662C209.448 39.9873 209.87 38.9238 209.87 37.6758C209.87 36.4277 209.448 35.373 208.604 34.4941C207.761 33.6152 206.776 33.1758 205.634 33.1758C205.124 33.1758 204.632 33.29 204.148 33.501C203.656 33.7207 203.34 33.8965 203.19 34.0283C203.041 34.1689 202.927 34.2744 202.848 34.3535V33.3604H201.046V45.7793H202.848V41.0068L202.971 41.1387C203.041 41.209 203.164 41.3057 203.331 41.4287C203.498 41.5518 203.691 41.666 203.911 41.7803C204.122 41.8945 204.386 41.9912 204.693 42.0615C204.992 42.1406 205.309 42.1758 205.634 42.1758ZM205.458 34.8018C206.144 34.8018 206.75 35.083 207.277 35.6455C207.805 36.208 208.068 36.8936 208.068 37.6846C208.068 38.4756 207.805 39.1523 207.277 39.7148C206.75 40.2773 206.144 40.5586 205.458 40.5586C204.772 40.5586 204.166 40.2773 203.639 39.7148C203.111 39.1523 202.848 38.4756 202.848 37.6846C202.848 36.8936 203.111 36.208 203.639 35.6455C204.166 35.083 204.772 34.8018 205.458 34.8018ZM214.634 29.3965V31.1982H218.413V42H220.391V31.1982H224.17V29.3965H214.634ZM227.062 42.8965C226.728 43.7402 226.218 44.1621 225.532 44.1621C225.225 44.1621 224.926 44.1006 224.627 43.9775V45.6035L224.75 45.6387C224.847 45.6738 225.005 45.709 225.216 45.7354C225.427 45.7705 225.646 45.7793 225.893 45.7793C226.543 45.7793 227.088 45.5684 227.527 45.1377C227.967 44.7158 228.406 43.9688 228.854 42.8965L232.73 33.3604H230.841L228.318 39.6621L225.796 33.3604H223.906L227.422 42L227.062 42.8965ZM238.751 42.1758C239.894 42.1758 240.878 41.7451 241.722 40.8662C242.565 39.9873 242.987 38.9238 242.987 37.6758C242.987 36.4277 242.565 35.373 241.722 34.4941C240.878 33.6152 239.894 33.1758 238.751 33.1758C238.241 33.1758 237.749 33.29 237.266 33.501C236.773 33.7207 236.457 33.8965 236.308 34.0283C236.158 34.1689 236.044 34.2744 235.965 34.3535V33.3604H234.163V45.7793H235.965V41.0068L236.088 41.1387C236.158 41.209 236.281 41.3057 236.448 41.4287C236.615 41.5518 236.809 41.666 237.028 41.7803C237.239 41.8945 237.503 41.9912 237.811 42.0615C238.109 42.1406 238.426 42.1758 238.751 42.1758ZM238.575 34.8018C239.261 34.8018 239.867 35.083 240.395 35.6455C240.922 36.208 241.186 36.8936 241.186 37.6846C241.186 38.4756 240.922 39.1523 240.395 39.7148C239.867 40.2773 239.261 40.5586 238.575 40.5586C237.89 40.5586 237.283 40.2773 236.756 39.7148C236.229 39.1523 235.965 38.4756 235.965 37.6846C235.965 36.8936 236.229 36.208 236.756 35.6455C237.283 35.083 237.89 34.8018 238.575 34.8018ZM252.963 38.3086L253.06 37.4121C253.06 36.1992 252.655 35.1973 251.847 34.3887C251.038 33.5801 250.036 33.1758 248.823 33.1758C247.61 33.1758 246.573 33.6152 245.712 34.4766C244.851 35.3379 244.411 36.375 244.411 37.5879C244.411 38.8535 244.859 39.9346 245.747 40.8311C246.635 41.7275 247.689 42.1758 248.911 42.1758C249.368 42.1758 249.816 42.1143 250.247 41.9824C250.678 41.8506 251.029 41.71 251.293 41.5518C251.565 41.3936 251.82 41.2178 252.058 41.0156C252.304 40.8135 252.462 40.6729 252.532 40.585C252.603 40.4971 252.655 40.4355 252.69 40.3828L251.521 39.2139L251.249 39.5479C251.073 39.7676 250.766 39.9873 250.326 40.2158C249.887 40.4443 249.421 40.5586 248.911 40.5586C248.217 40.5586 247.619 40.3389 247.109 39.8906C246.6 39.4512 246.301 38.9238 246.204 38.3086H252.963ZM248.814 34.7139C249.482 34.7139 250.027 34.9072 250.467 35.2939C250.906 35.6807 251.179 36.1729 251.284 36.7793H246.283C246.441 36.1729 246.74 35.6807 247.18 35.2939C247.619 34.9072 248.164 34.7139 248.814 34.7139ZM254.756 41.0156C254.756 41.332 254.87 41.6045 255.107 41.833C255.336 42.0615 255.608 42.1758 255.925 42.1758C256.241 42.1758 256.514 42.0615 256.751 41.833C256.979 41.6045 257.103 41.332 257.103 41.0156C257.103 40.6992 256.979 40.4268 256.751 40.1895C256.514 39.9609 256.241 39.8379 255.925 39.8379C255.608 39.8379 255.336 39.9609 255.107 40.1895C254.87 40.4268 254.756 40.6992 254.756 41.0156ZM254.756 34.3535C254.756 34.6699 254.87 34.9424 255.107 35.1797C255.336 35.4082 255.608 35.5312 255.925 35.5312C256.241 35.5312 256.514 35.4082 256.751 35.1797C256.979 34.9424 257.103 34.6699 257.103 34.3535C257.103 34.0371 256.979 33.7646 256.751 33.5273C256.514 33.2988 256.241 33.1758 255.925 33.1758C255.608 33.1758 255.336 33.2988 255.107 33.5273C254.87 33.7646 254.756 34.0371 254.756 34.3535ZM269.354 29.2207C267.465 29.2207 265.883 29.8535 264.608 31.1016C263.325 32.3584 262.692 33.8877 262.692 35.6982C262.692 37.5088 263.325 39.0469 264.608 40.2949C265.883 41.5518 267.465 42.1758 269.354 42.1758C269.987 42.1758 270.603 42.0879 271.2 41.9121C271.798 41.7363 272.29 41.5342 272.659 41.3145C273.028 41.0859 273.38 40.8311 273.714 40.5498C274.048 40.2598 274.259 40.0576 274.355 39.9434C274.452 39.8291 274.522 39.7412 274.566 39.6709L273.301 38.4053L273.16 38.625C273.055 38.7568 272.888 38.915 272.659 39.1084C272.431 39.3018 272.176 39.4951 271.877 39.6885C271.578 39.8818 271.209 40.04 270.761 40.1807C270.312 40.3213 269.838 40.3916 269.346 40.3916C268.036 40.3916 266.929 39.9346 266.023 39.0293C265.118 38.1152 264.661 37.0078 264.661 35.707C264.661 34.3975 265.118 33.29 266.023 32.3848C266.938 31.4795 268.045 31.0312 269.346 31.0312C269.838 31.0312 270.312 31.0928 270.752 31.2334C271.191 31.374 271.552 31.5234 271.824 31.6816C272.105 31.8398 272.36 32.0332 272.598 32.2529C272.844 32.4814 272.993 32.6309 273.063 32.7188C273.134 32.8066 273.178 32.8682 273.213 32.9121L274.47 31.6465L274.276 31.4004C274.145 31.2334 273.934 31.0312 273.644 30.7939C273.362 30.5654 273.028 30.3281 272.642 30.082C272.255 29.8447 271.771 29.6426 271.183 29.4756C270.603 29.3086 269.987 29.2207 269.354 29.2207ZM278.434 29.3965H276.641V42H278.434V29.3965ZM288.066 42V36.4189C288.066 35.5049 287.724 34.7402 287.056 34.1162C286.379 33.4922 285.518 33.1758 284.463 33.1758C284.041 33.1758 283.628 33.2373 283.232 33.3516C282.837 33.4658 282.521 33.5977 282.283 33.7383C282.037 33.8877 281.809 34.0547 281.598 34.2393C281.387 34.4238 281.246 34.5557 281.185 34.626C281.123 34.6963 281.079 34.7578 281.044 34.8018L282.213 35.9707L282.45 35.6631C282.591 35.4697 282.846 35.2852 283.215 35.0918C283.584 34.8984 284.006 34.8018 284.463 34.8018C284.99 34.8018 285.421 34.96 285.755 35.2676C286.089 35.584 286.265 35.9619 286.265 36.4189L283.109 36.9639C282.327 37.0957 281.712 37.4033 281.264 37.8779C280.815 38.3613 280.596 38.959 280.596 39.6709C280.596 40.3213 280.886 40.9102 281.466 41.4199C282.046 41.9297 282.775 42.1846 283.654 42.1846C283.953 42.1846 284.243 42.1406 284.542 42.0703C284.832 41.9912 285.078 41.9033 285.271 41.8066C285.465 41.71 285.641 41.6045 285.808 41.4814C285.975 41.3584 286.089 41.2793 286.142 41.2266C286.194 41.1738 286.238 41.1299 286.265 41.1123V42.0088L288.066 42ZM283.927 40.5674C283.452 40.5674 283.083 40.4531 282.802 40.2422C282.521 40.0225 282.389 39.7676 282.389 39.4775C282.389 39.1699 282.485 38.915 282.688 38.7129C282.881 38.502 283.145 38.3701 283.47 38.3174L286.265 37.8691V38.0449C286.265 38.8535 286.054 39.4688 285.641 39.9082C285.228 40.3477 284.656 40.5674 283.927 40.5674ZM296.082 34.3535L295.968 34.2217C295.897 34.1514 295.783 34.0635 295.625 33.9404C295.467 33.8174 295.291 33.7031 295.089 33.5889C294.878 33.4746 294.614 33.3779 294.289 33.2988C293.964 33.2197 293.63 33.1758 293.287 33.1758C292.408 33.1758 291.679 33.4307 291.099 33.9404C290.519 34.4502 290.229 35.0391 290.229 35.6982C290.229 36.1816 290.334 36.5947 290.554 36.9375C290.765 37.2803 291.037 37.5352 291.371 37.6934C291.705 37.8516 292.057 38.001 292.435 38.1328C292.812 38.2646 293.164 38.3789 293.498 38.4668C293.823 38.5547 294.096 38.6865 294.315 38.8535C294.526 39.0205 294.641 39.2314 294.641 39.4775C294.641 39.8115 294.518 40.0752 294.28 40.2686C294.034 40.4619 293.674 40.5586 293.199 40.5586C292.795 40.5586 292.408 40.4619 292.03 40.2686C291.652 40.0752 291.406 39.9082 291.292 39.7852C291.178 39.6621 291.09 39.5654 291.037 39.4775L289.868 40.6465L290 40.8135C290.079 40.9189 290.211 41.0508 290.396 41.2002C290.58 41.3496 290.8 41.499 291.046 41.6396C291.292 41.7891 291.6 41.9121 291.986 42.0176C292.373 42.123 292.777 42.1758 293.199 42.1758C294.157 42.1758 294.939 41.9121 295.537 41.3848C296.135 40.8574 296.442 40.2246 296.442 39.4775C296.442 39.0029 296.328 38.5898 296.117 38.2471C295.897 37.9131 295.625 37.6582 295.291 37.4912C294.957 37.333 294.605 37.1836 294.228 37.0518C293.85 36.9199 293.498 36.8057 293.173 36.7178C292.839 36.6299 292.566 36.5068 292.355 36.3311C292.136 36.1641 292.03 35.9531 292.03 35.6982C292.03 35.4609 292.136 35.25 292.364 35.0742C292.593 34.8984 292.9 34.8018 293.287 34.8018C293.568 34.8018 293.858 34.8721 294.14 35.0039C294.421 35.1357 294.614 35.2412 294.702 35.3291C294.79 35.417 294.86 35.4785 294.904 35.5225L296.082 34.3535ZM303.904 34.3535L303.79 34.2217C303.72 34.1514 303.605 34.0635 303.447 33.9404C303.289 33.8174 303.113 33.7031 302.911 33.5889C302.7 33.4746 302.437 33.3779 302.111 33.2988C301.786 33.2197 301.452 33.1758 301.109 33.1758C300.23 33.1758 299.501 33.4307 298.921 33.9404C298.341 34.4502 298.051 35.0391 298.051 35.6982C298.051 36.1816 298.156 36.5947 298.376 36.9375C298.587 37.2803 298.859 37.5352 299.193 37.6934C299.527 37.8516 299.879 38.001 300.257 38.1328C300.635 38.2646 300.986 38.3789 301.32 38.4668C301.646 38.5547 301.918 38.6865 302.138 38.8535C302.349 39.0205 302.463 39.2314 302.463 39.4775C302.463 39.8115 302.34 40.0752 302.103 40.2686C301.856 40.4619 301.496 40.5586 301.021 40.5586C300.617 40.5586 300.23 40.4619 299.853 40.2686C299.475 40.0752 299.229 39.9082 299.114 39.7852C299 39.6621 298.912 39.5654 298.859 39.4775L297.69 40.6465L297.822 40.8135C297.901 40.9189 298.033 41.0508 298.218 41.2002C298.402 41.3496 298.622 41.499 298.868 41.6396C299.114 41.7891 299.422 41.9121 299.809 42.0176C300.195 42.123 300.6 42.1758 301.021 42.1758C301.979 42.1758 302.762 41.9121 303.359 41.3848C303.957 40.8574 304.265 40.2246 304.265 39.4775C304.265 39.0029 304.15 38.5898 303.939 38.2471C303.72 37.9131 303.447 37.6582 303.113 37.4912C302.779 37.333 302.428 37.1836 302.05 37.0518C301.672 36.9199 301.32 36.8057 300.995 36.7178C300.661 36.6299 300.389 36.5068 300.178 36.3311C299.958 36.1641 299.853 35.9531 299.853 35.6982C299.853 35.4609 299.958 35.25 300.187 35.0742C300.415 34.8984 300.723 34.8018 301.109 34.8018C301.391 34.8018 301.681 34.8721 301.962 35.0039C302.243 35.1357 302.437 35.2412 302.524 35.3291C302.612 35.417 302.683 35.4785 302.727 35.5225L303.904 34.3535ZM314.24 38.3086L314.337 37.4121C314.337 36.1992 313.933 35.1973 313.124 34.3887C312.315 33.5801 311.313 33.1758 310.101 33.1758C308.888 33.1758 307.851 33.6152 306.989 34.4766C306.128 35.3379 305.688 36.375 305.688 37.5879C305.688 38.8535 306.137 39.9346 307.024 40.8311C307.912 41.7275 308.967 42.1758 310.188 42.1758C310.646 42.1758 311.094 42.1143 311.524 41.9824C311.955 41.8506 312.307 41.71 312.57 41.5518C312.843 41.3936 313.098 41.2178 313.335 41.0156C313.581 40.8135 313.739 40.6729 313.81 40.585C313.88 40.4971 313.933 40.4355 313.968 40.3828L312.799 39.2139L312.526 39.5479C312.351 39.7676 312.043 39.9873 311.604 40.2158C311.164 40.4443 310.698 40.5586 310.188 40.5586C309.494 40.5586 308.896 40.3389 308.387 39.8906C307.877 39.4512 307.578 38.9238 307.481 38.3086H314.24ZM310.092 34.7139C310.76 34.7139 311.305 34.9072 311.744 35.2939C312.184 35.6807 312.456 36.1729 312.562 36.7793H307.561C307.719 36.1729 308.018 35.6807 308.457 35.2939C308.896 34.9072 309.441 34.7139 310.092 34.7139ZM321.799 34.3535L321.685 34.2217C321.614 34.1514 321.5 34.0635 321.342 33.9404C321.184 33.8174 321.008 33.7031 320.806 33.5889C320.595 33.4746 320.331 33.3779 320.006 33.2988C319.681 33.2197 319.347 33.1758 319.004 33.1758C318.125 33.1758 317.396 33.4307 316.815 33.9404C316.235 34.4502 315.945 35.0391 315.945 35.6982C315.945 36.1816 316.051 36.5947 316.271 36.9375C316.481 37.2803 316.754 37.5352 317.088 37.6934C317.422 37.8516 317.773 38.001 318.151 38.1328C318.529 38.2646 318.881 38.3789 319.215 38.4668C319.54 38.5547 319.812 38.6865 320.032 38.8535C320.243 39.0205 320.357 39.2314 320.357 39.4775C320.357 39.8115 320.234 40.0752 319.997 40.2686C319.751 40.4619 319.391 40.5586 318.916 40.5586C318.512 40.5586 318.125 40.4619 317.747 40.2686C317.369 40.0752 317.123 39.9082 317.009 39.7852C316.895 39.6621 316.807 39.5654 316.754 39.4775L315.585 40.6465L315.717 40.8135C315.796 40.9189 315.928 41.0508 316.112 41.2002C316.297 41.3496 316.517 41.499 316.763 41.6396C317.009 41.7891 317.316 41.9121 317.703 42.0176C318.09 42.123 318.494 42.1758 318.916 42.1758C319.874 42.1758 320.656 41.9121 321.254 41.3848C321.852 40.8574 322.159 40.2246 322.159 39.4775C322.159 39.0029 322.045 38.5898 321.834 38.2471C321.614 37.9131 321.342 37.6582 321.008 37.4912C320.674 37.333 320.322 37.1836 319.944 37.0518C319.566 36.9199 319.215 36.8057 318.89 36.7178C318.556 36.6299 318.283 36.5068 318.072 36.3311C317.853 36.1641 317.747 35.9531 317.747 35.6982C317.747 35.4609 317.853 35.25 318.081 35.0742C318.31 34.8984 318.617 34.8018 319.004 34.8018C319.285 34.8018 319.575 34.8721 319.856 35.0039C320.138 35.1357 320.331 35.2412 320.419 35.3291C320.507 35.417 320.577 35.4785 320.621 35.5225L321.799 34.3535Z" fill="#707C97"/>
</svg>
