<svg width="480" height="70" viewBox="0 0 480 70" fill="none" xmlns="http://www.w3.org/2000/svg">
<rect width="480" height="70" rx="6" fill="white"/>
<path d="M82.7432 38.3965C82.7432 38.959 82.5146 39.4336 82.0664 39.8115C81.6094 40.1982 80.9941 40.3828 80.2207 40.3828C79.7988 40.3828 79.3945 40.3389 79.0166 40.2334C78.6387 40.1279 78.3398 40.0137 78.1113 39.8906C77.8828 39.7676 77.6631 39.6182 77.4697 39.4512C77.2764 39.2842 77.1445 39.1699 77.0918 39.0996C77.0391 39.0293 76.9951 38.9766 76.9775 38.9414L75.7207 40.1982L75.8965 40.418C76.002 40.5498 76.1865 40.708 76.4326 40.9014C76.6787 41.0947 76.9688 41.2881 77.3027 41.4814C77.6367 41.6748 78.0586 41.833 78.5771 41.9736C79.0957 42.1143 79.6406 42.1846 80.2207 42.1846C81.627 42.1846 82.7256 41.833 83.5254 41.1299C84.3164 40.4268 84.7207 39.5127 84.7207 38.4053C84.7207 37.7725 84.5977 37.2275 84.3516 36.7705C84.1055 36.3135 83.7803 35.9619 83.3936 35.7158C83.0068 35.4697 82.5762 35.2588 82.1016 35.083C81.627 34.9072 81.1523 34.7666 80.6777 34.6436C80.2031 34.5205 79.7637 34.3887 79.377 34.2393C78.9902 34.0898 78.6738 33.8789 78.4277 33.6152C78.1816 33.3516 78.0586 33.0264 78.0586 32.6396C78.0586 32.209 78.252 31.8311 78.6475 31.5059C79.043 31.1895 79.5703 31.0225 80.2207 31.0225C80.5371 31.0225 80.8447 31.0664 81.1348 31.1367C81.4248 31.2158 81.6621 31.3037 81.8379 31.4004C82.0137 31.4971 82.1807 31.6025 82.3389 31.7256C82.4971 31.8486 82.5938 31.9365 82.6377 31.9893C82.6816 32.042 82.7168 32.0859 82.7432 32.1035L84 30.8379L83.8594 30.6621C83.7539 30.5566 83.5957 30.4248 83.3848 30.2666C83.1738 30.1084 82.9189 29.959 82.6377 29.8008C82.3564 29.6426 81.9961 29.5107 81.5654 29.3965C81.1348 29.2822 80.6865 29.2207 80.2207 29.2207C78.9463 29.2207 77.9355 29.5547 77.1973 30.2051C76.4502 30.8555 76.0811 31.6729 76.0811 32.6396C76.0811 33.2812 76.2041 33.8262 76.4502 34.2832C76.6963 34.7402 77.0127 35.083 77.3994 35.3291C77.7861 35.5752 78.2256 35.7861 78.7002 35.9619C79.1748 36.1377 79.6494 36.2871 80.124 36.4102C80.5986 36.5332 81.0293 36.665 81.416 36.8145C81.8027 36.9639 82.1279 37.166 82.374 37.4297C82.6201 37.6934 82.7432 38.0098 82.7432 38.3965ZM94.793 38.3086L94.8896 37.4121C94.8896 36.1992 94.4854 35.1973 93.6768 34.3887C92.8682 33.5801 91.8662 33.1758 90.6533 33.1758C89.4404 33.1758 88.4033 33.6152 87.542 34.4766C86.6807 35.3379 86.2412 36.375 86.2412 37.5879C86.2412 38.8535 86.6895 39.9346 87.5771 40.8311C88.4648 41.7275 89.5195 42.1758 90.7412 42.1758C91.1982 42.1758 91.6465 42.1143 92.0771 41.9824C92.5078 41.8506 92.8594 41.71 93.123 41.5518C93.3955 41.3936 93.6504 41.2178 93.8877 41.0156C94.1338 40.8135 94.292 40.6729 94.3623 40.585C94.4326 40.4971 94.4854 40.4355 94.5205 40.3828L93.3516 39.2139L93.0791 39.5479C92.9033 39.7676 92.5957 39.9873 92.1562 40.2158C91.7168 40.4443 91.251 40.5586 90.7412 40.5586C90.0469 40.5586 89.4492 40.3389 88.9395 39.8906C88.4297 39.4512 88.1309 38.9238 88.0342 38.3086H94.793ZM90.6445 34.7139C91.3125 34.7139 91.8574 34.9072 92.2969 35.2939C92.7363 35.6807 93.0088 36.1729 93.1143 36.7793H88.1133C88.2715 36.1729 88.5703 35.6807 89.0098 35.2939C89.4492 34.9072 89.9941 34.7139 90.6445 34.7139ZM103.793 42V36.4189C103.793 35.5049 103.45 34.7402 102.782 34.1162C102.105 33.4922 101.244 33.1758 100.189 33.1758C99.7676 33.1758 99.3545 33.2373 98.959 33.3516C98.5635 33.4658 98.2471 33.5977 98.0098 33.7383C97.7637 33.8877 97.5352 34.0547 97.3242 34.2393C97.1133 34.4238 96.9727 34.5557 96.9111 34.626C96.8496 34.6963 96.8057 34.7578 96.7705 34.8018L97.9395 35.9707L98.1768 35.6631C98.3174 35.4697 98.5723 35.2852 98.9414 35.0918C99.3105 34.8984 99.7324 34.8018 100.189 34.8018C100.717 34.8018 101.147 34.96 101.481 35.2676C101.815 35.584 101.991 35.9619 101.991 36.4189L98.8359 36.9639C98.0537 37.0957 97.4385 37.4033 96.9902 37.8779C96.542 38.3613 96.3223 38.959 96.3223 39.6709C96.3223 40.3213 96.6123 40.9102 97.1924 41.4199C97.7725 41.9297 98.502 42.1846 99.3809 42.1846C99.6797 42.1846 99.9697 42.1406 100.269 42.0703C100.559 41.9912 100.805 41.9033 100.998 41.8066C101.191 41.71 101.367 41.6045 101.534 41.4814C101.701 41.3584 101.815 41.2793 101.868 41.2266C101.921 41.1738 101.965 41.1299 101.991 41.1123V42.0088L103.793 42ZM99.6533 40.5674C99.1787 40.5674 98.8096 40.4531 98.5283 40.2422C98.2471 40.0225 98.1152 39.7676 98.1152 39.4775C98.1152 39.1699 98.2119 38.915 98.4141 38.7129C98.6074 38.502 98.8711 38.3701 99.1963 38.3174L101.991 37.8691V38.0449C101.991 38.8535 101.78 39.4688 101.367 39.9082C100.954 40.3477 100.383 40.5674 99.6533 40.5674ZM111.176 34.8896V33.1758H110.728C110.429 33.1758 110.13 33.2197 109.831 33.2988C109.532 33.3779 109.295 33.4658 109.102 33.5625C108.908 33.6592 108.732 33.7646 108.557 33.8877C108.39 34.0107 108.275 34.0898 108.223 34.1426L108.108 34.2568V33.3604H106.307V42H108.108V37.3242C108.108 36.5332 108.319 35.9092 108.724 35.4697C109.128 35.0303 109.673 34.8018 110.358 34.8018C110.657 34.8018 110.93 34.8369 111.176 34.8896ZM112.072 37.6846C112.072 38.8975 112.512 39.9434 113.408 40.8398C114.305 41.7363 115.359 42.1846 116.572 42.1846C116.985 42.1846 117.398 42.1143 117.812 41.9824C118.216 41.8506 118.55 41.71 118.813 41.5518C119.068 41.3936 119.314 41.2178 119.552 41.0156C119.78 40.8135 119.938 40.6729 120.009 40.585C120.079 40.4971 120.132 40.4355 120.167 40.3916L118.998 39.2227L118.726 39.5566C118.55 39.7676 118.26 39.9961 117.855 40.2246C117.451 40.4531 117.029 40.5674 116.572 40.5674C115.834 40.5674 115.201 40.2861 114.665 39.7324C114.129 39.1699 113.865 38.4932 113.865 37.6846C113.865 36.876 114.129 36.1992 114.665 35.6455C115.201 35.083 115.834 34.8105 116.572 34.8105C117.029 34.8105 117.451 34.9248 117.855 35.1621C118.26 35.3906 118.515 35.5752 118.638 35.7158C118.761 35.8564 118.849 35.9707 118.91 36.0674L120.079 34.8984L119.701 34.4854C119.446 34.1953 119.033 33.9053 118.453 33.6152C117.873 33.3252 117.24 33.1846 116.572 33.1846C115.359 33.1846 114.305 33.6328 113.408 34.5293C112.512 35.4258 112.072 36.4717 112.072 37.6846ZM123.938 29.3965H122.145V42H123.938V37.3242C123.938 36.5332 124.14 35.9092 124.544 35.4697C124.948 35.0303 125.502 34.8018 126.188 34.8018C126.776 34.8018 127.269 35.0127 127.664 35.417C128.06 35.8301 128.262 36.3486 128.262 36.9727V42.0088H130.063V36.9727C130.063 35.8125 129.738 34.8984 129.088 34.2129C128.438 33.5273 127.585 33.1846 126.548 33.1846C126.249 33.1846 125.95 33.2197 125.66 33.2988C125.361 33.3779 125.124 33.4658 124.931 33.5625C124.737 33.6592 124.553 33.7646 124.386 33.8877C124.219 34.0107 124.104 34.0986 124.052 34.1514C123.999 34.2041 123.955 34.2393 123.938 34.2656V29.3965Z" fill="#707C97"/>
<path fill-rule="evenodd" clip-rule="evenodd" d="M46 34C46 30.691 48.691 28 52 28C55.309 28 58 30.691 58 34C58 37.309 55.309 40 52 40C48.691 40 46 37.309 46 34ZM61.707 42.293L58.312 38.897C59.365 37.543 60 35.846 60 34C60 29.589 56.411 26 52 26C47.589 26 44 29.589 44 34C44 38.411 47.589 42 52 42C53.846 42 55.543 41.365 56.897 40.312L60.293 43.707C60.488 43.902 60.744 44 61 44C61.256 44 61.512 43.902 61.707 43.707C62.098 43.316 62.098 42.684 61.707 42.293Z" fill="#231F20"/>
<mask id="mask0" mask-type="alpha" maskUnits="userSpaceOnUse" x="44" y="26" width="19" height="18">
<path fill-rule="evenodd" clip-rule="evenodd" d="M46 34C46 30.691 48.691 28 52 28C55.309 28 58 30.691 58 34C58 37.309 55.309 40 52 40C48.691 40 46 37.309 46 34ZM61.707 42.293L58.312 38.897C59.365 37.543 60 35.846 60 34C60 29.589 56.411 26 52 26C47.589 26 44 29.589 44 34C44 38.411 47.589 42 52 42C53.846 42 55.543 41.365 56.897 40.312L60.293 43.707C60.488 43.902 60.744 44 61 44C61.256 44 61.512 43.902 61.707 43.707C62.098 43.316 62.098 42.684 61.707 42.293Z" fill="white"/>
</mask>
<g mask="url(#mask0)">
<rect x="41" y="23" width="24" height="24" fill="#707C97"/>
</g>
</svg>
