<svg width="480" height="70" viewBox="0 0 480 70" fill="none" xmlns="http://www.w3.org/2000/svg">
<rect width="480" height="70" rx="6" fill="white"/>
<path d="M174.986 38.3965C174.986 38.959 174.758 39.4336 174.31 39.8115C173.853 40.1982 173.237 40.3828 172.464 40.3828C172.042 40.3828 171.638 40.3389 171.26 40.2334C170.882 40.1279 170.583 40.0137 170.354 39.8906C170.126 39.7676 169.906 39.6182 169.713 39.4512C169.52 39.2842 169.388 39.1699 169.335 39.0996C169.282 39.0293 169.238 38.9766 169.221 38.9414L167.964 40.1982L168.14 40.418C168.245 40.5498 168.43 40.708 168.676 40.9014C168.922 41.0947 169.212 41.2881 169.546 41.4814C169.88 41.6748 170.302 41.833 170.82 41.9736C171.339 42.1143 171.884 42.1846 172.464 42.1846C173.87 42.1846 174.969 41.833 175.769 41.1299C176.56 40.4268 176.964 39.5127 176.964 38.4053C176.964 37.7725 176.841 37.2275 176.595 36.7705C176.349 36.3135 176.023 35.9619 175.637 35.7158C175.25 35.4697 174.819 35.2588 174.345 35.083C173.87 34.9072 173.396 34.7666 172.921 34.6436C172.446 34.5205 172.007 34.3887 171.62 34.2393C171.233 34.0898 170.917 33.8789 170.671 33.6152C170.425 33.3516 170.302 33.0264 170.302 32.6396C170.302 32.209 170.495 31.8311 170.891 31.5059C171.286 31.1895 171.813 31.0225 172.464 31.0225C172.78 31.0225 173.088 31.0664 173.378 31.1367C173.668 31.2158 173.905 31.3037 174.081 31.4004C174.257 31.4971 174.424 31.6025 174.582 31.7256C174.74 31.8486 174.837 31.9365 174.881 31.9893C174.925 32.042 174.96 32.0859 174.986 32.1035L176.243 30.8379L176.103 30.6621C175.997 30.5566 175.839 30.4248 175.628 30.2666C175.417 30.1084 175.162 29.959 174.881 29.8008C174.6 29.6426 174.239 29.5107 173.809 29.3965C173.378 29.2822 172.93 29.2207 172.464 29.2207C171.189 29.2207 170.179 29.5547 169.44 30.2051C168.693 30.8555 168.324 31.6729 168.324 32.6396C168.324 33.2812 168.447 33.8262 168.693 34.2832C168.939 34.7402 169.256 35.083 169.643 35.3291C170.029 35.5752 170.469 35.7861 170.943 35.9619C171.418 36.1377 171.893 36.2871 172.367 36.4102C172.842 36.5332 173.272 36.665 173.659 36.8145C174.046 36.9639 174.371 37.166 174.617 37.4297C174.863 37.6934 174.986 38.0098 174.986 38.3965ZM185.691 37.6846C185.691 38.4932 185.419 39.1699 184.892 39.7236C184.355 40.2861 183.723 40.5586 182.993 40.5586C182.255 40.5586 181.622 40.2861 181.086 39.7236C180.55 39.1699 180.286 38.4932 180.286 37.6846C180.286 36.876 180.55 36.1992 181.086 35.6367C181.622 35.083 182.255 34.8018 182.993 34.8018C183.723 34.8018 184.355 35.083 184.892 35.6367C185.419 36.1992 185.691 36.876 185.691 37.6846ZM178.493 37.6846C178.493 38.8975 178.933 39.9434 179.829 40.8398C180.726 41.7363 181.78 42.1846 182.993 42.1846C184.206 42.1846 185.252 41.7363 186.148 40.8398C187.045 39.9434 187.493 38.8975 187.493 37.6846C187.493 36.4717 187.045 35.417 186.148 34.5205C185.252 33.624 184.206 33.1758 182.993 33.1758C181.78 33.1758 180.726 33.624 179.829 34.5205C178.933 35.417 178.493 36.4717 178.493 37.6846ZM194.331 34.8896V33.1758H193.883C193.584 33.1758 193.285 33.2197 192.986 33.2988C192.688 33.3779 192.45 33.4658 192.257 33.5625C192.063 33.6592 191.888 33.7646 191.712 33.8877C191.545 34.0107 191.431 34.0898 191.378 34.1426L191.264 34.2568V33.3604H189.462V42H191.264V37.3242C191.264 36.5332 191.475 35.9092 191.879 35.4697C192.283 35.0303 192.828 34.8018 193.514 34.8018C193.812 34.8018 194.085 34.8369 194.331 34.8896ZM196.845 32.2793C196.845 33 196.546 33.3604 195.948 33.3604H195.043V34.9775H196.669V39.4775C196.66 41.2793 197.495 42.1758 199.174 42.1758C199.666 42.1758 200.088 42.123 200.439 42V40.3828L200.308 40.418C200.229 40.4531 200.114 40.4883 199.965 40.5146C199.815 40.5498 199.675 40.5586 199.534 40.5586C199.227 40.5586 198.972 40.4619 198.77 40.251C198.559 40.0488 198.462 39.7852 198.462 39.46V34.9775H200.264V33.3604H198.462V30.4775H196.845V32.2793ZM202.329 41.0156C202.329 41.332 202.443 41.6045 202.681 41.833C202.909 42.0615 203.182 42.1758 203.498 42.1758C203.814 42.1758 204.087 42.0615 204.324 41.833C204.553 41.6045 204.676 41.332 204.676 41.0156C204.676 40.6992 204.553 40.4268 204.324 40.1895C204.087 39.9609 203.814 39.8379 203.498 39.8379C203.182 39.8379 202.909 39.9609 202.681 40.1895C202.443 40.4268 202.329 40.6992 202.329 41.0156ZM202.329 34.3535C202.329 34.6699 202.443 34.9424 202.681 35.1797C202.909 35.4082 203.182 35.5312 203.498 35.5312C203.814 35.5312 204.087 35.4082 204.324 35.1797C204.553 34.9424 204.676 34.6699 204.676 34.3535C204.676 34.0371 204.553 33.7646 204.324 33.5273C204.087 33.2988 203.814 33.1758 203.498 33.1758C203.182 33.1758 202.909 33.2988 202.681 33.5273C202.443 33.7646 202.329 34.0371 202.329 34.3535ZM209.545 42H211.61L212.964 38.6689H218.545L219.898 42H221.964L216.743 29.3965H214.766L209.545 42ZM215.759 31.6465L217.824 36.8672H213.685L215.759 31.6465ZM225.479 29.3965H223.687V42H225.479V29.3965ZM232.766 42.1758C233.908 42.1758 234.893 41.7451 235.736 40.8662C236.58 39.9873 237.002 38.9238 237.002 37.6758C237.002 36.4277 236.58 35.373 235.736 34.4941C234.893 33.6152 233.908 33.1758 232.766 33.1758C232.256 33.1758 231.764 33.29 231.28 33.501C230.788 33.7207 230.472 33.8965 230.322 34.0283C230.173 34.1689 230.059 34.2744 229.979 34.3535V33.3604H228.178V45.7793H229.979V41.0068L230.103 41.1387C230.173 41.209 230.296 41.3057 230.463 41.4287C230.63 41.5518 230.823 41.666 231.043 41.7803C231.254 41.8945 231.518 41.9912 231.825 42.0615C232.124 42.1406 232.44 42.1758 232.766 42.1758ZM232.59 34.8018C233.275 34.8018 233.882 35.083 234.409 35.6455C234.937 36.208 235.2 36.8936 235.2 37.6846C235.2 38.4756 234.937 39.1523 234.409 39.7148C233.882 40.2773 233.275 40.5586 232.59 40.5586C231.904 40.5586 231.298 40.2773 230.771 39.7148C230.243 39.1523 229.979 38.4756 229.979 37.6846C229.979 36.8936 230.243 36.208 230.771 35.6455C231.298 35.083 231.904 34.8018 232.59 34.8018ZM240.948 29.3965H239.155V42H240.948V37.3242C240.948 36.5332 241.15 35.9092 241.555 35.4697C241.959 35.0303 242.513 34.8018 243.198 34.8018C243.787 34.8018 244.279 35.0127 244.675 35.417C245.07 35.8301 245.272 36.3486 245.272 36.9727V42.0088H247.074V36.9727C247.074 35.8125 246.749 34.8984 246.099 34.2129C245.448 33.5273 244.596 33.1846 243.559 33.1846C243.26 33.1846 242.961 33.2197 242.671 33.2988C242.372 33.3779 242.135 33.4658 241.941 33.5625C241.748 33.6592 241.563 33.7646 241.396 33.8877C241.229 34.0107 241.115 34.0986 241.062 34.1514C241.01 34.2041 240.966 34.2393 240.948 34.2656V29.3965ZM256.522 42V36.4189C256.522 35.5049 256.18 34.7402 255.512 34.1162C254.835 33.4922 253.974 33.1758 252.919 33.1758C252.497 33.1758 252.084 33.2373 251.688 33.3516C251.293 33.4658 250.977 33.5977 250.739 33.7383C250.493 33.8877 250.265 34.0547 250.054 34.2393C249.843 34.4238 249.702 34.5557 249.641 34.626C249.579 34.6963 249.535 34.7578 249.5 34.8018L250.669 35.9707L250.906 35.6631C251.047 35.4697 251.302 35.2852 251.671 35.0918C252.04 34.8984 252.462 34.8018 252.919 34.8018C253.446 34.8018 253.877 34.96 254.211 35.2676C254.545 35.584 254.721 35.9619 254.721 36.4189L251.565 36.9639C250.783 37.0957 250.168 37.4033 249.72 37.8779C249.271 38.3613 249.052 38.959 249.052 39.6709C249.052 40.3213 249.342 40.9102 249.922 41.4199C250.502 41.9297 251.231 42.1846 252.11 42.1846C252.409 42.1846 252.699 42.1406 252.998 42.0703C253.288 41.9912 253.534 41.9033 253.728 41.8066C253.921 41.71 254.097 41.6045 254.264 41.4814C254.431 41.3584 254.545 41.2793 254.598 41.2266C254.65 41.1738 254.694 41.1299 254.721 41.1123V42.0088L256.522 42ZM252.383 40.5674C251.908 40.5674 251.539 40.4531 251.258 40.2422C250.977 40.0225 250.845 39.7676 250.845 39.4775C250.845 39.1699 250.941 38.915 251.144 38.7129C251.337 38.502 251.601 38.3701 251.926 38.3174L254.721 37.8691V38.0449C254.721 38.8535 254.51 39.4688 254.097 39.9082C253.684 40.3477 253.112 40.5674 252.383 40.5674ZM263.817 33.1758C263.308 33.1758 262.815 33.29 262.332 33.501C261.84 33.7207 261.523 33.8965 261.374 34.0283C261.216 34.1689 261.102 34.2744 261.022 34.3535V29.3965H259.229V42H261.022V41.0068L261.154 41.1387C261.225 41.209 261.339 41.3057 261.506 41.4287C261.673 41.5518 261.866 41.666 262.086 41.7803C262.297 41.8945 262.561 41.9912 262.868 42.0615C263.176 42.1406 263.492 42.1758 263.817 42.1758C264.951 42.1758 265.936 41.7451 266.779 40.8662C267.623 39.9873 268.045 38.9238 268.045 37.6758C268.045 36.4277 267.623 35.373 266.788 34.4941C265.944 33.6152 264.96 33.1758 263.817 33.1758ZM263.633 40.5586C262.947 40.5586 262.341 40.2773 261.813 39.7148C261.286 39.1523 261.022 38.4756 261.022 37.6846C261.022 36.8936 261.286 36.208 261.813 35.6455C262.341 35.083 262.947 34.8018 263.633 34.8018C264.318 34.8018 264.925 35.083 265.452 35.6455C265.979 36.208 266.243 36.8936 266.243 37.6846C266.243 38.4756 265.979 39.1523 265.452 39.7148C264.925 40.2773 264.318 40.5586 263.633 40.5586ZM278.038 38.3086L278.135 37.4121C278.135 36.1992 277.73 35.1973 276.922 34.3887C276.113 33.5801 275.111 33.1758 273.898 33.1758C272.686 33.1758 271.648 33.6152 270.787 34.4766C269.926 35.3379 269.486 36.375 269.486 37.5879C269.486 38.8535 269.935 39.9346 270.822 40.8311C271.71 41.7275 272.765 42.1758 273.986 42.1758C274.443 42.1758 274.892 42.1143 275.322 41.9824C275.753 41.8506 276.104 41.71 276.368 41.5518C276.641 41.3936 276.896 41.2178 277.133 41.0156C277.379 40.8135 277.537 40.6729 277.607 40.585C277.678 40.4971 277.73 40.4355 277.766 40.3828L276.597 39.2139L276.324 39.5479C276.148 39.7676 275.841 39.9873 275.401 40.2158C274.962 40.4443 274.496 40.5586 273.986 40.5586C273.292 40.5586 272.694 40.3389 272.185 39.8906C271.675 39.4512 271.376 38.9238 271.279 38.3086H278.038ZM273.89 34.7139C274.558 34.7139 275.103 34.9072 275.542 35.2939C275.981 35.6807 276.254 36.1729 276.359 36.7793H271.358C271.517 36.1729 271.815 35.6807 272.255 35.2939C272.694 34.9072 273.239 34.7139 273.89 34.7139ZM281.185 32.2793C281.185 33 280.886 33.3604 280.288 33.3604H279.383V34.9775H281.009V39.4775C281 41.2793 281.835 42.1758 283.514 42.1758C284.006 42.1758 284.428 42.123 284.779 42V40.3828L284.647 40.418C284.568 40.4531 284.454 40.4883 284.305 40.5146C284.155 40.5498 284.015 40.5586 283.874 40.5586C283.566 40.5586 283.312 40.4619 283.109 40.251C282.898 40.0488 282.802 39.7852 282.802 39.46V34.9775H284.604V33.3604H282.802V30.4775H281.185V32.2793ZM288.831 33.3604H287.029V42H288.831V33.3604ZM289.016 30.6621C289.016 30.3545 288.91 30.0996 288.708 29.8975C288.497 29.6865 288.242 29.5898 287.935 29.5898C287.618 29.5898 287.363 29.6865 287.161 29.8975C286.95 30.0996 286.854 30.3545 286.854 30.6621C286.854 30.9785 286.95 31.2334 287.161 31.4355C287.363 31.6465 287.618 31.7432 287.935 31.7432C288.242 31.7432 288.497 31.6465 288.708 31.4355C288.91 31.2334 289.016 30.9785 289.016 30.6621ZM290.905 37.6846C290.905 38.8975 291.345 39.9434 292.241 40.8398C293.138 41.7363 294.192 42.1846 295.405 42.1846C295.818 42.1846 296.231 42.1143 296.645 41.9824C297.049 41.8506 297.383 41.71 297.646 41.5518C297.901 41.3936 298.147 41.2178 298.385 41.0156C298.613 40.8135 298.771 40.6729 298.842 40.585C298.912 40.4971 298.965 40.4355 299 40.3916L297.831 39.2227L297.559 39.5566C297.383 39.7676 297.093 39.9961 296.688 40.2246C296.284 40.4531 295.862 40.5674 295.405 40.5674C294.667 40.5674 294.034 40.2861 293.498 39.7324C292.962 39.1699 292.698 38.4932 292.698 37.6846C292.698 36.876 292.962 36.1992 293.498 35.6455C294.034 35.083 294.667 34.8105 295.405 34.8105C295.862 34.8105 296.284 34.9248 296.688 35.1621C297.093 35.3906 297.348 35.5752 297.471 35.7158C297.594 35.8564 297.682 35.9707 297.743 36.0674L298.912 34.8984L298.534 34.4854C298.279 34.1953 297.866 33.9053 297.286 33.6152C296.706 33.3252 296.073 33.1846 295.405 33.1846C294.192 33.1846 293.138 33.6328 292.241 34.5293C291.345 35.4258 290.905 36.4717 290.905 37.6846ZM307.728 42V36.4189C307.728 35.5049 307.385 34.7402 306.717 34.1162C306.04 33.4922 305.179 33.1758 304.124 33.1758C303.702 33.1758 303.289 33.2373 302.894 33.3516C302.498 33.4658 302.182 33.5977 301.944 33.7383C301.698 33.8877 301.47 34.0547 301.259 34.2393C301.048 34.4238 300.907 34.5557 300.846 34.626C300.784 34.6963 300.74 34.7578 300.705 34.8018L301.874 35.9707L302.111 35.6631C302.252 35.4697 302.507 35.2852 302.876 35.0918C303.245 34.8984 303.667 34.8018 304.124 34.8018C304.651 34.8018 305.082 34.96 305.416 35.2676C305.75 35.584 305.926 35.9619 305.926 36.4189L302.771 36.9639C301.988 37.0957 301.373 37.4033 300.925 37.8779C300.477 38.3613 300.257 38.959 300.257 39.6709C300.257 40.3213 300.547 40.9102 301.127 41.4199C301.707 41.9297 302.437 42.1846 303.315 42.1846C303.614 42.1846 303.904 42.1406 304.203 42.0703C304.493 41.9912 304.739 41.9033 304.933 41.8066C305.126 41.71 305.302 41.6045 305.469 41.4814C305.636 41.3584 305.75 41.2793 305.803 41.2266C305.855 41.1738 305.899 41.1299 305.926 41.1123V42.0088L307.728 42ZM303.588 40.5674C303.113 40.5674 302.744 40.4531 302.463 40.2422C302.182 40.0225 302.05 39.7676 302.05 39.4775C302.05 39.1699 302.146 38.915 302.349 38.7129C302.542 38.502 302.806 38.3701 303.131 38.3174L305.926 37.8691V38.0449C305.926 38.8535 305.715 39.4688 305.302 39.9082C304.889 40.3477 304.317 40.5674 303.588 40.5674ZM312.228 29.3965H310.435V42H312.228V29.3965Z" fill="#707C97"/>
</svg>
