<svg width="151" height="150" viewBox="0 0 151 150" fill="none" xmlns="http://www.w3.org/2000/svg">
<path fill-rule="evenodd" clip-rule="evenodd" d="M75.5117 6.02381C113.793 6.02381 144.97 36.9677 144.97 75.0087C144.97 113.032 113.816 144.011 75.5117 144.011C37.1837 144.011 6.02992 113.032 6.02992 75.0087C6.02992 36.9677 37.1837 6.02381 75.5117 6.02381ZM75.5117 0C33.8784 0 0 33.6616 0 75.0087C0 116.338 33.8784 150 75.5117 150C117.145 150 151 116.338 151 75.0087C151 33.6616 117.145 0 75.5117 0Z" fill="#30475E" fill-opacity="0.25"/>
<path d="M75.7086 120.407H47.1768L50.5771 108.781H79.1098L75.7086 120.407Z" fill="#30475E" fill-opacity="0.5"/>
<path d="M94.841 29.8723C88.6881 29.7186 79.1988 36.3834 77.9178 43.25C77.559 45.1906 78.0583 46.6471 79.0794 47.4597C79.429 47.8384 79.8775 48.1075 80.427 48.2229C82.1446 48.5857 84.1116 48.0059 85.789 46.7051C86.9361 45.8146 87.9447 44.5917 88.6406 43.1069C89.101 42.1188 89.4024 41.2092 89.5495 40.3833C89.7606 39.2231 89.69 38.2317 89.4143 37.4329C89.2507 36.9619 89.0199 36.5589 88.7356 36.2258C88.4539 35.8959 88.1149 35.6374 87.7395 35.45C87.2376 35.2033 86.6987 35.0734 86.1281 35.047C86.8675 34.6822 87.6538 34.4896 88.4209 34.5173C89.0429 34.5378 89.6069 34.6987 90.0937 34.9712C90.1003 34.9764 90.1135 34.9817 90.1234 34.9876C90.2989 34.5853 90.4934 34.2001 90.7105 33.828C91.7461 32.0741 93.2388 30.6902 94.8522 29.9297L94.8397 29.8723H94.841ZM78.0583 33.7772C72.9931 34.7146 66.4068 41.5984 66.546 47.2717C66.5836 48.8832 67.2517 49.9584 68.2247 50.4333C68.5789 50.6767 68.9905 50.8152 69.4588 50.8152C70.9291 50.8165 72.4403 50.0224 73.59 48.7031C74.3743 47.8027 74.9904 46.6583 75.3064 45.3562C75.5168 44.4921 75.5973 43.7184 75.5781 43.035C75.5491 42.0753 75.3235 41.2976 74.9587 40.7046C74.7457 40.3583 74.4832 40.0766 74.1909 39.8576C73.9007 39.6446 73.5801 39.4922 73.2411 39.4084C72.7879 39.2943 72.3209 39.2818 71.8552 39.357C72.3968 38.9421 73.003 38.6591 73.6408 38.5489C74.1527 38.4625 74.6401 38.4942 75.0887 38.6301C75.0979 38.6327 75.1058 38.6347 75.1131 38.6393C75.187 38.2884 75.2833 37.95 75.398 37.6162C75.9337 36.0628 76.9053 34.7212 78.0801 33.8439L78.0583 33.7772ZM101.733 38.7937C97.5177 38.9045 92.0534 41.4189 90.1907 45.1168C89.5344 46.4123 89.5746 47.5422 90.0937 48.3205C90.2507 48.6622 90.4974 48.9406 90.8437 49.1338C91.9321 49.7407 93.3931 49.7295 94.7988 49.1583C95.7625 48.7638 96.7038 48.1068 97.4861 47.2025C98.0105 46.6002 98.3983 46.0198 98.6701 45.467C99.0619 44.6926 99.2189 43.9802 99.2024 43.3622C99.1899 42.9974 99.116 42.6636 98.9907 42.3714C98.8686 42.0825 98.6965 41.8286 98.4795 41.6214C98.1932 41.3444 97.8508 41.1432 97.4735 41.0106C98.056 40.9038 98.6206 40.9282 99.1391 41.1023C99.5553 41.2415 99.9003 41.4724 100.169 41.7619C100.179 41.7699 100.188 41.7745 100.188 41.7784C100.393 41.5331 100.605 41.3015 100.833 41.0852C101.88 40.0792 103.154 39.417 104.384 39.1967L104.39 39.1155C103.61 38.8702 102.705 38.7679 101.733 38.7937ZM64.8956 41.9242C61.0606 43.1847 56.7025 49.1424 57.4359 53.4544C57.6437 54.6786 58.2803 55.4286 59.0903 55.6858C59.3917 55.8343 59.7281 55.8949 60.0922 55.8455C61.2367 55.6885 62.3224 54.922 63.0698 53.7921C63.5823 53.021 63.9345 52.081 64.0348 51.054C64.1007 50.3706 64.0823 49.7717 63.9919 49.2506C63.8633 48.5244 63.5994 47.9544 63.2525 47.5422C63.048 47.2988 62.8138 47.1115 62.5645 46.9756C62.3138 46.845 62.0467 46.7632 61.7736 46.7355C61.4102 46.6985 61.0447 46.7394 60.6898 46.8463C61.0672 46.4703 61.5065 46.19 61.9913 46.0389C62.3772 45.9162 62.7604 45.8905 63.1225 45.9433C63.1304 45.9466 63.139 45.9466 63.1456 45.9472C63.1641 45.6741 63.199 45.403 63.2525 45.1359C63.4985 43.8919 64.108 42.7646 64.9272 41.9664L64.8949 41.9242H64.8956ZM80.677 52.3158C65.8408 52.3158 53.3331 65.6012 50.4301 79.4579C47.0826 95.4398 56.8403 105.184 67.8612 104.977C79.6592 104.751 85.2666 92.1021 86.2376 89.4999L86.1254 89.4828C82.0793 96.1641 76.0524 98.5394 73.4139 98.5394C62.2254 98.5394 62.1252 87.438 64.5196 78.5628C67.8283 66.2912 73.0287 58.6673 80.6143 58.6673C83.3616 58.6673 87.318 60.6099 88.1986 69.3941L88.3543 69.4119C89.0812 67.371 92.7078 55.6318 92.7078 55.6318C89.1076 53.6423 85.4434 52.3158 80.6776 52.3158H80.677Z" fill="#30475E"/>
</svg>
