<svg width="60" height="60" viewBox="0 0 60 60" fill="none" xmlns="http://www.w3.org/2000/svg">
<rect width="60" height="60" rx="6" fill="url(#paint0_linear)"/>
<path fill-rule="evenodd" clip-rule="evenodd" d="M37 28H31V22C31 21.447 30.552 21 30 21C29.448 21 29 21.447 29 22V28H23C22.448 28 22 28.447 22 29C22 29.553 22.448 30 23 30H29V36C29 36.553 29.448 37 30 37C30.552 37 31 36.553 31 36V30H37C37.552 30 38 29.553 38 29C38 28.447 37.552 28 37 28Z" fill="#231F20"/>
<mask id="mask0" mask-type="alpha" maskUnits="userSpaceOnUse" x="22" y="21" width="16" height="16">
<path fill-rule="evenodd" clip-rule="evenodd" d="M37 28H31V22C31 21.447 30.552 21 30 21C29.448 21 29 21.447 29 22V28H23C22.448 28 22 28.447 22 29C22 29.553 22.448 30 23 30H29V36C29 36.553 29.448 37 30 37C30.552 37 31 36.553 31 36V30H37C37.552 30 38 29.553 38 29C38 28.447 37.552 28 37 28Z" fill="white"/>
</mask>
<g mask="url(#mask0)">
<rect x="18" y="17" width="24" height="24" fill="white"/>
</g>
<defs>
<linearGradient id="paint0_linear" x1="0" y1="0" x2="62.6727" y2="2.93538" gradientUnits="userSpaceOnUse">
<stop stop-color="#707C97"/>
<stop offset="1" stop-color="#30475E"/>
</linearGradient>
</defs>
</svg>
