<svg width="24" height="24" viewBox="0 0 24 24" fill="none" xmlns="http://www.w3.org/2000/svg">
<g id="Icon/Fill/message-circle">
<path id="Mask" fill-rule="evenodd" clip-rule="evenodd" d="M15.9996 12.9992C15.4476 12.9992 14.9996 12.5512 14.9996 11.9992C14.9996 11.4472 15.4476 10.9992 15.9996 10.9992C16.5516 10.9992 16.9996 11.4472 16.9996 11.9992C16.9996 12.5512 16.5516 12.9992 15.9996 12.9992ZM11.9996 12.9992C11.4476 12.9992 10.9996 12.5512 10.9996 11.9992C10.9996 11.4472 11.4476 10.9992 11.9996 10.9992C12.5516 10.9992 12.9996 11.4472 12.9996 11.9992C12.9996 12.5512 12.5516 12.9992 11.9996 12.9992ZM7.99961 12.9992C7.44761 12.9992 6.99961 12.5512 6.99961 11.9992C6.99961 11.4472 7.44761 10.9992 7.99961 10.9992C8.55161 10.9992 8.99961 11.4472 8.99961 11.9992C8.99961 12.5512 8.55161 12.9992 7.99961 12.9992ZM19.0706 4.92817C16.7866 2.64417 13.6256 1.62517 10.3966 2.12417C6.31961 2.76017 2.93961 6.04417 2.17661 10.1112C1.80961 12.0692 2.02061 14.0632 2.78761 15.8762C2.88561 16.1062 2.91561 16.3222 2.87661 16.5152L2.01961 20.8032C1.95361 21.1312 2.05661 21.4702 2.29261 21.7062C2.48161 21.8952 2.73661 21.9992 2.99961 21.9992C3.06461 21.9992 3.13061 21.9932 3.19561 21.9792L7.47861 21.1232C7.72461 21.0762 7.96361 21.1452 8.12261 21.2112C9.93661 21.9782 11.9306 22.1882 13.8876 21.8222C17.9546 21.0592 21.2386 17.6792 21.8746 13.6022C22.3776 10.3742 21.3556 7.21317 19.0706 4.92817ZM19.0706 4.92817C16.7866 2.64417 13.6256 1.62517 10.3966 2.12417C6.31961 2.76017 2.93961 6.04417 2.17661 10.1112C1.80961 12.0692 2.02061 14.0632 2.78761 15.8762C2.88561 16.1062 2.91561 16.3222 2.87661 16.5152L2.01961 20.8032C1.95361 21.1312 2.05661 21.4702 2.29261 21.7062C2.48161 21.8952 2.73661 21.9992 2.99961 21.9992C3.06461 21.9992 3.13061 21.9932 3.19561 21.9792L7.47861 21.1232C7.72461 21.0762 7.96361 21.1452 8.12261 21.2112C9.93661 21.9782 11.9306 22.1882 13.8876 21.8222C17.9546 21.0592 21.2386 17.6792 21.8746 13.6022C22.3776 10.3742 21.3556 7.21317 19.0706 4.92817Z" fill="#231F20"/>
<mask id="mask0" mask-type="alpha" maskUnits="userSpaceOnUse" x="2" y="2" width="21" height="20">
<path id="Mask_2" fill-rule="evenodd" clip-rule="evenodd" d="M15.9996 12.9992C15.4476 12.9992 14.9996 12.5512 14.9996 11.9992C14.9996 11.4472 15.4476 10.9992 15.9996 10.9992C16.5516 10.9992 16.9996 11.4472 16.9996 11.9992C16.9996 12.5512 16.5516 12.9992 15.9996 12.9992ZM11.9996 12.9992C11.4476 12.9992 10.9996 12.5512 10.9996 11.9992C10.9996 11.4472 11.4476 10.9992 11.9996 10.9992C12.5516 10.9992 12.9996 11.4472 12.9996 11.9992C12.9996 12.5512 12.5516 12.9992 11.9996 12.9992ZM7.99961 12.9992C7.44761 12.9992 6.99961 12.5512 6.99961 11.9992C6.99961 11.4472 7.44761 10.9992 7.99961 10.9992C8.55161 10.9992 8.99961 11.4472 8.99961 11.9992C8.99961 12.5512 8.55161 12.9992 7.99961 12.9992ZM19.0706 4.92817C16.7866 2.64417 13.6256 1.62517 10.3966 2.12417C6.31961 2.76017 2.93961 6.04417 2.17661 10.1112C1.80961 12.0692 2.02061 14.0632 2.78761 15.8762C2.88561 16.1062 2.91561 16.3222 2.87661 16.5152L2.01961 20.8032C1.95361 21.1312 2.05661 21.4702 2.29261 21.7062C2.48161 21.8952 2.73661 21.9992 2.99961 21.9992C3.06461 21.9992 3.13061 21.9932 3.19561 21.9792L7.47861 21.1232C7.72461 21.0762 7.96361 21.1452 8.12261 21.2112C9.93661 21.9782 11.9306 22.1882 13.8876 21.8222C17.9546 21.0592 21.2386 17.6792 21.8746 13.6022C22.3776 10.3742 21.3556 7.21317 19.0706 4.92817ZM17.6563 6.34263C15.8291 4.51536 13.3004 3.70012 10.7172 4.09934C7.45565 4.60816 4.75168 7.23547 4.14128 10.4892C3.84769 12.0557 4.01649 13.6509 4.63008 15.1014C4.70848 15.2854 4.73248 15.4582 4.70128 15.6126L4.01569 19.0432C3.96289 19.3056 4.04529 19.5768 4.23408 19.7656C4.38528 19.9168 4.58928 20 4.79968 20C4.85168 20 4.90448 19.9952 4.95648 19.984L8.38283 19.2992C8.57963 19.2616 8.77083 19.3168 8.89803 19.3696C10.3492 19.9832 11.9444 20.1512 13.51 19.8584C16.7635 19.248 19.3907 16.5439 19.8995 13.2821C20.3019 10.6996 19.4843 8.17071 17.6563 6.34263Z" fill="white"/>
</mask>
<g mask="url(#mask0)">
<g id="&#240;&#159;&#142;&#168; Color">
<rect id="Base" width="24" height="24" fill="#707C97"/>
</g>
</g>
</g>
</svg>
