<svg width="850" height="60" viewBox="0 0 850 60" fill="none" xmlns="http://www.w3.org/2000/svg">
<path d="M0 6C0 2.68629 2.68629 0 6 0H844C847.314 0 850 2.68629 850 6V60H0V6Z" fill="#FAFBFF"/>
<path d="M400.936 30.3379V32.1396H403.37V34.1172L403.238 34.249C403.15 34.3369 403.019 34.4424 402.825 34.5654C402.632 34.6885 402.412 34.8203 402.157 34.9434C401.911 35.0664 401.586 35.1719 401.19 35.2598C400.795 35.3477 400.382 35.3828 399.942 35.3828C398.633 35.3828 397.525 34.9346 396.62 34.0205C395.715 33.1152 395.258 32.0078 395.258 30.6982C395.258 29.3975 395.715 28.29 396.62 27.3848C397.534 26.4795 398.642 26.0225 399.942 26.0225C400.435 26.0225 400.909 26.0928 401.349 26.2334C401.788 26.374 402.148 26.5234 402.421 26.6816C402.702 26.8398 402.957 27.0332 403.194 27.2529C403.44 27.4814 403.59 27.6309 403.66 27.7188C403.73 27.8066 403.774 27.8682 403.81 27.9121L405.066 26.6465L404.873 26.4004C404.741 26.2334 404.53 26.0312 404.24 25.7939C403.959 25.5654 403.625 25.3281 403.238 25.082C402.852 24.8447 402.368 24.6426 401.779 24.4756C401.199 24.3086 400.584 24.2207 399.942 24.2207C398.062 24.2207 396.479 24.8535 395.196 26.1016C393.922 27.3584 393.28 28.8877 393.28 30.6982C393.28 32.5088 393.922 34.0469 395.196 35.2949C396.479 36.5518 398.062 37.1758 399.942 37.1758C400.61 37.1758 401.261 37.0967 401.885 36.9297C402.509 36.7627 403.01 36.5781 403.396 36.376C403.783 36.1738 404.144 35.9365 404.478 35.6641C404.812 35.3916 405.031 35.1982 405.128 35.0928C405.225 34.9873 405.295 34.8994 405.339 34.8379V30.3379H400.936ZM415.956 33.3086L416.053 32.4121C416.053 31.1992 415.648 30.1973 414.84 29.3887C414.031 28.5801 413.029 28.1758 411.816 28.1758C410.604 28.1758 409.566 28.6152 408.705 29.4766C407.844 30.3379 407.404 31.375 407.404 32.5879C407.404 33.8535 407.853 34.9346 408.74 35.8311C409.628 36.7275 410.683 37.1758 411.904 37.1758C412.361 37.1758 412.81 37.1143 413.24 36.9824C413.671 36.8506 414.022 36.71 414.286 36.5518C414.559 36.3936 414.813 36.2178 415.051 36.0156C415.297 35.8135 415.455 35.6729 415.525 35.585C415.596 35.4971 415.648 35.4355 415.684 35.3828L414.515 34.2139L414.242 34.5479C414.066 34.7676 413.759 34.9873 413.319 35.2158C412.88 35.4443 412.414 35.5586 411.904 35.5586C411.21 35.5586 410.612 35.3389 410.103 34.8906C409.593 34.4512 409.294 33.9238 409.197 33.3086H415.956ZM411.808 29.7139C412.476 29.7139 413.021 29.9072 413.46 30.2939C413.899 30.6807 414.172 31.1729 414.277 31.7793H409.276C409.435 31.1729 409.733 30.6807 410.173 30.2939C410.612 29.9072 411.157 29.7139 411.808 29.7139ZM419.823 28.3604H418.021V37H419.823V32.3242C419.823 31.5332 420.025 30.9092 420.43 30.4697C420.834 30.0303 421.388 29.8018 422.073 29.8018C422.653 29.8018 423.146 30.0127 423.541 30.417C423.937 30.8301 424.139 31.3486 424.139 31.9727V37.0088H425.94V31.9727C425.94 30.8125 425.615 29.8984 424.965 29.2129C424.314 28.5273 423.471 28.1846 422.425 28.1846C422.126 28.1846 421.836 28.2197 421.537 28.2988C421.238 28.3779 421.001 28.4658 420.808 28.5625C420.614 28.6592 420.438 28.7646 420.263 28.8877C420.096 29.0107 419.981 29.0986 419.929 29.1514L419.814 29.2656L419.823 28.3604ZM436.47 33.3086L436.566 32.4121C436.566 31.1992 436.162 30.1973 435.354 29.3887C434.545 28.5801 433.543 28.1758 432.33 28.1758C431.117 28.1758 430.08 28.6152 429.219 29.4766C428.357 30.3379 427.918 31.375 427.918 32.5879C427.918 33.8535 428.366 34.9346 429.254 35.8311C430.142 36.7275 431.196 37.1758 432.418 37.1758C432.875 37.1758 433.323 37.1143 433.754 36.9824C434.185 36.8506 434.536 36.71 434.8 36.5518C435.072 36.3936 435.327 36.2178 435.564 36.0156C435.811 35.8135 435.969 35.6729 436.039 35.585C436.109 35.4971 436.162 35.4355 436.197 35.3828L435.028 34.2139L434.756 34.5479C434.58 34.7676 434.272 34.9873 433.833 35.2158C433.394 35.4443 432.928 35.5586 432.418 35.5586C431.724 35.5586 431.126 35.3389 430.616 34.8906C430.106 34.4512 429.808 33.9238 429.711 33.3086H436.47ZM432.321 29.7139C432.989 29.7139 433.534 29.9072 433.974 30.2939C434.413 30.6807 434.686 31.1729 434.791 31.7793H429.79C429.948 31.1729 430.247 30.6807 430.687 30.2939C431.126 29.9072 431.671 29.7139 432.321 29.7139ZM443.396 29.8896V28.1758H442.947C442.648 28.1758 442.35 28.2197 442.051 28.2988C441.752 28.3779 441.515 28.4658 441.321 28.5625C441.128 28.6592 440.952 28.7646 440.776 28.8877C440.609 29.0107 440.495 29.0898 440.442 29.1426L440.328 29.2568V28.3604H438.526V37H440.328V32.3242C440.328 31.5332 440.539 30.9092 440.943 30.4697C441.348 30.0303 441.893 29.8018 442.578 29.8018C442.877 29.8018 443.149 29.8369 443.396 29.8896ZM451.763 37V31.4189C451.763 30.5049 451.42 29.7402 450.752 29.1162C450.075 28.4922 449.214 28.1758 448.159 28.1758C447.737 28.1758 447.324 28.2373 446.929 28.3516C446.533 28.4658 446.217 28.5977 445.979 28.7383C445.733 28.8877 445.505 29.0547 445.294 29.2393C445.083 29.4238 444.942 29.5557 444.881 29.626C444.819 29.6963 444.775 29.7578 444.74 29.8018L445.909 30.9707L446.146 30.6631C446.287 30.4697 446.542 30.2852 446.911 30.0918C447.28 29.8984 447.702 29.8018 448.159 29.8018C448.687 29.8018 449.117 29.96 449.451 30.2676C449.785 30.584 449.961 30.9619 449.961 31.4189L446.806 31.9639C446.023 32.0957 445.408 32.4033 444.96 32.8779C444.512 33.3613 444.292 33.959 444.292 34.6709C444.292 35.3213 444.582 35.9102 445.162 36.4199C445.742 36.9297 446.472 37.1846 447.351 37.1846C447.649 37.1846 447.939 37.1406 448.238 37.0703C448.528 36.9912 448.774 36.9033 448.968 36.8066C449.161 36.71 449.337 36.6045 449.504 36.4814C449.671 36.3584 449.785 36.2793 449.838 36.2266C449.891 36.1738 449.935 36.1299 449.961 36.1123V37.0088L451.763 37ZM447.623 35.5674C447.148 35.5674 446.779 35.4531 446.498 35.2422C446.217 35.0225 446.085 34.7676 446.085 34.4775C446.085 34.1699 446.182 33.915 446.384 33.7129C446.577 33.502 446.841 33.3701 447.166 33.3174L449.961 32.8691V33.0449C449.961 33.8535 449.75 34.4688 449.337 34.9082C448.924 35.3477 448.353 35.5674 447.623 35.5674ZM456.263 24.3965H454.47V37H456.263V24.3965Z" fill="#0D1C2E"/>
</svg>
