<svg width="240" height="70" viewBox="0 0 240 70" fill="none" xmlns="http://www.w3.org/2000/svg">
<rect width="240" height="70" rx="6" fill="url(#paint0_linear)"/>
<path d="M71.3398 27.8008C69.2402 27.8008 67.4824 28.5039 66.0664 29.8906C64.6406 31.2871 63.9375 32.9863 63.9375 34.998C63.9375 37.0098 64.6406 38.7188 66.0664 40.1055C67.4824 41.502 69.2402 42.1953 71.3398 42.1953C72.043 42.1953 72.7266 42.0977 73.3906 41.9023C74.0547 41.707 74.6016 41.4824 75.0117 41.2383C75.4219 40.9844 75.8125 40.7012 76.1836 40.3887C76.5547 40.0664 76.7891 39.8418 76.8965 39.7148C77.0039 39.5879 77.082 39.4902 77.1309 39.4121L75.7246 38.0059L75.5684 38.25C75.4512 38.3965 75.2656 38.5723 75.0117 38.7871C74.7578 39.002 74.4746 39.2168 74.1426 39.4316C73.8105 39.6465 73.4004 39.8223 72.9023 39.9785C72.4043 40.1348 71.877 40.2129 71.3301 40.2129C69.875 40.2129 68.6445 39.7051 67.6387 38.6992C66.6328 37.6836 66.125 36.4531 66.125 35.0078C66.125 33.5527 66.6328 32.3223 67.6387 31.3164C68.6543 30.3105 69.8848 29.8125 71.3301 29.8125C71.877 29.8125 72.4043 29.8809 72.8926 30.0371C73.3809 30.1934 73.7812 30.3594 74.084 30.5352C74.3965 30.7109 74.6797 30.9258 74.9434 31.1699C75.2168 31.4238 75.3828 31.5898 75.4609 31.6875C75.5391 31.7852 75.5879 31.8535 75.627 31.9023L77.0234 30.4961L76.8086 30.2227C76.6621 30.0371 76.4277 29.8125 76.1055 29.5488C75.793 29.2949 75.4219 29.0312 74.9922 28.7578C74.5625 28.4941 74.0254 28.2695 73.3711 28.084C72.7266 27.8984 72.043 27.8008 71.3398 27.8008ZM84.6309 34.0996V32.1953H84.1328C83.8008 32.1953 83.4688 32.2441 83.1367 32.332C82.8047 32.4199 82.541 32.5176 82.3262 32.625C82.1113 32.7324 81.916 32.8496 81.7207 32.9863C81.5352 33.123 81.4082 33.2109 81.3496 33.2695L81.2227 33.3965V32.4004H79.2207V42H81.2227V36.8047C81.2227 35.9258 81.457 35.2324 81.9062 34.7441C82.3555 34.2559 82.9609 34.002 83.7227 34.002C84.0547 34.002 84.3574 34.041 84.6309 34.0996ZM95.1191 37.8984L95.2266 36.9023C95.2266 35.5547 94.7773 34.4414 93.8789 33.543C92.9805 32.6445 91.8672 32.1953 90.5195 32.1953C89.1719 32.1953 88.0195 32.6836 87.0625 33.6406C86.1055 34.5977 85.6172 35.75 85.6172 37.0977C85.6172 38.5039 86.1152 39.7051 87.1016 40.7012C88.0879 41.6973 89.2598 42.1953 90.6172 42.1953C91.125 42.1953 91.623 42.127 92.1016 41.9805C92.5801 41.834 92.9707 41.6777 93.2637 41.502C93.5664 41.3262 93.8496 41.1309 94.1133 40.9062C94.3867 40.6816 94.5625 40.5254 94.6406 40.4277C94.7188 40.3301 94.7773 40.2617 94.8164 40.2031L93.5176 38.9043L93.2148 39.2754C93.0195 39.5195 92.6777 39.7637 92.1895 40.0176C91.7012 40.2715 91.1836 40.3984 90.6172 40.3984C89.8457 40.3984 89.1816 40.1543 88.6152 39.6562C88.0488 39.168 87.7168 38.582 87.6094 37.8984H95.1191ZM90.5098 33.9043C91.252 33.9043 91.8574 34.1191 92.3457 34.5488C92.834 34.9785 93.1367 35.5254 93.2539 36.1992H87.6973C87.873 35.5254 88.2051 34.9785 88.6934 34.5488C89.1816 34.1191 89.7871 33.9043 90.5098 33.9043ZM105.119 42V35.7988C105.119 34.7832 104.738 33.9336 103.996 33.2402C103.244 32.5469 102.287 32.1953 101.115 32.1953C100.646 32.1953 100.188 32.2637 99.748 32.3906C99.3086 32.5176 98.957 32.6641 98.6934 32.8203C98.4199 32.9863 98.166 33.1719 97.9316 33.377C97.6973 33.582 97.541 33.7285 97.4727 33.8066C97.4043 33.8848 97.3555 33.9531 97.3164 34.002L98.6152 35.3008L98.8789 34.959C99.0352 34.7441 99.3184 34.5391 99.7285 34.3242C100.139 34.1094 100.607 34.002 101.115 34.002C101.701 34.002 102.18 34.1777 102.551 34.5195C102.922 34.8711 103.117 35.291 103.117 35.7988L99.6113 36.4043C98.7422 36.5508 98.0586 36.8926 97.5605 37.4199C97.0625 37.957 96.8184 38.6211 96.8184 39.4121C96.8184 40.1348 97.1406 40.7891 97.7852 41.3555C98.4297 41.9219 99.2402 42.2051 100.217 42.2051C100.549 42.2051 100.871 42.1562 101.203 42.0781C101.525 41.9902 101.799 41.8926 102.014 41.7852C102.229 41.6777 102.424 41.5605 102.609 41.4238C102.795 41.2871 102.922 41.1992 102.98 41.1406C103.039 41.082 103.088 41.0332 103.117 41.0137V42.0098L105.119 42ZM100.52 40.4082C99.9922 40.4082 99.582 40.2812 99.2695 40.0469C98.957 39.8027 98.8105 39.5195 98.8105 39.1973C98.8105 38.8555 98.918 38.5723 99.1426 38.3477C99.3574 38.1133 99.6504 37.9668 100.012 37.9082L103.117 37.4102V37.6055C103.117 38.5039 102.883 39.1875 102.424 39.6758C101.965 40.1641 101.33 40.4082 100.52 40.4082ZM109.123 31.1992C109.123 32 108.791 32.4004 108.127 32.4004H107.121V34.1973H108.928V39.1973C108.918 41.1992 109.846 42.1953 111.711 42.1953C112.258 42.1953 112.727 42.1367 113.117 42V40.2031L112.971 40.2422C112.883 40.2812 112.756 40.3203 112.59 40.3496C112.424 40.3887 112.268 40.3984 112.111 40.3984C111.77 40.3984 111.486 40.291 111.262 40.0566C111.027 39.832 110.92 39.5391 110.92 39.1777V34.1973H112.922V32.4004H110.92V29.1973H109.123V31.1992ZM123.596 37.8984L123.703 36.9023C123.703 35.5547 123.254 34.4414 122.355 33.543C121.457 32.6445 120.344 32.1953 118.996 32.1953C117.648 32.1953 116.496 32.6836 115.539 33.6406C114.582 34.5977 114.094 35.75 114.094 37.0977C114.094 38.5039 114.592 39.7051 115.578 40.7012C116.564 41.6973 117.736 42.1953 119.094 42.1953C119.602 42.1953 120.1 42.127 120.578 41.9805C121.057 41.834 121.447 41.6777 121.74 41.502C122.043 41.3262 122.326 41.1309 122.59 40.9062C122.863 40.6816 123.039 40.5254 123.117 40.4277C123.195 40.3301 123.254 40.2617 123.293 40.2031L121.994 38.9043L121.691 39.2754C121.496 39.5195 121.154 39.7637 120.666 40.0176C120.178 40.2715 119.66 40.3984 119.094 40.3984C118.322 40.3984 117.658 40.1543 117.092 39.6562C116.525 39.168 116.193 38.582 116.086 37.8984H123.596ZM118.986 33.9043C119.729 33.9043 120.334 34.1191 120.822 34.5488C121.311 34.9785 121.613 35.5254 121.73 36.1992H116.174C116.35 35.5254 116.682 34.9785 117.17 34.5488C117.658 34.1191 118.264 33.9043 118.986 33.9043ZM140.295 27.9961V38.1035L132.492 27.9961H130.598V42H132.795V31.9023L140.598 42H142.492V27.9961H140.295ZM154.689 37.8984L154.797 36.9023C154.797 35.5547 154.348 34.4414 153.449 33.543C152.551 32.6445 151.438 32.1953 150.09 32.1953C148.742 32.1953 147.59 32.6836 146.633 33.6406C145.676 34.5977 145.188 35.75 145.188 37.0977C145.188 38.5039 145.686 39.7051 146.672 40.7012C147.658 41.6973 148.83 42.1953 150.188 42.1953C150.695 42.1953 151.193 42.127 151.672 41.9805C152.15 41.834 152.541 41.6777 152.834 41.502C153.137 41.3262 153.42 41.1309 153.684 40.9062C153.957 40.6816 154.133 40.5254 154.211 40.4277C154.289 40.3301 154.348 40.2617 154.387 40.2031L153.088 38.9043L152.785 39.2754C152.59 39.5195 152.248 39.7637 151.76 40.0176C151.271 40.2715 150.754 40.3984 150.188 40.3984C149.416 40.3984 148.752 40.1543 148.186 39.6562C147.619 39.168 147.287 38.582 147.18 37.8984H154.689ZM150.08 33.9043C150.822 33.9043 151.428 34.1191 151.916 34.5488C152.404 34.9785 152.707 35.5254 152.824 36.1992H147.268C147.443 35.5254 147.775 34.9785 148.264 34.5488C148.752 34.1191 149.357 33.9043 150.08 33.9043ZM162.287 32.4004L160.09 39.002L157.883 32.4004H155.783L159.084 42H160.988L163.186 35.6035L165.383 42H167.287L170.588 32.4004H168.488L166.281 39.002L164.084 32.4004H162.287ZM176.887 27.9961V42H179.084V37H182.482C183.811 37 184.934 36.5703 185.832 35.6914C186.73 34.8223 187.189 33.7578 187.189 32.5078C187.189 31.2578 186.73 30.1934 185.832 29.3145C184.934 28.4355 183.811 28.0059 182.482 28.0059L176.887 27.9961ZM182.482 30.0078C183.166 30.0078 183.762 30.2422 184.25 30.7305C184.738 31.209 184.982 31.8047 184.982 32.5078C184.982 33.2109 184.738 33.8066 184.25 34.2852C183.762 34.7637 183.166 34.998 182.482 34.998H179.084V29.998L182.482 30.0078ZM196.672 37.2051C196.672 38.1035 196.369 38.8555 195.783 39.4707C195.188 40.0957 194.484 40.3984 193.674 40.3984C192.854 40.3984 192.15 40.0957 191.555 39.4707C190.959 38.8555 190.666 38.1035 190.666 37.2051C190.666 36.3066 190.959 35.5547 191.555 34.9297C192.15 34.3145 192.854 34.002 193.674 34.002C194.484 34.002 195.188 34.3145 195.783 34.9297C196.369 35.5547 196.672 36.3066 196.672 37.2051ZM188.674 37.2051C188.674 38.5527 189.162 39.7148 190.158 40.7109C191.154 41.707 192.326 42.2051 193.674 42.2051C195.021 42.2051 196.184 41.707 197.18 40.7109C198.176 39.7148 198.674 38.5527 198.674 37.2051C198.674 35.8574 198.176 34.6855 197.18 33.6895C196.184 32.6934 195.021 32.1953 193.674 32.1953C192.326 32.1953 191.154 32.6934 190.158 33.6895C189.162 34.6855 188.674 35.8574 188.674 37.2051ZM206.975 33.5039L206.848 33.3574C206.77 33.2793 206.643 33.1816 206.467 33.0449C206.291 32.9082 206.096 32.7812 205.871 32.6543C205.637 32.5273 205.344 32.4199 204.982 32.332C204.621 32.2441 204.25 32.1953 203.869 32.1953C202.893 32.1953 202.082 32.4785 201.438 33.0449C200.793 33.6113 200.471 34.2656 200.471 34.998C200.471 35.5352 200.588 35.9941 200.832 36.375C201.066 36.7559 201.369 37.0391 201.74 37.2148C202.111 37.3906 202.502 37.5566 202.922 37.7031C203.342 37.8496 203.732 37.9766 204.104 38.0742C204.465 38.1719 204.768 38.3184 205.012 38.5039C205.246 38.6895 205.373 38.9238 205.373 39.1973C205.373 39.5684 205.236 39.8613 204.973 40.0762C204.699 40.291 204.299 40.3984 203.771 40.3984C203.322 40.3984 202.893 40.291 202.473 40.0762C202.053 39.8613 201.779 39.6758 201.652 39.5391C201.525 39.4023 201.428 39.2949 201.369 39.1973L200.07 40.4961L200.217 40.6816C200.305 40.7988 200.451 40.9453 200.656 41.1113C200.861 41.2773 201.105 41.4434 201.379 41.5996C201.652 41.7656 201.994 41.9023 202.424 42.0195C202.854 42.1367 203.303 42.1953 203.771 42.1953C204.836 42.1953 205.705 41.9023 206.369 41.3164C207.033 40.7305 207.375 40.0273 207.375 39.1973C207.375 38.6699 207.248 38.2109 207.014 37.8301C206.77 37.459 206.467 37.1758 206.096 36.9902C205.725 36.8145 205.334 36.6484 204.914 36.502C204.494 36.3555 204.104 36.2285 203.742 36.1309C203.371 36.0332 203.068 35.8965 202.834 35.7012C202.59 35.5156 202.473 35.2812 202.473 34.998C202.473 34.7344 202.59 34.5 202.844 34.3047C203.098 34.1094 203.439 34.002 203.869 34.002C204.182 34.002 204.504 34.0801 204.816 34.2266C205.129 34.373 205.344 34.4902 205.441 34.5879C205.539 34.6855 205.617 34.7539 205.666 34.8027L206.975 33.5039Z" fill="white"/>
<path d="M210.902 31.1992C210.902 32 210.57 32.4004 209.906 32.4004H208.9V34.1973H210.707V39.1973C210.697 41.1992 211.625 42.1953 213.49 42.1953C214.037 42.1953 214.506 42.1367 214.896 42V40.2031L214.75 40.2422C214.662 40.2812 214.535 40.3203 214.369 40.3496C214.203 40.3887 214.047 40.3984 213.891 40.3984C213.549 40.3984 213.266 40.291 213.041 40.0566C212.807 39.832 212.699 39.5391 212.699 39.1777V34.1973H214.701V32.4004H212.699V29.1973H210.902V31.1992Z" fill="white"/>
<path fill-rule="evenodd" clip-rule="evenodd" d="M44 34H38V28C38 27.447 37.552 27 37 27C36.448 27 36 27.447 36 28V34H30C29.448 34 29 34.447 29 35C29 35.553 29.448 36 30 36H36V42C36 42.553 36.448 43 37 43C37.552 43 38 42.553 38 42V36H44C44.552 36 45 35.553 45 35C45 34.447 44.552 34 44 34Z" fill="#231F20"/>
<mask id="mask0" mask-type="alpha" maskUnits="userSpaceOnUse" x="29" y="27" width="16" height="16">
<path fill-rule="evenodd" clip-rule="evenodd" d="M44 34H38V28C38 27.447 37.552 27 37 27C36.448 27 36 27.447 36 28V34H30C29.448 34 29 34.447 29 35C29 35.553 29.448 36 30 36H36V42C36 42.553 36.448 43 37 43C37.552 43 38 42.553 38 42V36H44C44.552 36 45 35.553 45 35C45 34.447 44.552 34 44 34Z" fill="white"/>
</mask>
<g mask="url(#mask0)">
<rect x="25" y="23" width="24" height="24" fill="white"/>
</g>
<defs>
<linearGradient id="paint0_linear" x1="0" y1="0" x2="244.925" y2="39.3308" gradientUnits="userSpaceOnUse">
<stop stop-color="#707C97"/>
<stop offset="1" stop-color="#30475E"/>
</linearGradient>
</defs>
</svg>
