<svg width="240" height="70" viewBox="0 0 240 70" fill="none" xmlns="http://www.w3.org/2000/svg">
<rect width="240" height="70" rx="6" fill="url(#paint0_linear)"/>
<path d="M67.6875 27.8008C65.5879 27.8008 63.8301 28.5039 62.4141 29.8906C60.9883 31.2871 60.2852 32.9863 60.2852 34.998C60.2852 37.0098 60.9883 38.7188 62.4141 40.1055C63.8301 41.502 65.5879 42.1953 67.6875 42.1953C68.3906 42.1953 69.0742 42.0977 69.7383 41.9023C70.4023 41.707 70.9492 41.4824 71.3594 41.2383C71.7695 40.9844 72.1602 40.7012 72.5312 40.3887C72.9023 40.0664 73.1367 39.8418 73.2441 39.7148C73.3516 39.5879 73.4297 39.4902 73.4785 39.4121L72.0723 38.0059L71.916 38.25C71.7988 38.3965 71.6133 38.5723 71.3594 38.7871C71.1055 39.002 70.8223 39.2168 70.4902 39.4316C70.1582 39.6465 69.748 39.8223 69.25 39.9785C68.752 40.1348 68.2246 40.2129 67.6777 40.2129C66.2227 40.2129 64.9922 39.7051 63.9863 38.6992C62.9805 37.6836 62.4727 36.4531 62.4727 35.0078C62.4727 33.5527 62.9805 32.3223 63.9863 31.3164C65.002 30.3105 66.2324 29.8125 67.6777 29.8125C68.2246 29.8125 68.752 29.8809 69.2402 30.0371C69.7285 30.1934 70.1289 30.3594 70.4316 30.5352C70.7441 30.7109 71.0273 30.9258 71.291 31.1699C71.5645 31.4238 71.7305 31.5898 71.8086 31.6875C71.8867 31.7852 71.9355 31.8535 71.9746 31.9023L73.3711 30.4961L73.1562 30.2227C73.0098 30.0371 72.7754 29.8125 72.4531 29.5488C72.1406 29.2949 71.7695 29.0312 71.3398 28.7578C70.9102 28.4941 70.373 28.2695 69.7188 28.084C69.0742 27.8984 68.3906 27.8008 67.6875 27.8008ZM80.9785 34.0996V32.1953H80.4805C80.1484 32.1953 79.8164 32.2441 79.4844 32.332C79.1523 32.4199 78.8887 32.5176 78.6738 32.625C78.459 32.7324 78.2637 32.8496 78.0684 32.9863C77.8828 33.123 77.7559 33.2109 77.6973 33.2695L77.5703 33.3965V32.4004H75.5684V42H77.5703V36.8047C77.5703 35.9258 77.8047 35.2324 78.2539 34.7441C78.7031 34.2559 79.3086 34.002 80.0703 34.002C80.4023 34.002 80.7051 34.041 80.9785 34.0996ZM91.4668 37.8984L91.5742 36.9023C91.5742 35.5547 91.125 34.4414 90.2266 33.543C89.3281 32.6445 88.2148 32.1953 86.8672 32.1953C85.5195 32.1953 84.3672 32.6836 83.4102 33.6406C82.4531 34.5977 81.9648 35.75 81.9648 37.0977C81.9648 38.5039 82.4629 39.7051 83.4492 40.7012C84.4355 41.6973 85.6074 42.1953 86.9648 42.1953C87.4727 42.1953 87.9707 42.127 88.4492 41.9805C88.9277 41.834 89.3184 41.6777 89.6113 41.502C89.9141 41.3262 90.1973 41.1309 90.4609 40.9062C90.7344 40.6816 90.9102 40.5254 90.9883 40.4277C91.0664 40.3301 91.125 40.2617 91.1641 40.2031L89.8652 38.9043L89.5625 39.2754C89.3672 39.5195 89.0254 39.7637 88.5371 40.0176C88.0488 40.2715 87.5312 40.3984 86.9648 40.3984C86.1934 40.3984 85.5293 40.1543 84.9629 39.6562C84.3965 39.168 84.0645 38.582 83.957 37.8984H91.4668ZM86.8574 33.9043C87.5996 33.9043 88.2051 34.1191 88.6934 34.5488C89.1816 34.9785 89.4844 35.5254 89.6016 36.1992H84.0449C84.2207 35.5254 84.5527 34.9785 85.041 34.5488C85.5293 34.1191 86.1348 33.9043 86.8574 33.9043ZM101.467 42V35.7988C101.467 34.7832 101.086 33.9336 100.344 33.2402C99.5918 32.5469 98.6348 32.1953 97.4629 32.1953C96.9941 32.1953 96.5352 32.2637 96.0957 32.3906C95.6562 32.5176 95.3047 32.6641 95.041 32.8203C94.7676 32.9863 94.5137 33.1719 94.2793 33.377C94.0449 33.582 93.8887 33.7285 93.8203 33.8066C93.752 33.8848 93.7031 33.9531 93.6641 34.002L94.9629 35.3008L95.2266 34.959C95.3828 34.7441 95.666 34.5391 96.0762 34.3242C96.4863 34.1094 96.9551 34.002 97.4629 34.002C98.0488 34.002 98.5273 34.1777 98.8984 34.5195C99.2695 34.8711 99.4648 35.291 99.4648 35.7988L95.959 36.4043C95.0898 36.5508 94.4062 36.8926 93.9082 37.4199C93.4102 37.957 93.166 38.6211 93.166 39.4121C93.166 40.1348 93.4883 40.7891 94.1328 41.3555C94.7773 41.9219 95.5879 42.2051 96.5645 42.2051C96.8965 42.2051 97.2188 42.1562 97.5508 42.0781C97.873 41.9902 98.1465 41.8926 98.3613 41.7852C98.5762 41.6777 98.7715 41.5605 98.957 41.4238C99.1426 41.2871 99.2695 41.1992 99.3281 41.1406C99.3867 41.082 99.4355 41.0332 99.4648 41.0137V42.0098L101.467 42ZM96.8672 40.4082C96.3398 40.4082 95.9297 40.2812 95.6172 40.0469C95.3047 39.8027 95.1582 39.5195 95.1582 39.1973C95.1582 38.8555 95.2656 38.5723 95.4902 38.3477C95.7051 38.1133 95.998 37.9668 96.3594 37.9082L99.4648 37.4102V37.6055C99.4648 38.5039 99.2305 39.1875 98.7715 39.6758C98.3125 40.1641 97.6777 40.4082 96.8672 40.4082ZM105.471 31.1992C105.471 32 105.139 32.4004 104.475 32.4004H103.469V34.1973H105.275V39.1973C105.266 41.1992 106.193 42.1953 108.059 42.1953C108.605 42.1953 109.074 42.1367 109.465 42V40.2031L109.318 40.2422C109.23 40.2812 109.104 40.3203 108.938 40.3496C108.771 40.3887 108.615 40.3984 108.459 40.3984C108.117 40.3984 107.834 40.291 107.609 40.0566C107.375 39.832 107.268 39.5391 107.268 39.1777V34.1973H109.27V32.4004H107.268V29.1973H105.471V31.1992ZM119.943 37.8984L120.051 36.9023C120.051 35.5547 119.602 34.4414 118.703 33.543C117.805 32.6445 116.691 32.1953 115.344 32.1953C113.996 32.1953 112.844 32.6836 111.887 33.6406C110.93 34.5977 110.441 35.75 110.441 37.0977C110.441 38.5039 110.939 39.7051 111.926 40.7012C112.912 41.6973 114.084 42.1953 115.441 42.1953C115.949 42.1953 116.447 42.127 116.926 41.9805C117.404 41.834 117.795 41.6777 118.088 41.502C118.391 41.3262 118.674 41.1309 118.938 40.9062C119.211 40.6816 119.387 40.5254 119.465 40.4277C119.543 40.3301 119.602 40.2617 119.641 40.2031L118.342 38.9043L118.039 39.2754C117.844 39.5195 117.502 39.7637 117.014 40.0176C116.525 40.2715 116.008 40.3984 115.441 40.3984C114.67 40.3984 114.006 40.1543 113.439 39.6562C112.873 39.168 112.541 38.582 112.434 37.8984H119.943ZM115.334 33.9043C116.076 33.9043 116.682 34.1191 117.17 34.5488C117.658 34.9785 117.961 35.5254 118.078 36.1992H112.521C112.697 35.5254 113.029 34.9785 113.518 34.5488C114.006 34.1191 114.611 33.9043 115.334 33.9043ZM136.643 27.9961V38.1035L128.84 27.9961H126.945V42H129.143V31.9023L136.945 42H138.84V27.9961H136.643ZM151.037 37.8984L151.145 36.9023C151.145 35.5547 150.695 34.4414 149.797 33.543C148.898 32.6445 147.785 32.1953 146.438 32.1953C145.09 32.1953 143.938 32.6836 142.98 33.6406C142.023 34.5977 141.535 35.75 141.535 37.0977C141.535 38.5039 142.033 39.7051 143.02 40.7012C144.006 41.6973 145.178 42.1953 146.535 42.1953C147.043 42.1953 147.541 42.127 148.02 41.9805C148.498 41.834 148.889 41.6777 149.182 41.502C149.484 41.3262 149.768 41.1309 150.031 40.9062C150.305 40.6816 150.48 40.5254 150.559 40.4277C150.637 40.3301 150.695 40.2617 150.734 40.2031L149.436 38.9043L149.133 39.2754C148.938 39.5195 148.596 39.7637 148.107 40.0176C147.619 40.2715 147.102 40.3984 146.535 40.3984C145.764 40.3984 145.1 40.1543 144.533 39.6562C143.967 39.168 143.635 38.582 143.527 37.8984H151.037ZM146.428 33.9043C147.17 33.9043 147.775 34.1191 148.264 34.5488C148.752 34.9785 149.055 35.5254 149.172 36.1992H143.615C143.791 35.5254 144.123 34.9785 144.611 34.5488C145.1 34.1191 145.705 33.9043 146.428 33.9043ZM158.635 32.4004L156.438 39.002L154.23 32.4004H152.131L155.432 42H157.336L159.533 35.6035L161.73 42H163.635L166.936 32.4004H164.836L162.629 39.002L160.432 32.4004H158.635ZM173.234 27.9961V42H175.432V37H178.83C180.158 37 181.281 36.5703 182.18 35.6914C183.078 34.8223 183.537 33.7578 183.537 32.5078C183.537 31.2578 183.078 30.1934 182.18 29.3145C181.281 28.4355 180.158 28.0059 178.83 28.0059L173.234 27.9961ZM178.83 30.0078C179.514 30.0078 180.109 30.2422 180.598 30.7305C181.086 31.209 181.33 31.8047 181.33 32.5078C181.33 33.2109 181.086 33.8066 180.598 34.2852C180.109 34.7637 179.514 34.998 178.83 34.998H175.432V29.998L178.83 30.0078ZM193.02 37.2051C193.02 38.1035 192.717 38.8555 192.131 39.4707C191.535 40.0957 190.832 40.3984 190.021 40.3984C189.201 40.3984 188.498 40.0957 187.902 39.4707C187.307 38.8555 187.014 38.1035 187.014 37.2051C187.014 36.3066 187.307 35.5547 187.902 34.9297C188.498 34.3145 189.201 34.002 190.021 34.002C190.832 34.002 191.535 34.3145 192.131 34.9297C192.717 35.5547 193.02 36.3066 193.02 37.2051ZM185.021 37.2051C185.021 38.5527 185.51 39.7148 186.506 40.7109C187.502 41.707 188.674 42.2051 190.021 42.2051C191.369 42.2051 192.531 41.707 193.527 40.7109C194.523 39.7148 195.021 38.5527 195.021 37.2051C195.021 35.8574 194.523 34.6855 193.527 33.6895C192.531 32.6934 191.369 32.1953 190.021 32.1953C188.674 32.1953 187.502 32.6934 186.506 33.6895C185.51 34.6855 185.021 35.8574 185.021 37.2051ZM203.322 33.5039L203.137 33.2793C203.02 33.1523 202.902 32.9375 202.785 32.6348C202.668 32.332 202.619 32.0195 202.619 31.6973C202.619 31.0625 202.795 30.5547 203.166 30.1738C203.537 29.793 204.016 29.5977 204.621 29.5977C205.217 29.5977 205.695 29.7832 206.066 30.1543C206.438 30.5254 206.623 31.0039 206.623 31.5996V32.4004H204.816V34.1973H206.623V39.1973C206.613 41.1992 207.541 42.1953 209.406 42.1953C209.953 42.1953 210.422 42.1367 210.812 42V40.2031L210.666 40.2422C210.578 40.2812 210.451 40.3203 210.285 40.3496C210.119 40.3887 209.963 40.3984 209.807 40.3984C209.465 40.3984 209.182 40.291 208.957 40.0566C208.723 39.832 208.615 39.5391 208.615 39.1777V34.1973H210.617V32.4004H208.615V31.5996C208.615 30.5449 208.225 29.6562 207.463 28.9141C206.701 28.1719 205.754 27.8008 204.621 27.8008C203.547 27.8008 202.629 28.1523 201.867 28.8457C201.105 29.5391 200.725 30.3203 200.725 31.1992C200.725 31.7363 200.783 32.1074 200.92 32.3125L200.217 32.2051C199.24 32.2051 198.43 32.4883 197.785 33.0547C197.141 33.6211 196.818 34.2656 196.818 35.0078C196.818 35.5352 196.936 35.9941 197.18 36.375C197.414 36.7559 197.717 37.0391 198.088 37.2148C198.459 37.3906 198.85 37.5566 199.27 37.7031C199.689 37.8496 200.08 37.9766 200.451 38.0742C200.812 38.1719 201.115 38.3184 201.359 38.5039C201.594 38.6895 201.721 38.9238 201.721 39.207C201.721 39.5684 201.584 39.8613 201.32 40.0762C201.047 40.291 200.646 40.3984 200.119 40.3984C199.67 40.3984 199.24 40.291 198.82 40.0762C198.4 39.8613 198.127 39.6758 198 39.5391C197.873 39.4023 197.775 39.2949 197.717 39.1973L196.418 40.4961L196.564 40.6816C196.652 40.7988 196.799 40.9453 197.004 41.1113C197.209 41.2773 197.453 41.4434 197.727 41.5996C198 41.7656 198.342 41.9023 198.771 42.0195C199.201 42.1367 199.65 42.1953 200.119 42.1953C201.184 42.1953 202.053 41.9023 202.717 41.3164C203.381 40.7305 203.723 40.0273 203.723 39.1973C203.723 38.6699 203.596 38.2109 203.361 37.8301C203.117 37.459 202.814 37.1758 202.443 36.9902C202.072 36.8145 201.682 36.6484 201.262 36.502C200.842 36.3555 200.451 36.2285 200.09 36.1309C199.719 36.0332 199.416 35.8965 199.182 35.7012C198.938 35.5156 198.82 35.2812 198.82 34.998C198.82 34.7344 198.938 34.5 199.191 34.3047C199.445 34.1094 199.787 34.002 200.217 34.002C200.529 34.002 200.852 34.0801 201.164 34.2266C201.477 34.373 201.691 34.4902 201.789 34.5879C201.887 34.6855 201.965 34.7539 202.014 34.8027L203.322 33.5039Z" fill="white"/>
<path fill-rule="evenodd" clip-rule="evenodd" d="M44 34H38V28C38 27.447 37.552 27 37 27C36.448 27 36 27.447 36 28V34H30C29.448 34 29 34.447 29 35C29 35.553 29.448 36 30 36H36V42C36 42.553 36.448 43 37 43C37.552 43 38 42.553 38 42V36H44C44.552 36 45 35.553 45 35C45 34.447 44.552 34 44 34Z" fill="#231F20"/>
<mask id="mask0" mask-type="alpha" maskUnits="userSpaceOnUse" x="29" y="27" width="16" height="16">
<path fill-rule="evenodd" clip-rule="evenodd" d="M44 34H38V28C38 27.447 37.552 27 37 27C36.448 27 36 27.447 36 28V34H30C29.448 34 29 34.447 29 35C29 35.553 29.448 36 30 36H36V42C36 42.553 36.448 43 37 43C37.552 43 38 42.553 38 42V36H44C44.552 36 45 35.553 45 35C45 34.447 44.552 34 44 34Z" fill="white"/>
</mask>
<g mask="url(#mask0)">
<rect x="25" y="23" width="24" height="24" fill="white"/>
</g>
<defs>
<linearGradient id="paint0_linear" x1="0" y1="0" x2="244.925" y2="39.3308" gradientUnits="userSpaceOnUse">
<stop stop-color="#707C97"/>
<stop offset="1" stop-color="#30475E"/>
</linearGradient>
</defs>
</svg>
