<svg width="30" height="30" viewBox="0 0 30 30" fill="none" xmlns="http://www.w3.org/2000/svg">
<g id="Icon/Outline/more-vertical">
<path id="Mask" fill-rule="evenodd" clip-rule="evenodd" d="M21.25 15C21.25 16.38 22.37 17.5 23.75 17.5C25.13 17.5 26.25 16.38 26.25 15C26.25 13.62 25.13 12.5 23.75 12.5C22.37 12.5 21.25 13.62 21.25 15ZM17.5 15C17.5 13.62 16.38 12.5 15 12.5C13.62 12.5 12.5 13.62 12.5 15C12.5 16.38 13.62 17.5 15 17.5C16.38 17.5 17.5 16.38 17.5 15ZM6.25 12.5C7.63 12.5 8.75 13.62 8.75 15C8.75 16.38 7.63 17.5 6.25 17.5C4.87 17.5 3.75 16.38 3.75 15C3.75 13.62 4.87 12.5 6.25 12.5Z" fill="#231F20"/>
<mask id="mask0" mask-type="alpha" maskUnits="userSpaceOnUse" x="3" y="12" width="24" height="6">
<path id="Mask_2" fill-rule="evenodd" clip-rule="evenodd" d="M21.25 15C21.25 16.38 22.37 17.5 23.75 17.5C25.13 17.5 26.25 16.38 26.25 15C26.25 13.62 25.13 12.5 23.75 12.5C22.37 12.5 21.25 13.62 21.25 15ZM17.5 15C17.5 13.62 16.38 12.5 15 12.5C13.62 12.5 12.5 13.62 12.5 15C12.5 16.38 13.62 17.5 15 17.5C16.38 17.5 17.5 16.38 17.5 15ZM6.25 12.5C7.63 12.5 8.75 13.62 8.75 15C8.75 16.38 7.63 17.5 6.25 17.5C4.87 17.5 3.75 16.38 3.75 15C3.75 13.62 4.87 12.5 6.25 12.5Z" fill="white"/>
</mask>
<g mask="url(#mask0)">
<g id="&#240;&#159;&#142;&#168; Color">
<rect id="Base" x="30" width="30" height="30" transform="rotate(90 30 0)" fill="#707C97"/>
</g>
</g>
</g>
</svg>
