<svg width="23" height="21" viewBox="0 0 23 21" fill="none" xmlns="http://www.w3.org/2000/svg">
<path d="M21.3219 2.06291C20.1875 0.73261 18.6137 0 16.8906 0C14.4672 0 12.9329 1.49586 12.0725 2.75077C11.8493 3.0764 11.6594 3.40292 11.5 3.71017C11.3406 3.40292 11.1507 3.0764 10.9275 2.75077C10.0671 1.49586 8.53282 0 6.10938 0C4.38626 0 2.81251 0.732657 1.67806 2.06296C0.595979 3.33198 0 5.03156 0 6.8486C0 8.82651 0.747186 10.6662 2.35144 12.638C3.78521 14.4003 5.84788 16.2169 8.23643 18.3204C9.12646 19.1043 10.0469 19.9149 11.0267 20.801L11.0562 20.8276C11.1832 20.9426 11.3416 21 11.5 21C11.6584 21 11.8168 20.9425 11.9438 20.8276L11.9733 20.801C12.9531 19.9149 13.8735 19.1044 14.7637 18.3204C17.1521 16.217 19.2148 14.4004 20.6486 12.638C22.2528 10.6661 23 8.82651 23 6.8486C23 5.03156 22.404 3.33198 21.3219 2.06291ZM13.8895 17.2603C13.1223 17.936 12.3326 18.6315 11.5 19.3795C10.6674 18.6316 9.87774 17.9361 9.11034 17.2603C4.43581 13.1435 1.34766 10.4238 1.34766 6.8486C1.34766 5.37085 1.82405 3.9983 2.68911 2.98383C3.5641 1.95785 4.77874 1.39279 6.10938 1.39279C7.95697 1.39279 9.1513 2.56915 9.82783 3.55599C10.4347 4.44106 10.7513 5.33329 10.8593 5.67578C10.9497 5.96246 11.2083 6.15648 11.5 6.15648C11.7917 6.15648 12.0503 5.96246 12.1407 5.67578C12.2487 5.33329 12.5653 4.44106 13.1722 3.55594C13.8487 2.56915 15.043 1.39279 16.8906 1.39279C18.2213 1.39279 19.4359 1.95785 20.3108 2.98383C21.1759 3.9983 21.6523 5.37085 21.6523 6.8486C21.6523 10.4238 18.5642 13.1435 13.8895 17.2603Z" fill="#707C97"/>
</svg>
