<svg width="24" height="24" viewBox="0 0 24 24" fill="none" xmlns="http://www.w3.org/2000/svg">
<path d="M20.25 0H3.75C1.67892 0 0 1.67914 0 3.75048V15.752C0 17.8234 1.67892 19.5025 3.75 19.5025H18.4425L22.725 23.7856C23.0208 24.0756 23.4957 24.0708 23.7856 23.775C23.9223 23.6356 23.9992 23.4483 24 23.253V3.75048C24 1.67914 22.3211 0 20.25 0ZM22.5 21.4453L19.2825 18.2274C19.1422 18.0842 18.9504 18.0032 18.75 18.0023H3.75C2.50734 18.0023 1.5 16.9949 1.5 15.752V3.75048C1.5 2.50767 2.50734 1.50019 3.75 1.50019H20.25C21.4927 1.50019 22.5 2.50767 22.5 3.75048V21.4453Z" fill="#707C97"/>
</svg>
