<svg width="850" height="70" viewBox="0 0 850 70" fill="none" xmlns="http://www.w3.org/2000/svg">
<rect width="850" height="70" rx="6" fill="white"/>
<path d="M71.0908 40.3828C70.1943 40.3828 69.4121 40.0488 68.7529 39.3809C68.0938 38.7129 67.7686 37.9043 67.7686 36.9639V29.3965H65.7822V36.9639C65.7822 38.4053 66.292 39.627 67.3291 40.6465C68.3662 41.666 69.6143 42.1758 71.0908 42.1758C72.5674 42.1758 73.8154 41.6748 74.8525 40.6553C75.8896 39.6357 76.4082 38.4053 76.4082 36.9639V29.3965H74.4219V36.9639C74.4219 37.8955 74.0879 38.7041 73.4287 39.3721C72.7695 40.0488 71.9873 40.3828 71.0908 40.3828ZM80.9873 33.3604H79.1855V42H80.9873V37.3242C80.9873 36.5332 81.1895 35.9092 81.5938 35.4697C81.998 35.0303 82.5518 34.8018 83.2373 34.8018C83.8174 34.8018 84.3096 35.0127 84.7051 35.417C85.1006 35.8301 85.3027 36.3486 85.3027 36.9727V42.0088H87.1045V36.9727C87.1045 35.8125 86.7793 34.8984 86.1289 34.2129C85.4785 33.5273 84.6348 33.1846 83.5889 33.1846C83.29 33.1846 83 33.2197 82.7012 33.2988C82.4023 33.3779 82.165 33.4658 81.9717 33.5625C81.7783 33.6592 81.6025 33.7646 81.4268 33.8877C81.2598 34.0107 81.1455 34.0986 81.0928 34.1514L80.9785 34.2656L80.9873 33.3604ZM91.5166 33.3604H89.7148V42H91.5166V33.3604ZM91.7012 30.6621C91.7012 30.3545 91.5957 30.0996 91.3936 29.8975C91.1826 29.6865 90.9277 29.5898 90.6201 29.5898C90.3037 29.5898 90.0488 29.6865 89.8467 29.8975C89.6357 30.0996 89.5391 30.3545 89.5391 30.6621C89.5391 30.9785 89.6357 31.2334 89.8467 31.4355C90.0488 31.6465 90.3037 31.7432 90.6201 31.7432C90.9277 31.7432 91.1826 31.6465 91.3936 31.4355C91.5957 31.2334 91.7012 30.9785 91.7012 30.6621ZM98.3545 42L101.87 33.3604H99.9805L97.458 39.6621L94.9355 33.3604H93.0459L96.5615 42H98.3545ZM111.31 38.3086L111.406 37.4121C111.406 36.1992 111.002 35.1973 110.193 34.3887C109.385 33.5801 108.383 33.1758 107.17 33.1758C105.957 33.1758 104.92 33.6152 104.059 34.4766C103.197 35.3379 102.758 36.375 102.758 37.5879C102.758 38.8535 103.206 39.9346 104.094 40.8311C104.981 41.7275 106.036 42.1758 107.258 42.1758C107.715 42.1758 108.163 42.1143 108.594 41.9824C109.024 41.8506 109.376 41.71 109.64 41.5518C109.912 41.3936 110.167 41.2178 110.404 41.0156C110.65 40.8135 110.809 40.6729 110.879 40.585C110.949 40.4971 111.002 40.4355 111.037 40.3828L109.868 39.2139L109.596 39.5479C109.42 39.7676 109.112 39.9873 108.673 40.2158C108.233 40.4443 107.768 40.5586 107.258 40.5586C106.563 40.5586 105.966 40.3389 105.456 39.8906C104.946 39.4512 104.647 38.9238 104.551 38.3086H111.31ZM107.161 34.7139C107.829 34.7139 108.374 34.9072 108.813 35.2939C109.253 35.6807 109.525 36.1729 109.631 36.7793H104.63C104.788 36.1729 105.087 35.6807 105.526 35.2939C105.966 34.9072 106.511 34.7139 107.161 34.7139ZM118.235 34.8896V33.1758H117.787C117.488 33.1758 117.189 33.2197 116.891 33.2988C116.592 33.3779 116.354 33.4658 116.161 33.5625C115.968 33.6592 115.792 33.7646 115.616 33.8877C115.449 34.0107 115.335 34.0898 115.282 34.1426L115.168 34.2568V33.3604H113.366V42H115.168V37.3242C115.168 36.5332 115.379 35.9092 115.783 35.4697C116.188 35.0303 116.732 34.8018 117.418 34.8018C117.717 34.8018 117.989 34.8369 118.235 34.8896ZM125.161 34.3535L125.047 34.2217C124.977 34.1514 124.862 34.0635 124.704 33.9404C124.546 33.8174 124.37 33.7031 124.168 33.5889C123.957 33.4746 123.693 33.3779 123.368 33.2988C123.043 33.2197 122.709 33.1758 122.366 33.1758C121.487 33.1758 120.758 33.4307 120.178 33.9404C119.598 34.4502 119.308 35.0391 119.308 35.6982C119.308 36.1816 119.413 36.5947 119.633 36.9375C119.844 37.2803 120.116 37.5352 120.45 37.6934C120.784 37.8516 121.136 38.001 121.514 38.1328C121.892 38.2646 122.243 38.3789 122.577 38.4668C122.902 38.5547 123.175 38.6865 123.395 38.8535C123.605 39.0205 123.72 39.2314 123.72 39.4775C123.72 39.8115 123.597 40.0752 123.359 40.2686C123.113 40.4619 122.753 40.5586 122.278 40.5586C121.874 40.5586 121.487 40.4619 121.109 40.2686C120.731 40.0752 120.485 39.9082 120.371 39.7852C120.257 39.6621 120.169 39.5654 120.116 39.4775L118.947 40.6465L119.079 40.8135C119.158 40.9189 119.29 41.0508 119.475 41.2002C119.659 41.3496 119.879 41.499 120.125 41.6396C120.371 41.7891 120.679 41.9121 121.065 42.0176C121.452 42.123 121.856 42.1758 122.278 42.1758C123.236 42.1758 124.019 41.9121 124.616 41.3848C125.214 40.8574 125.521 40.2246 125.521 39.4775C125.521 39.0029 125.407 38.5898 125.196 38.2471C124.977 37.9131 124.704 37.6582 124.37 37.4912C124.036 37.333 123.685 37.1836 123.307 37.0518C122.929 36.9199 122.577 36.8057 122.252 36.7178C121.918 36.6299 121.646 36.5068 121.435 36.3311C121.215 36.1641 121.109 35.9531 121.109 35.6982C121.109 35.4609 121.215 35.25 121.443 35.0742C121.672 34.8984 121.979 34.8018 122.366 34.8018C122.647 34.8018 122.938 34.8721 123.219 35.0039C123.5 35.1357 123.693 35.2412 123.781 35.3291C123.869 35.417 123.939 35.4785 123.983 35.5225L125.161 34.3535ZM129.38 33.3604H127.578V42H129.38V33.3604ZM129.564 30.6621C129.564 30.3545 129.459 30.0996 129.257 29.8975C129.046 29.6865 128.791 29.5898 128.483 29.5898C128.167 29.5898 127.912 29.6865 127.71 29.8975C127.499 30.0996 127.402 30.3545 127.402 30.6621C127.402 30.9785 127.499 31.2334 127.71 31.4355C127.912 31.6465 128.167 31.7432 128.483 31.7432C128.791 31.7432 129.046 31.6465 129.257 31.4355C129.459 31.2334 129.564 30.9785 129.564 30.6621ZM133.071 32.2793C133.071 33 132.772 33.3604 132.175 33.3604H131.27V34.9775H132.896V39.4775C132.887 41.2793 133.722 42.1758 135.4 42.1758C135.893 42.1758 136.314 42.123 136.666 42V40.3828L136.534 40.418C136.455 40.4531 136.341 40.4883 136.191 40.5146C136.042 40.5498 135.901 40.5586 135.761 40.5586C135.453 40.5586 135.198 40.4619 134.996 40.251C134.785 40.0488 134.688 39.7852 134.688 39.46V34.9775H136.49V33.3604H134.688V30.4775H133.071V32.2793ZM140.902 42.8965C140.568 43.7402 140.059 44.1621 139.373 44.1621C139.065 44.1621 138.767 44.1006 138.468 43.9775V45.6035L138.591 45.6387C138.688 45.6738 138.846 45.709 139.057 45.7354C139.268 45.7705 139.487 45.7793 139.733 45.7793C140.384 45.7793 140.929 45.5684 141.368 45.1377C141.808 44.7158 142.247 43.9688 142.695 42.8965L146.571 33.3604H144.682L142.159 39.6621L139.637 33.3604H137.747L141.263 42L140.902 42.8965Z" fill="#707C97"/>
<path d="M303.154 35.5225L298.294 29.3965H296.589V42H298.566V32.8242L303.154 38.5811L307.751 32.8242V42H309.729V29.3965H308.015L303.154 35.5225ZM319.625 42V36.4189C319.625 35.5049 319.282 34.7402 318.614 34.1162C317.938 33.4922 317.076 33.1758 316.021 33.1758C315.6 33.1758 315.187 33.2373 314.791 33.3516C314.396 33.4658 314.079 33.5977 313.842 33.7383C313.596 33.8877 313.367 34.0547 313.156 34.2393C312.945 34.4238 312.805 34.5557 312.743 34.626C312.682 34.6963 312.638 34.7578 312.603 34.8018L313.771 35.9707L314.009 35.6631C314.149 35.4697 314.404 35.2852 314.773 35.0918C315.143 34.8984 315.564 34.8018 316.021 34.8018C316.549 34.8018 316.979 34.96 317.313 35.2676C317.647 35.584 317.823 35.9619 317.823 36.4189L314.668 36.9639C313.886 37.0957 313.271 37.4033 312.822 37.8779C312.374 38.3613 312.154 38.959 312.154 39.6709C312.154 40.3213 312.444 40.9102 313.024 41.4199C313.604 41.9297 314.334 42.1846 315.213 42.1846C315.512 42.1846 315.802 42.1406 316.101 42.0703C316.391 41.9912 316.637 41.9033 316.83 41.8066C317.023 41.71 317.199 41.6045 317.366 41.4814C317.533 41.3584 317.647 41.2793 317.7 41.2266C317.753 41.1738 317.797 41.1299 317.823 41.1123V42.0088L319.625 42ZM315.485 40.5674C315.011 40.5674 314.642 40.4531 314.36 40.2422C314.079 40.0225 313.947 39.7676 313.947 39.4775C313.947 39.1699 314.044 38.915 314.246 38.7129C314.439 38.502 314.703 38.3701 315.028 38.3174L317.823 37.8691V38.0449C317.823 38.8535 317.612 39.4688 317.199 39.9082C316.786 40.3477 316.215 40.5674 315.485 40.5674ZM322.235 43.0635C322.235 43.3887 322.13 43.6523 321.928 43.8545C321.717 44.0654 321.462 44.1621 321.154 44.1621C320.855 44.1621 320.557 44.1006 320.258 43.9775V45.6035L320.398 45.6387C320.504 45.6738 320.662 45.709 320.873 45.7354C321.084 45.7705 321.295 45.7793 321.515 45.7793C323.193 45.7793 324.037 44.8828 324.037 43.0811V33.3604H322.235V43.0635ZM324.222 30.6621C324.222 30.3545 324.116 30.0996 323.914 29.8975C323.703 29.6865 323.448 29.5898 323.141 29.5898C322.824 29.5898 322.569 29.6865 322.367 29.8975C322.156 30.0996 322.06 30.3545 322.06 30.6621C322.06 30.9785 322.156 31.2334 322.367 31.4355C322.569 31.6465 322.824 31.7432 323.141 31.7432C323.448 31.7432 323.703 31.6465 323.914 31.4355C324.116 31.2334 324.222 30.9785 324.222 30.6621ZM333.31 37.6846C333.31 38.4932 333.037 39.1699 332.51 39.7236C331.974 40.2861 331.341 40.5586 330.611 40.5586C329.873 40.5586 329.24 40.2861 328.704 39.7236C328.168 39.1699 327.904 38.4932 327.904 37.6846C327.904 36.876 328.168 36.1992 328.704 35.6367C329.24 35.083 329.873 34.8018 330.611 34.8018C331.341 34.8018 331.974 35.083 332.51 35.6367C333.037 36.1992 333.31 36.876 333.31 37.6846ZM326.111 37.6846C326.111 38.8975 326.551 39.9434 327.447 40.8398C328.344 41.7363 329.398 42.1846 330.611 42.1846C331.824 42.1846 332.87 41.7363 333.767 40.8398C334.663 39.9434 335.111 38.8975 335.111 37.6846C335.111 36.4717 334.663 35.417 333.767 34.5205C332.87 33.624 331.824 33.1758 330.611 33.1758C329.398 33.1758 328.344 33.624 327.447 34.5205C326.551 35.417 326.111 36.4717 326.111 37.6846ZM341.949 34.8896V33.1758H341.501C341.202 33.1758 340.903 33.2197 340.604 33.2988C340.306 33.3779 340.068 33.4658 339.875 33.5625C339.682 33.6592 339.506 33.7646 339.33 33.8877C339.163 34.0107 339.049 34.0898 338.996 34.1426L338.882 34.2568V33.3604H337.08V42H338.882V37.3242C338.882 36.5332 339.093 35.9092 339.497 35.4697C339.901 35.0303 340.446 34.8018 341.132 34.8018C341.431 34.8018 341.703 34.8369 341.949 34.8896Z" fill="#707C97"/>
<path d="M508.569 29.2207C506.68 29.2207 505.098 29.8535 503.823 31.1016C502.54 32.3584 501.907 33.8877 501.907 35.6982C501.907 37.5088 502.54 39.0469 503.823 40.2949C505.098 41.5518 506.68 42.1758 508.569 42.1758C509.202 42.1758 509.817 42.0879 510.415 41.9121C511.013 41.7363 511.505 41.5342 511.874 41.3145C512.243 41.0859 512.595 40.8311 512.929 40.5498C513.263 40.2598 513.474 40.0576 513.57 39.9434C513.667 39.8291 513.737 39.7412 513.781 39.6709L512.516 38.4053L512.375 38.625C512.27 38.7568 512.103 38.915 511.874 39.1084C511.646 39.3018 511.391 39.4951 511.092 39.6885C510.793 39.8818 510.424 40.04 509.976 40.1807C509.527 40.3213 509.053 40.3916 508.561 40.3916C507.251 40.3916 506.144 39.9346 505.238 39.0293C504.333 38.1152 503.876 37.0078 503.876 35.707C503.876 34.3975 504.333 33.29 505.238 32.3848C506.152 31.4795 507.26 31.0312 508.561 31.0312C509.053 31.0312 509.527 31.0928 509.967 31.2334C510.406 31.374 510.767 31.5234 511.039 31.6816C511.32 31.8398 511.575 32.0332 511.812 32.2529C512.059 32.4814 512.208 32.6309 512.278 32.7188C512.349 32.8066 512.393 32.8682 512.428 32.9121L513.685 31.6465L513.491 31.4004C513.359 31.2334 513.148 31.0312 512.858 30.7939C512.577 30.5654 512.243 30.3281 511.856 30.082C511.47 29.8447 510.986 29.6426 510.397 29.4756C509.817 29.3086 509.202 29.2207 508.569 29.2207ZM517.648 29.3965H515.855V42H517.648V29.3965ZM527.281 42V36.4189C527.281 35.5049 526.938 34.7402 526.271 34.1162C525.594 33.4922 524.732 33.1758 523.678 33.1758C523.256 33.1758 522.843 33.2373 522.447 33.3516C522.052 33.4658 521.735 33.5977 521.498 33.7383C521.252 33.8877 521.023 34.0547 520.812 34.2393C520.602 34.4238 520.461 34.5557 520.399 34.626C520.338 34.6963 520.294 34.7578 520.259 34.8018L521.428 35.9707L521.665 35.6631C521.806 35.4697 522.061 35.2852 522.43 35.0918C522.799 34.8984 523.221 34.8018 523.678 34.8018C524.205 34.8018 524.636 34.96 524.97 35.2676C525.304 35.584 525.479 35.9619 525.479 36.4189L522.324 36.9639C521.542 37.0957 520.927 37.4033 520.479 37.8779C520.03 38.3613 519.811 38.959 519.811 39.6709C519.811 40.3213 520.101 40.9102 520.681 41.4199C521.261 41.9297 521.99 42.1846 522.869 42.1846C523.168 42.1846 523.458 42.1406 523.757 42.0703C524.047 41.9912 524.293 41.9033 524.486 41.8066C524.68 41.71 524.855 41.6045 525.022 41.4814C525.189 41.3584 525.304 41.2793 525.356 41.2266C525.409 41.1738 525.453 41.1299 525.479 41.1123V42.0088L527.281 42ZM523.142 40.5674C522.667 40.5674 522.298 40.4531 522.017 40.2422C521.735 40.0225 521.604 39.7676 521.604 39.4775C521.604 39.1699 521.7 38.915 521.902 38.7129C522.096 38.502 522.359 38.3701 522.685 38.3174L525.479 37.8691V38.0449C525.479 38.8535 525.269 39.4688 524.855 39.9082C524.442 40.3477 523.871 40.5674 523.142 40.5674ZM535.297 34.3535L535.183 34.2217C535.112 34.1514 534.998 34.0635 534.84 33.9404C534.682 33.8174 534.506 33.7031 534.304 33.5889C534.093 33.4746 533.829 33.3779 533.504 33.2988C533.179 33.2197 532.845 33.1758 532.502 33.1758C531.623 33.1758 530.894 33.4307 530.313 33.9404C529.733 34.4502 529.443 35.0391 529.443 35.6982C529.443 36.1816 529.549 36.5947 529.769 36.9375C529.979 37.2803 530.252 37.5352 530.586 37.6934C530.92 37.8516 531.271 38.001 531.649 38.1328C532.027 38.2646 532.379 38.3789 532.713 38.4668C533.038 38.5547 533.311 38.6865 533.53 38.8535C533.741 39.0205 533.855 39.2314 533.855 39.4775C533.855 39.8115 533.732 40.0752 533.495 40.2686C533.249 40.4619 532.889 40.5586 532.414 40.5586C532.01 40.5586 531.623 40.4619 531.245 40.2686C530.867 40.0752 530.621 39.9082 530.507 39.7852C530.393 39.6621 530.305 39.5654 530.252 39.4775L529.083 40.6465L529.215 40.8135C529.294 40.9189 529.426 41.0508 529.61 41.2002C529.795 41.3496 530.015 41.499 530.261 41.6396C530.507 41.7891 530.814 41.9121 531.201 42.0176C531.588 42.123 531.992 42.1758 532.414 42.1758C533.372 42.1758 534.154 41.9121 534.752 41.3848C535.35 40.8574 535.657 40.2246 535.657 39.4775C535.657 39.0029 535.543 38.5898 535.332 38.2471C535.112 37.9131 534.84 37.6582 534.506 37.4912C534.172 37.333 533.82 37.1836 533.442 37.0518C533.064 36.9199 532.713 36.8057 532.388 36.7178C532.054 36.6299 531.781 36.5068 531.57 36.3311C531.351 36.1641 531.245 35.9531 531.245 35.6982C531.245 35.4609 531.351 35.25 531.579 35.0742C531.808 34.8984 532.115 34.8018 532.502 34.8018C532.783 34.8018 533.073 34.8721 533.354 35.0039C533.636 35.1357 533.829 35.2412 533.917 35.3291C534.005 35.417 534.075 35.4785 534.119 35.5225L535.297 34.3535ZM543.119 34.3535L543.005 34.2217C542.935 34.1514 542.82 34.0635 542.662 33.9404C542.504 33.8174 542.328 33.7031 542.126 33.5889C541.915 33.4746 541.651 33.3779 541.326 33.2988C541.001 33.2197 540.667 33.1758 540.324 33.1758C539.445 33.1758 538.716 33.4307 538.136 33.9404C537.556 34.4502 537.266 35.0391 537.266 35.6982C537.266 36.1816 537.371 36.5947 537.591 36.9375C537.802 37.2803 538.074 37.5352 538.408 37.6934C538.742 37.8516 539.094 38.001 539.472 38.1328C539.85 38.2646 540.201 38.3789 540.535 38.4668C540.86 38.5547 541.133 38.6865 541.353 38.8535C541.563 39.0205 541.678 39.2314 541.678 39.4775C541.678 39.8115 541.555 40.0752 541.317 40.2686C541.071 40.4619 540.711 40.5586 540.236 40.5586C539.832 40.5586 539.445 40.4619 539.067 40.2686C538.689 40.0752 538.443 39.9082 538.329 39.7852C538.215 39.6621 538.127 39.5654 538.074 39.4775L536.905 40.6465L537.037 40.8135C537.116 40.9189 537.248 41.0508 537.433 41.2002C537.617 41.3496 537.837 41.499 538.083 41.6396C538.329 41.7891 538.637 41.9121 539.023 42.0176C539.41 42.123 539.814 42.1758 540.236 42.1758C541.194 42.1758 541.977 41.9121 542.574 41.3848C543.172 40.8574 543.479 40.2246 543.479 39.4775C543.479 39.0029 543.365 38.5898 543.154 38.2471C542.935 37.9131 542.662 37.6582 542.328 37.4912C541.994 37.333 541.643 37.1836 541.265 37.0518C540.887 36.9199 540.535 36.8057 540.21 36.7178C539.876 36.6299 539.604 36.5068 539.393 36.3311C539.173 36.1641 539.067 35.9531 539.067 35.6982C539.067 35.4609 539.173 35.25 539.401 35.0742C539.63 34.8984 539.938 34.8018 540.324 34.8018C540.605 34.8018 540.896 34.8721 541.177 35.0039C541.458 35.1357 541.651 35.2412 541.739 35.3291C541.827 35.417 541.897 35.4785 541.941 35.5225L543.119 34.3535ZM553.455 38.3086L553.552 37.4121C553.552 36.1992 553.147 35.1973 552.339 34.3887C551.53 33.5801 550.528 33.1758 549.315 33.1758C548.103 33.1758 547.065 33.6152 546.204 34.4766C545.343 35.3379 544.903 36.375 544.903 37.5879C544.903 38.8535 545.352 39.9346 546.239 40.8311C547.127 41.7275 548.182 42.1758 549.403 42.1758C549.86 42.1758 550.309 42.1143 550.739 41.9824C551.17 41.8506 551.521 41.71 551.785 41.5518C552.058 41.3936 552.312 41.2178 552.55 41.0156C552.796 40.8135 552.954 40.6729 553.024 40.585C553.095 40.4971 553.147 40.4355 553.183 40.3828L552.014 39.2139L551.741 39.5479C551.565 39.7676 551.258 39.9873 550.818 40.2158C550.379 40.4443 549.913 40.5586 549.403 40.5586C548.709 40.5586 548.111 40.3389 547.602 39.8906C547.092 39.4512 546.793 38.9238 546.696 38.3086H553.455ZM549.307 34.7139C549.975 34.7139 550.52 34.9072 550.959 35.2939C551.398 35.6807 551.671 36.1729 551.776 36.7793H546.775C546.934 36.1729 547.232 35.6807 547.672 35.2939C548.111 34.9072 548.656 34.7139 549.307 34.7139ZM561.014 34.3535L560.899 34.2217C560.829 34.1514 560.715 34.0635 560.557 33.9404C560.398 33.8174 560.223 33.7031 560.021 33.5889C559.81 33.4746 559.546 33.3779 559.221 33.2988C558.896 33.2197 558.562 33.1758 558.219 33.1758C557.34 33.1758 556.61 33.4307 556.03 33.9404C555.45 34.4502 555.16 35.0391 555.16 35.6982C555.16 36.1816 555.266 36.5947 555.485 36.9375C555.696 37.2803 555.969 37.5352 556.303 37.6934C556.637 37.8516 556.988 38.001 557.366 38.1328C557.744 38.2646 558.096 38.3789 558.43 38.4668C558.755 38.5547 559.027 38.6865 559.247 38.8535C559.458 39.0205 559.572 39.2314 559.572 39.4775C559.572 39.8115 559.449 40.0752 559.212 40.2686C558.966 40.4619 558.605 40.5586 558.131 40.5586C557.727 40.5586 557.34 40.4619 556.962 40.2686C556.584 40.0752 556.338 39.9082 556.224 39.7852C556.109 39.6621 556.021 39.5654 555.969 39.4775L554.8 40.6465L554.932 40.8135C555.011 40.9189 555.143 41.0508 555.327 41.2002C555.512 41.3496 555.731 41.499 555.978 41.6396C556.224 41.7891 556.531 41.9121 556.918 42.0176C557.305 42.123 557.709 42.1758 558.131 42.1758C559.089 42.1758 559.871 41.9121 560.469 41.3848C561.066 40.8574 561.374 40.2246 561.374 39.4775C561.374 39.0029 561.26 38.5898 561.049 38.2471C560.829 37.9131 560.557 37.6582 560.223 37.4912C559.889 37.333 559.537 37.1836 559.159 37.0518C558.781 36.9199 558.43 36.8057 558.104 36.7178C557.771 36.6299 557.498 36.5068 557.287 36.3311C557.067 36.1641 556.962 35.9531 556.962 35.6982C556.962 35.4609 557.067 35.25 557.296 35.0742C557.524 34.8984 557.832 34.8018 558.219 34.8018C558.5 34.8018 558.79 34.8721 559.071 35.0039C559.353 35.1357 559.546 35.2412 559.634 35.3291C559.722 35.417 559.792 35.4785 559.836 35.5225L561.014 34.3535Z" fill="#707C97"/>
<path d="M723.002 35.3379V37.1396H725.437V39.1172L725.305 39.249C725.217 39.3369 725.085 39.4424 724.892 39.5654C724.698 39.6885 724.479 39.8203 724.224 39.9434C723.978 40.0664 723.652 40.1719 723.257 40.2598C722.861 40.3477 722.448 40.3828 722.009 40.3828C720.699 40.3828 719.592 39.9346 718.687 39.0205C717.781 38.1152 717.324 37.0078 717.324 35.6982C717.324 34.3975 717.781 33.29 718.687 32.3848C719.601 31.4795 720.708 31.0225 722.009 31.0225C722.501 31.0225 722.976 31.0928 723.415 31.2334C723.854 31.374 724.215 31.5234 724.487 31.6816C724.769 31.8398 725.023 32.0332 725.261 32.2529C725.507 32.4814 725.656 32.6309 725.727 32.7188C725.797 32.8066 725.841 32.8682 725.876 32.9121L727.133 31.6465L726.939 31.4004C726.808 31.2334 726.597 31.0312 726.307 30.7939C726.025 30.5654 725.691 30.3281 725.305 30.082C724.918 29.8447 724.435 29.6426 723.846 29.4756C723.266 29.3086 722.65 29.2207 722.009 29.2207C720.128 29.2207 718.546 29.8535 717.263 31.1016C715.988 32.3584 715.347 33.8877 715.347 35.6982C715.347 37.5088 715.988 39.0469 717.263 40.2949C718.546 41.5518 720.128 42.1758 722.009 42.1758C722.677 42.1758 723.327 42.0967 723.951 41.9297C724.575 41.7627 725.076 41.5781 725.463 41.376C725.85 41.1738 726.21 40.9365 726.544 40.6641C726.878 40.3916 727.098 40.1982 727.194 40.0928C727.291 39.9873 727.361 39.8994 727.405 39.8379V35.3379H723.002ZM734.876 34.8896V33.1758H734.428C734.129 33.1758 733.83 33.2197 733.531 33.2988C733.232 33.3779 732.995 33.4658 732.802 33.5625C732.608 33.6592 732.433 33.7646 732.257 33.8877C732.09 34.0107 731.976 34.0898 731.923 34.1426L731.809 34.2568V33.3604H730.007V42H731.809V37.3242C731.809 36.5332 732.02 35.9092 732.424 35.4697C732.828 35.0303 733.373 34.8018 734.059 34.8018C734.357 34.8018 734.63 34.8369 734.876 34.8896ZM742.971 37.6846C742.971 38.4932 742.698 39.1699 742.171 39.7236C741.635 40.2861 741.002 40.5586 740.272 40.5586C739.534 40.5586 738.901 40.2861 738.365 39.7236C737.829 39.1699 737.565 38.4932 737.565 37.6846C737.565 36.876 737.829 36.1992 738.365 35.6367C738.901 35.083 739.534 34.8018 740.272 34.8018C741.002 34.8018 741.635 35.083 742.171 35.6367C742.698 36.1992 742.971 36.876 742.971 37.6846ZM735.772 37.6846C735.772 38.8975 736.212 39.9434 737.108 40.8398C738.005 41.7363 739.06 42.1846 740.272 42.1846C741.485 42.1846 742.531 41.7363 743.428 40.8398C744.324 39.9434 744.772 38.8975 744.772 37.6846C744.772 36.4717 744.324 35.417 743.428 34.5205C742.531 33.624 741.485 33.1758 740.272 33.1758C739.06 33.1758 738.005 33.624 737.108 34.5205C736.212 35.417 735.772 36.4717 735.772 37.6846ZM752.867 42H754.669V33.3604H752.867V38.0361C752.867 38.8359 752.656 39.46 752.252 39.8994C751.848 40.3389 751.303 40.5586 750.617 40.5586C750.028 40.5586 749.536 40.3564 749.141 39.9434C748.745 39.5391 748.552 39.0205 748.552 38.3965V33.3604H746.75V38.3965C746.75 39.5566 747.066 40.4707 747.717 41.1562C748.367 41.8418 749.211 42.1758 750.257 42.1758C750.556 42.1758 750.854 42.1406 751.153 42.0615C751.443 41.9912 751.689 41.9033 751.883 41.8066C752.076 41.71 752.252 41.6045 752.419 41.4814C752.586 41.3584 752.7 41.2705 752.753 41.2178L752.867 41.1035V42ZM761.867 42.1758C763.01 42.1758 763.994 41.7451 764.838 40.8662C765.682 39.9873 766.104 38.9238 766.104 37.6758C766.104 36.4277 765.682 35.373 764.838 34.4941C763.994 33.6152 763.01 33.1758 761.867 33.1758C761.357 33.1758 760.865 33.29 760.382 33.501C759.89 33.7207 759.573 33.8965 759.424 34.0283C759.274 34.1689 759.16 34.2744 759.081 34.3535V33.3604H757.279V45.7793H759.081V41.0068L759.204 41.1387C759.274 41.209 759.397 41.3057 759.564 41.4287C759.731 41.5518 759.925 41.666 760.145 41.7803C760.355 41.8945 760.619 41.9912 760.927 42.0615C761.226 42.1406 761.542 42.1758 761.867 42.1758ZM761.691 34.8018C762.377 34.8018 762.983 35.083 763.511 35.6455C764.038 36.208 764.302 36.8936 764.302 37.6846C764.302 38.4756 764.038 39.1523 763.511 39.7148C762.983 40.2773 762.377 40.5586 761.691 40.5586C761.006 40.5586 760.399 40.2773 759.872 39.7148C759.345 39.1523 759.081 38.4756 759.081 37.6846C759.081 36.8936 759.345 36.208 759.872 35.6455C760.399 35.083 761.006 34.8018 761.691 34.8018ZM773.565 34.3535L773.451 34.2217C773.381 34.1514 773.267 34.0635 773.108 33.9404C772.95 33.8174 772.774 33.7031 772.572 33.5889C772.361 33.4746 772.098 33.3779 771.772 33.2988C771.447 33.2197 771.113 33.1758 770.771 33.1758C769.892 33.1758 769.162 33.4307 768.582 33.9404C768.002 34.4502 767.712 35.0391 767.712 35.6982C767.712 36.1816 767.817 36.5947 768.037 36.9375C768.248 37.2803 768.521 37.5352 768.854 37.6934C769.188 37.8516 769.54 38.001 769.918 38.1328C770.296 38.2646 770.647 38.3789 770.981 38.4668C771.307 38.5547 771.579 38.6865 771.799 38.8535C772.01 39.0205 772.124 39.2314 772.124 39.4775C772.124 39.8115 772.001 40.0752 771.764 40.2686C771.518 40.4619 771.157 40.5586 770.683 40.5586C770.278 40.5586 769.892 40.4619 769.514 40.2686C769.136 40.0752 768.89 39.9082 768.775 39.7852C768.661 39.6621 768.573 39.5654 768.521 39.4775L767.352 40.6465L767.483 40.8135C767.562 40.9189 767.694 41.0508 767.879 41.2002C768.063 41.3496 768.283 41.499 768.529 41.6396C768.775 41.7891 769.083 41.9121 769.47 42.0176C769.856 42.123 770.261 42.1758 770.683 42.1758C771.641 42.1758 772.423 41.9121 773.021 41.3848C773.618 40.8574 773.926 40.2246 773.926 39.4775C773.926 39.0029 773.812 38.5898 773.601 38.2471C773.381 37.9131 773.108 37.6582 772.774 37.4912C772.44 37.333 772.089 37.1836 771.711 37.0518C771.333 36.9199 770.981 36.8057 770.656 36.7178C770.322 36.6299 770.05 36.5068 769.839 36.3311C769.619 36.1641 769.514 35.9531 769.514 35.6982C769.514 35.4609 769.619 35.25 769.848 35.0742C770.076 34.8984 770.384 34.8018 770.771 34.8018C771.052 34.8018 771.342 34.8721 771.623 35.0039C771.904 35.1357 772.098 35.2412 772.186 35.3291C772.273 35.417 772.344 35.4785 772.388 35.5225L773.565 34.3535Z" fill="#707C97"/>
<rect x="424" width="2" height="70" fill="#F5F4FB"/>
<rect x="211" width="2" height="70" fill="#F5F4FB"/>
<rect x="637" width="2" height="70" fill="#F5F4FB"/>
</svg>
